<?xml version="1.0" encoding="UTF-8" standalone="no"?>
<!-- Generator: Adobe Illustrator 17.1.0, SVG Export Plug-In . SVG Version: 6.00 Build 0)  -->

<svg
   xmlns:dc="http://purl.org/dc/elements/1.1/"
   xmlns:cc="http://creativecommons.org/ns#"
   xmlns:rdf="http://www.w3.org/1999/02/22-rdf-syntax-ns#"
   xmlns:svg="http://www.w3.org/2000/svg"
   xmlns="http://www.w3.org/2000/svg"
   xmlns:sodipodi="http://sodipodi.sourceforge.net/DTD/sodipodi-0.dtd"
   xmlns:inkscape="http://www.inkscape.org/namespaces/inkscape"
   version="1.1"
   id="Layer_1"
   x="0px"
   y="0px"
   width="471.26886"
   height="471.26886"
   viewBox="0 0 471.26886 471.26884"
   enable-background="new 0 0 1400 980"
   xml:space="preserve"
   sodipodi:docname="Wild Turkey 4.svg"
   inkscape:version="0.92.3 (2405546, 2018-03-11)"><metadata
   id="metadata1438"><rdf:RDF><cc:Work
       rdf:about=""><dc:format>image/svg+xml</dc:format><dc:type
         rdf:resource="http://purl.org/dc/dcmitype/StillImage" /><dc:title></dc:title></cc:Work></rdf:RDF></metadata><defs
   id="defs1436">
	
	
	
	

		
		
		
	
		
		
		
	
		
		
		
	
		
		
		
	</defs><sodipodi:namedview
   pagecolor="#ffffff"
   bordercolor="#666666"
   borderopacity="1"
   objecttolerance="10"
   gridtolerance="10"
   guidetolerance="10"
   inkscape:pageopacity="0"
   inkscape:pageshadow="2"
   inkscape:window-width="2560"
   inkscape:window-height="1385"
   id="namedview1434"
   showgrid="false"
   inkscape:zoom="0.88316194"
   inkscape:cx="547.90545"
   inkscape:cy="-8.0552428"
   inkscape:window-x="0"
   inkscape:window-y="27"
   inkscape:window-maximized="1"
   inkscape:current-layer="Layer_1"
   fit-margin-top="0"
   fit-margin-left="0"
   fit-margin-right="0"
   fit-margin-bottom="0" />

<g
   id="g1161"
   transform="translate(-43.72695,-52.131146)">
			<path
   d="m 247.4,106.8 c 2.7,0.7 6.9,3 6.8,10.1 -0.2,10.7 -3.2,22.1 -3.2,22.1 0,0 -0.7,-19.6 -3.9,-21.4 -1.3,-0.8 -2.3,-1.4 -3.1,-2 1.9,-2.6 3.1,-5.6 3.4,-8.8 z"
   id="path1139"
   inkscape:connector-curvature="0"
   style="clip-rule:evenodd;fill:#ea5d2a;fill-rule:evenodd" />
			<path
   d="m 238.2,121 c 3.4,7.8 9.5,23.3 12.7,41.4 -6,-8.9 -15.9,-18.1 -21.6,-18.1 -8.2,0 -6.6,10.4 -6.6,10.4 -3.4,-2.7 -4.3,-1.2 -5.7,0.7 -1.4,1.8 1.2,4.4 1.2,4.4 0,0 -3.2,0 -4.9,3 -1.8,3 1.9,7.6 1.9,7.6 0,0 -3.3,0.1 -5.8,3.8 -2.5,3.8 0.4,10.1 0.4,10.1 0,0 -1.7,-0.9 -3.8,1.8 -2.3,2.6 1.4,6.3 1.4,6.3 0,0 -2.4,-1.1 -5.1,1.5 -2.6,2.7 0.5,6.9 0.5,6.9 0,0 -0.2,0 -4.9,0.8 -4.7,0.7 -2.3,7.7 -2.3,7.7 l -65.3,34.1 C 115.4,236.8 102.5,227.2 97,216.5 95.6,213.7 94.6,210.8 94.2,208 l 5.9,-3.1 -0.6,9.7 15.3,-14.8 -0.5,10 13.5,-17.5 0.9,9.4 12.4,-21.9 0.1,11 c 0,0 3.3,-2.8 5,-7.2 1.7,-4.4 1.3,-20 1.3,-20 L 117,108.4 c 3.3,-4.3 7.6,-7.5 12.9,-8.5 24.8,-4.9 51.3,-5.3 57.5,0.8 6,6 12.9,19.8 21.3,21.7 8.3,1.9 8.8,4 9.8,1.9 0.2,-0.5 0.4,-1.4 0.5,-2.6 -6.2,-3.2 -10.2,-9.6 -10.2,-16.9 0,-10.7 8.7,-19.3 19.2,-19.3 10.7,0 19.3,8.7 19.3,19.3 0.3,6.6 -3.4,12.7 -9.1,16.2 z"
   id="path1141"
   inkscape:connector-curvature="0"
   style="clip-rule:evenodd;fill:#373332;fill-rule:evenodd" />
			<path
   d="m 222.7,154.6 c 0,0 -1.5,-10.4 6.6,-10.4 8.1,0 24.9,19.2 26.8,28.9 1.9,9.6 -0.2,36.6 -18.5,52.6 -18.2,16 -49.8,27.1 -49.8,27.1 l 18,-44.4 -10.2,0.7 c 0,0 -2.5,-7 2.3,-7.7 4.6,-0.8 4.9,-0.8 4.9,-0.8 0,0 -3.1,-4.1 -0.5,-6.9 2.7,-2.6 5.1,-1.5 5.1,-1.5 0,0 -3.7,-3.7 -1.4,-6.3 2.1,-2.7 3.8,-1.8 3.8,-1.8 0,0 -2.8,-6.3 -0.4,-10.1 2.5,-3.7 5.8,-3.8 5.8,-3.8 0,0 -3.7,-4.6 -1.9,-7.6 1.7,-3 4.9,-3 4.9,-3 0,0 -2.6,-2.6 -1.2,-4.4 1.4,-1.7 2.2,-3.3 5.7,-0.6 z"
   id="path1143"
   inkscape:connector-curvature="0"
   style="clip-rule:evenodd;fill:#afaeac;fill-rule:evenodd" />
			<path
   d="m 147.7,163.3 -61.4,-111 4.7,40.6 -18.6,-22 0.7,15.8 -6.6,-4.9 4.1,12.3 -5.5,0.4 4.1,7.5 -5.5,1.4 12.7,15.3 -4.7,1.1 19,18.2 -7.3,2.1 c 0,0 5.1,8.8 27,15.4 21.9,6.6 37.3,7.8 37.3,7.8 z"
   id="path1145"
   inkscape:connector-curvature="0"
   style="clip-rule:evenodd;fill:#373332;fill-rule:evenodd" />
			<path
   d="m 147.7,163.3 c 0,0 0.4,15.6 -1.3,20 -1.7,4.4 -5,7.2 -5,7.2 l -0.1,-11 -12.4,21.9 -0.9,-9.4 -13.5,17.5 0.5,-10 -15.3,14.8 0.6,-9.7 -22.8,11.4 6.6,-19 -21.7,0.4 41.6,-44.1 v 0 c 1.9,0.7 4,1.4 6.4,2.1 21.9,6.7 37.3,7.9 37.3,7.9 z"
   id="path1147"
   inkscape:connector-curvature="0"
   style="clip-rule:evenodd;fill:#afaeac;fill-rule:evenodd" />
			<polygon
   points="205.8,208.4 150.5,274.2 154.8,287.1 167.3,280.1 173.1,280.4 187.8,252.9 "
   id="polygon1149"
   style="clip-rule:evenodd;fill:#373332;fill-rule:evenodd" />
			<polygon
   points="146.4,282.4 152.6,280.7 150.5,274.2 205.8,208.4 198.9,208.9 138.4,270.4 139.1,280.7 "
   id="polygon1151"
   style="clip-rule:evenodd;fill:#afaeac;fill-rule:evenodd" />
			<polygon
   points="127.9,280.8 138.8,275.5 138.4,270.4 198.9,208.9 195.7,209.1 119.9,267.3 120.9,278.2 "
   id="polygon1153"
   style="clip-rule:evenodd;fill:#373332;fill-rule:evenodd" />
			<polygon
   points="119.9,267.3 110.6,265.4 110.6,253.7 195.7,209.1 "
   id="polygon1155"
   style="clip-rule:evenodd;fill:#afaeac;fill-rule:evenodd" />
			<path
   d="m 193.4,250.7 7.8,5.6 h 29.2 c 0,0 1.7,0.2 1.7,2.1 0.1,2 -2.4,3 -2.4,3 l -23.8,0.1 2.4,5.2 c 0,0 1.2,4.4 -2.1,3.8 -2.6,-0.4 -14.3,-9.8 -20,-14.3 l 1.8,-3.3 c -0.2,0 2,-0.7 5.4,-2.2 z"
   id="path1157"
   inkscape:connector-curvature="0"
   style="clip-rule:evenodd;fill:#ea5d2a;fill-rule:evenodd" />
			<path
   d="m 176.6,274 30,0.6 c 0,0 1.3,0 1.4,2.6 0,2.6 -2.1,2.3 -2.1,2.3 l -25.1,-0.4 4,6.3 c 0,0 0.1,2.6 -1.3,3.2 -1.3,0.5 -10.3,-8.2 -10.3,-8.2 z"
   id="path1159"
   inkscape:connector-curvature="0"
   style="clip-rule:evenodd;fill:#ea5d2a;fill-rule:evenodd" />
		</g><g
   id="g1181"
   transform="translate(-43.89581,-110.13115)">
			<path
   d="m 275.3,453 -69.2,0.2 c 0,0 -2.5,1.7 -1.8,5 0.6,3.3 3.1,2.6 3.1,2.6 z"
   id="path1163"
   inkscape:connector-curvature="0"
   style="clip-rule:evenodd;fill:#4b494e;fill-rule:evenodd" />
			<path
   d="m 85.2,521.6 81.6,-80.8 c 0,0 8.2,-6.2 22.6,-2.6 14.6,3.6 16.6,15 16.6,15 0,0 -2.5,1.7 -1.8,5 0.6,3.3 3.1,2.6 3.1,2.6 l 1.7,-0.1 v 0 c 0,0 3.8,21.6 -8.3,44 -12.1,22.4 -37.2,40.1 -61.4,39.3 C 115,543.4 96.5,531.7 96.5,531.7 l -46.8,36.5 c 0,0 -1.3,0.8 -4.4,-1.2 -3.1,-1.9 -0.1,-5.3 -0.1,-5.3 z"
   id="path1165"
   inkscape:connector-curvature="0"
   style="clip-rule:evenodd;fill:#7ead8d;fill-rule:evenodd" />
			<path
   d="m 209.4,474 c -0.5,8.2 -2.5,19.3 -8.7,30.7 -3.6,6.6 -8.3,12.9 -13.9,18.4 -4.7,-4.7 -6.4,-10.2 -6.4,-10.2 l -0.5,-39.2 z"
   id="path1167"
   inkscape:connector-curvature="0"
   style="clip-rule:evenodd;fill:#dbe5e4;fill-rule:evenodd" />
			<path
   d="m 96.6,531.7 -46.8,36.5 c 0,0 -1.3,0.8 -4.4,-1.2 -3.1,-1.9 -0.1,-5.3 -0.1,-5.3 l 39.9,-40.1 z"
   id="path1169"
   inkscape:connector-curvature="0"
   style="clip-rule:evenodd;fill:#6d9a7d;fill-rule:evenodd" />
			<path
   d="m 133.7,473.6 33.2,-32.8 c 0,0 8.2,-6.2 22.6,-2.6 14.6,3.6 16.6,15 16.6,15 0,0 -2.5,1.7 -1.8,5 0.6,3.3 3.1,2.6 3.1,2.6 l 1.7,-0.1 v 0 c 0,0 0.9,5.2 0.4,13.3 l -29.4,-0.4 z"
   id="path1171"
   inkscape:connector-curvature="0"
   style="clip-rule:evenodd;fill:#ea6548;fill-rule:evenodd" />
			<path
   d="m 157.7,449.8 9.1,-9 c 0,0 8.2,-6.2 22.6,-2.6 14.6,3.6 16.6,15 16.6,15 0,0 -2.5,1.7 -1.8,5 v 0.2 c -4.7,5.5 -12.3,9 -21,9 -12.4,0.1 -22.9,-7.5 -25.5,-17.6 z"
   id="path1173"
   inkscape:connector-curvature="0"
   style="clip-rule:evenodd;fill:#7ead8d;fill-rule:evenodd" />
			<path
   d="m 67,443.8 66.7,29.9 H 180 c 0,0 -9.7,29.4 -35.1,39.7 -25.2,10.4 -54.3,3 -54.3,3 L 118,489.3 c 0,-0.1 -50.2,13.4 -51,-45.5 z"
   id="path1175"
   inkscape:connector-curvature="0"
   style="clip-rule:evenodd;fill:#6d9a7d;fill-rule:evenodd" />
			<path
   d="m 134.3,417.9 -0.6,55.7 26,-25.7 c -0.1,0 -4.7,-27.5 -25.4,-30 z"
   id="path1177"
   inkscape:connector-curvature="0"
   style="clip-rule:evenodd;fill:#a6c4aa;fill-rule:evenodd" />
			<path
   d="m 192,457.4 c 2.6,0 4.9,-2.1 4.9,-4.9 0,-2.7 -2.3,-5 -4.9,-5 -2.7,0 -5,2.3 -5,5 0,2.8 2.3,4.9 5,4.9 z"
   id="path1179"
   inkscape:connector-curvature="0"
   style="clip-rule:evenodd;fill:#4b494e;fill-rule:evenodd" />
		</g><g
   id="g1239"
   transform="translate(-157.72695,-52.131146)">
			<path
   d="m 525.2,259.2 v 9.7 H 515 v -6.6 c -26.9,7.1 -54.2,5.2 -71.3,-10.1 35.8,-5.6 93.4,-29.7 113.9,-72 v 0 c 4.1,0.9 8.4,1.4 12.8,1.4 9.5,0 18.4,-2.4 26.2,-6.4 4.3,28.7 -17.4,55.6 -46.6,72.6 v 21.1 h -10.2 v -15.8 c -4.8,2.3 -9.7,4.3 -14.6,6.1 z"
   id="path1205"
   inkscape:connector-curvature="0"
   style="clip-rule:evenodd;fill:#dbe5e4;fill-rule:evenodd" />
			<path
   d="M 514.4,132.8 403.3,242.7 c 57.7,23.5 121.7,4.9 154.3,-62.6 v 0 c 4.1,0.9 8.4,1.4 12.8,1.4 31.2,0 56.4,-25.2 56.4,-56.4 0,-31.2 -25.2,-56.4 -56.4,-56.4 -31.2,0 -56.5,25.2 -56.5,56.4 -0.1,2.6 0.2,5.2 0.5,7.7 z"
   id="path1207"
   inkscape:connector-curvature="0"
   style="clip-rule:evenodd;fill:#da842f;fill-rule:evenodd" />
			<path
   d="M 458.6,188.1 429,217.2 c 19.7,-0.2 49.3,-0.7 61.9,-0.7 19.7,0 23.6,-29.7 23.6,-29.7 z"
   id="path1209"
   inkscape:connector-curvature="0"
   style="clip-rule:evenodd;fill:#4a7365;fill-rule:evenodd" />
			<path
   d="m 570.4,173.2 c 26.4,0 48,-21.7 48,-48.1 0,-26.4 -21.6,-48.1 -48,-48.1 -26.5,0 -48.1,21.7 -48.1,48.1 0,26.4 21.5,48.1 48.1,48.1 z"
   id="path1211"
   inkscape:connector-curvature="0"
   style="clip-rule:evenodd;fill:#dbe5e4;fill-rule:evenodd" />
			<path
   d="m 570.4,77 c 6.2,0 12.1,1.2 17.5,3.3 -4.5,5.3 -11,8.8 -18.4,8.8 -7,0 -13.4,-3.2 -18,-8.3 5.8,-2.4 12.2,-3.8 18.9,-3.8 z"
   id="path1213"
   inkscape:connector-curvature="0"
   style="clip-rule:evenodd;fill:#d17834;fill-rule:evenodd" />
			<path
   d="m 550.1,133.5 c 7.7,0 14,-6.3 14,-14 0,-7.7 -6.3,-14 -14,-14 -7.7,0 -14,6.3 -14,14 0,7.7 6.3,14 14,14 z"
   id="path1215"
   inkscape:connector-curvature="0"
   style="clip-rule:evenodd;fill:#4a765e;fill-rule:evenodd" />
			<path
   d="m 550.1,129.6 c 5.6,0 10.1,-4.6 10.1,-10.1 0,-5.6 -4.5,-10.1 -10.1,-10.1 -5.6,0 -10.1,4.6 -10.1,10.2 0,5.4 4.5,10 10.1,10 z"
   id="path1217"
   inkscape:connector-curvature="0"
   style="clip-rule:evenodd;fill:#fbb718;fill-rule:evenodd" />
			<path
   d="m 550.1,123.9 c 2.4,0 4.4,-2 4.4,-4.4 0,-2.5 -2,-4.5 -4.4,-4.5 -2.5,0 -4.5,2 -4.5,4.5 0,2.4 2,4.4 4.5,4.4 z"
   id="path1219"
   inkscape:connector-curvature="0"
   style="clip-rule:evenodd;fill:#4a765e;fill-rule:evenodd" />
			<path
   d="m 590.1,133.5 c 7.7,0 14,-6.3 14,-14 0,-7.7 -6.3,-14 -14,-14 -7.7,0 -14,6.3 -14,14 0,7.7 6.3,14 14,14 z"
   id="path1221"
   inkscape:connector-curvature="0"
   style="clip-rule:evenodd;fill:#4a765e;fill-rule:evenodd" />
			<path
   d="m 590.1,129.6 c 5.6,0 10.1,-4.6 10.1,-10.1 0,-5.6 -4.5,-10.1 -10.1,-10.1 -5.5,0 -10.1,4.5 -10.1,10.1 0.1,5.5 4.7,10.1 10.1,10.1 z"
   id="path1223"
   inkscape:connector-curvature="0"
   style="clip-rule:evenodd;fill:#fbb718;fill-rule:evenodd" />
			<path
   d="m 590.1,123.9 c 2.5,0 4.5,-2 4.5,-4.4 0,-2.5 -2,-4.5 -4.5,-4.5 -2.4,0 -4.4,2 -4.4,4.5 0.1,2.4 2.1,4.4 4.4,4.4 z"
   id="path1225"
   inkscape:connector-curvature="0"
   style="clip-rule:evenodd;fill:#4a765e;fill-rule:evenodd" />
			<path
   d="m 570.2,153.1 -5.5,-19.4 c 0,0 1.9,-2.6 5.7,-2.4 3.8,0.4 5.3,2.5 5.3,2.5 z"
   id="path1227"
   inkscape:connector-curvature="0"
   style="clip-rule:evenodd;fill:#fbb718;fill-rule:evenodd" />
			<path
   d="m 466.7,194 h 13.9 v 4 c 0,2.3 -1.8,4 -4,4 h -5.8 c -2.1,0 -4,-1.8 -4,-4 v -4 z"
   id="path1229"
   inkscape:connector-curvature="0"
   style="clip-rule:evenodd;fill:#dbe5e4;fill-rule:evenodd" />
			<path
   d="m 456.4,205 h 13.9 v 4 c 0,2.3 -1.8,4.1 -4,4.1 h -5.8 c -2.3,0 -4,-1.9 -4,-4.1 v -4 z"
   id="path1231"
   inkscape:connector-curvature="0"
   style="clip-rule:evenodd;fill:#dbe5e4;fill-rule:evenodd" />
			<path
   d="m 477.2,205.2 h 13.9 v 4.1 c 0,2.1 -1.9,4 -4,4 h -5.8 c -2.3,0 -4,-1.9 -4,-4 v -4.1 z"
   id="path1233"
   inkscape:connector-curvature="0"
   style="clip-rule:evenodd;fill:#dbe5e4;fill-rule:evenodd" />
			<path
   d="m 527.5,261.5 c 5.2,0 9.5,4.3 9.5,9.6 0,0.2 0,0.6 0,0.9 h -4.9 c 0.1,-0.4 0.1,-0.7 0.1,-0.9 0,-2.7 -2.1,-4.7 -4.7,-4.7 -2.6,0 -4.7,2 -4.7,4.7 0,0.2 0,0.6 0.1,0.9 H 518 c 0,-0.4 -0.1,-0.7 -0.1,-0.9 0,-5.3 4.2,-9.6 9.6,-9.6 z"
   id="path1235"
   inkscape:connector-curvature="0"
   style="clip-rule:evenodd;fill:#da842f;fill-rule:evenodd" />
			<path
   d="m 552.8,261.5 c 5.3,0 9.6,4.3 9.6,9.6 0,0.2 0,0.6 -0.1,0.9 h -4.9 c 0.1,-0.4 0.1,-0.7 0.1,-0.9 0,-2.7 -2.1,-4.7 -4.7,-4.7 -2.6,0 -4.7,2 -4.7,4.7 0,0.2 0.1,0.6 0.1,0.9 h -4.9 c 0,-0.4 0,-0.7 0,-0.9 0,-5.3 4.3,-9.6 9.5,-9.6 z"
   id="path1237"
   inkscape:connector-curvature="0"
   style="clip-rule:evenodd;fill:#da842f;fill-rule:evenodd" />
		</g><g
   id="g1265"
   transform="translate(-157.89581,-110.13115)">
			<path
   d="m 608.6,456.3 c 32.6,-18.5 18,-52.5 -21,-51.4 -22.2,0.6 -44.7,16.2 -44.7,43.1 0,5.2 2.6,15.6 2.6,15.6 L 406.3,535 c 0,0 -10.8,8.2 -2.4,21 8.3,12.8 30.3,0.5 30.3,0.5 l 23.7,-7.3 c 0,0 21.9,14.7 38.4,16.2 14.2,1.3 28.7,0 32.4,-0.4 v 3.1 c 0,3.7 2.8,6.5 6.5,6.5 v 0 c 3.6,0 6.4,-2.8 6.4,-6.5 v -6.5 c 1.1,-0.4 2,-0.7 3.2,-1.2 v 7.7 c 0,3.7 2.8,6.5 6.4,6.5 v 0 c 3.7,0 6.5,-2.8 6.5,-6.5 v -13.5 c 24.5,-12.9 55.2,-40.7 50.9,-98.3 z"
   id="path1241"
   inkscape:connector-curvature="0"
   style="clip-rule:evenodd;fill:#fcee18;fill-rule:evenodd" />
			<path
   d="m 505.2,484.4 -83.5,42.8 c 2.1,4 5.2,8.4 9.6,11.3 9.8,6.5 26.8,10.7 26.8,10.7 0,0 85,-28.2 98.1,-36.9 13,-8.5 7.2,-26.5 7.2,-26.5 z"
   id="path1243"
   inkscape:connector-curvature="0"
   style="clip-rule:evenodd;fill:#4a7365;fill-rule:evenodd" />
			<path
   d="m 608.6,456.3 c 32.6,-18.5 18,-52.5 -21,-51.4 -22.2,0.6 -44.7,16.2 -44.7,43.1 0,2.3 0.5,5.3 0.9,8.3 z"
   id="path1245"
   inkscape:connector-curvature="0"
   style="clip-rule:evenodd;fill:#7ead8d;fill-rule:evenodd" />
			<path
   d="M 608.6,456.3 H 621 c 0,0 7.1,0.9 8.1,12.2 1.1,11.1 -12.2,10.9 -12.2,10.9 v -6 h -8.1 c 0.3,-5.5 0.3,-11.1 -0.2,-17.1 z"
   id="path1247"
   inkscape:connector-curvature="0"
   style="clip-rule:evenodd;fill:#aeb7d6;fill-rule:evenodd" />
			<path
   d="m 617.5,479.4 c -0.4,0 -0.6,0 -0.6,0 v -6 h -8.1 c 0.1,-2.5 0.2,-5.1 0.2,-7.8 h 8.4 v 13.8 z"
   id="path1249"
   inkscape:connector-curvature="0"
   style="clip-rule:evenodd;fill:#9399b2;fill-rule:evenodd" />
			<path
   d="m 602.9,455.7 c 2.8,0 5.1,-2.3 5.1,-5 0,-2.8 -2.3,-5.1 -5.1,-5.1 -2.7,0 -5.1,2.3 -5.1,5.1 0,2.8 2.4,5 5.1,5 z"
   id="path1251"
   inkscape:connector-curvature="0"
   style="clip-rule:evenodd;fill:#aeb7d6;fill-rule:evenodd" />
			<path
   d="m 602.9,453.8 c 1.8,0 3.2,-1.4 3.2,-3.1 0,-1.8 -1.4,-3.2 -3.2,-3.2 -1.8,0 -3.2,1.4 -3.2,3.2 0,1.7 1.5,3.1 3.2,3.1 z"
   id="path1253"
   inkscape:connector-curvature="0"
   style="clip-rule:evenodd;fill-rule:evenodd" />
			<path
   d="m 544.2,457 c 0,0.5 -18,0.4 -18.8,0 -0.8,-0.2 -13.9,-4 -16.9,-18 -3.2,-14 3,-18 3,-18 0,0 2.1,-1.8 3.8,0.8 1.7,2.6 -4,9.4 -0.1,16.9 3.9,7.6 8.9,11.5 11.7,11.7 1.9,0.2 10.7,0.1 16.4,0.1 l 0.8,5.7 z"
   id="path1255"
   inkscape:connector-curvature="0"
   style="clip-rule:evenodd;fill:#ea6548;fill-rule:evenodd" />
			<path
   d="m 515.1,424.8 h 0.1 c 0,0 1.1,-1.8 3.3,-0.6 2.3,1.2 1.8,3.9 1.8,3.9 0,0 -2.3,7.5 1.4,12 3.8,4.6 7.8,5.2 8.7,5.2 0.7,0 8.4,-0.1 12.7,-0.2 -0.1,0.9 -0.1,1.9 -0.1,3 0,0.8 0,1.7 0.1,2.6 -5.7,0 -14.5,0.1 -16.4,-0.1 -2.8,-0.2 -7.8,-4.1 -11.7,-11.7 -2.8,-5.6 -0.6,-10.6 0.1,-14.1 z"
   id="path1257"
   inkscape:connector-curvature="0"
   style="clip-rule:evenodd;fill:#f4e0cd;fill-rule:evenodd" />
			<path
   d="m 520.5,427.8 c 0,0 1.9,-1.5 4.1,-0.5 2.4,1.1 1.2,3.2 1.2,4.5 -0.1,1.3 0.7,6.4 3.9,6.9 2.4,0.4 10.1,0.6 14.1,0.6 -0.4,1.9 -0.6,3.8 -0.7,5.8 -4.3,0.1 -12,0.2 -12.7,0.2 -0.8,0 -4.9,-0.6 -8.7,-5.2 -3.7,-4.5 -1.4,-12 -1.4,-12 0,0 0.2,-0.1 0.2,-0.3 z"
   id="path1259"
   inkscape:connector-curvature="0"
   style="clip-rule:evenodd;fill:#fbb718;fill-rule:evenodd" />
			<path
   d="m 536.9,570.9 c 5.2,0 9.5,4.3 9.5,9.6 0,0.4 0,0.6 0,0.9 h -4.9 c 0.1,-0.4 0.1,-0.6 0.1,-0.9 0,-2.6 -2.1,-4.7 -4.7,-4.7 -2.6,0 -4.7,2.1 -4.7,4.7 0,0.4 0,0.6 0.1,0.9 h -4.9 c 0,-0.4 -0.1,-0.6 -0.1,-0.9 0,-5.3 4.3,-9.6 9.6,-9.6 z"
   id="path1261"
   inkscape:connector-curvature="0"
   style="clip-rule:evenodd;fill:#da842f;fill-rule:evenodd" />
			<path
   d="m 556.2,568.6 c 5.3,0 9.6,4.3 9.6,9.6 0,0.4 0,0.6 -0.1,0.9 H 561 c 0,-0.4 0,-0.6 0,-0.9 0,-2.6 -2,-4.7 -4.7,-4.7 -2.6,0 -4.7,2.1 -4.7,4.7 0,0.4 0.1,0.6 0.1,0.9 h -4.9 c 0,-0.4 0,-0.6 0,-0.9 0,-5.4 4.2,-9.6 9.4,-9.6 z"
   id="path1263"
   inkscape:connector-curvature="0"
   style="clip-rule:evenodd;fill:#da842f;fill-rule:evenodd" />
		</g>
</svg>