<?xml version="1.0" encoding="utf-8" standalone="no"?>
<!DOCTYPE svg PUBLIC "-//W3C//DTD SVG 1.1//EN"
  "http://www.w3.org/Graphics/SVG/1.1/DTD/svg11.dtd">
<!-- Created with matplotlib (https://matplotlib.org/) -->
<svg height="222.954375pt" version="1.1" viewBox="0 0 460.8 222.954375" width="460.8pt" xmlns="http://www.w3.org/2000/svg" xmlns:xlink="http://www.w3.org/1999/xlink">
 <defs>
  <style type="text/css">
*{stroke-linecap:butt;stroke-linejoin:round;}
  </style>
 </defs>
 <g id="figure_1">
  <g id="patch_1">
   <path d="M 0 222.954375 
L 460.8 222.954375 
L 460.8 0 
L 0 0 
z
" style="fill:#ffffff;"/>
  </g>
  <g id="axes_1">
   <g id="patch_2">
    <path d="M 7.2 185.398125 
L 210.109091 185.398125 
L 210.109091 22.318125 
L 7.2 22.318125 
z
" style="fill:#ffffff;"/>
   </g>
   <g id="matplotlib.axis_1"/>
   <g id="matplotlib.axis_2"/>
  </g>
  <g id="axes_2">
   <g id="patch_3">
    <path d="M 250.690909 185.398125 
L 453.6 185.398125 
L 453.6 22.318125 
L 250.690909 22.318125 
z
" style="fill:#ffffff;"/>
   </g>
   <g id="PathCollection_1">
    <defs>
     <path d="M 0 3 
C 0.795609 3 1.55874 2.683901 2.12132 2.12132 
C 2.683901 1.55874 3 0.795609 3 0 
C 3 -0.795609 2.683901 -1.55874 2.12132 -2.12132 
C 1.55874 -2.683901 0.795609 -3 0 -3 
C -0.795609 -3 -1.55874 -2.683901 -2.12132 -2.12132 
C -2.683901 -1.55874 -3 -0.795609 -3 0 
C -3 0.795609 -2.683901 1.55874 -2.12132 2.12132 
C -1.55874 2.683901 -0.795609 3 0 3 
z
" id="m1fcd20c5d3" style="stroke:#1f77b4;"/>
    </defs>
    <g clip-path="url(#pdda05df532)">
     <use style="fill:#1f77b4;stroke:#1f77b4;" x="260.185973" xlink:href="#m1fcd20c5d3" y="163.21035"/>
     <use style="fill:#1f77b4;stroke:#1f77b4;" x="262.04374" xlink:href="#m1fcd20c5d3" y="159.249425"/>
     <use style="fill:#1f77b4;stroke:#1f77b4;" x="263.901507" xlink:href="#m1fcd20c5d3" y="151.892332"/>
     <use style="fill:#1f77b4;stroke:#1f77b4;" x="265.759275" xlink:href="#m1fcd20c5d3" y="169.556273"/>
     <use style="fill:#1f77b4;stroke:#1f77b4;" x="267.617042" xlink:href="#m1fcd20c5d3" y="177.762927"/>
     <use style="fill:#1f77b4;stroke:#1f77b4;" x="269.474809" xlink:href="#m1fcd20c5d3" y="148.514378"/>
     <use style="fill:#1f77b4;stroke:#1f77b4;" x="271.332577" xlink:href="#m1fcd20c5d3" y="166.143482"/>
     <use style="fill:#1f77b4;stroke:#1f77b4;" x="273.190344" xlink:href="#m1fcd20c5d3" y="133.559137"/>
     <use style="fill:#1f77b4;stroke:#1f77b4;" x="275.048111" xlink:href="#m1fcd20c5d3" y="167.053888"/>
     <use style="fill:#1f77b4;stroke:#1f77b4;" x="276.905879" xlink:href="#m1fcd20c5d3" y="166.170942"/>
     <use style="fill:#1f77b4;stroke:#1f77b4;" x="278.763646" xlink:href="#m1fcd20c5d3" y="166.594471"/>
     <use style="fill:#1f77b4;stroke:#1f77b4;" x="280.621413" xlink:href="#m1fcd20c5d3" y="152.968917"/>
     <use style="fill:#1f77b4;stroke:#1f77b4;" x="282.47918" xlink:href="#m1fcd20c5d3" y="142.760631"/>
     <use style="fill:#1f77b4;stroke:#1f77b4;" x="284.336948" xlink:href="#m1fcd20c5d3" y="138.231556"/>
     <use style="fill:#1f77b4;stroke:#1f77b4;" x="286.194715" xlink:href="#m1fcd20c5d3" y="165.663426"/>
     <use style="fill:#1f77b4;stroke:#1f77b4;" x="288.052482" xlink:href="#m1fcd20c5d3" y="153.004615"/>
     <use style="fill:#1f77b4;stroke:#1f77b4;" x="289.91025" xlink:href="#m1fcd20c5d3" y="150.431483"/>
     <use style="fill:#1f77b4;stroke:#1f77b4;" x="291.768017" xlink:href="#m1fcd20c5d3" y="150.826565"/>
     <use style="fill:#1f77b4;stroke:#1f77b4;" x="293.625784" xlink:href="#m1fcd20c5d3" y="136.308467"/>
     <use style="fill:#1f77b4;stroke:#1f77b4;" x="295.483552" xlink:href="#m1fcd20c5d3" y="145.533851"/>
     <use style="fill:#1f77b4;stroke:#1f77b4;" x="297.341319" xlink:href="#m1fcd20c5d3" y="123.094315"/>
     <use style="fill:#1f77b4;stroke:#1f77b4;" x="299.199086" xlink:href="#m1fcd20c5d3" y="130.772503"/>
     <use style="fill:#1f77b4;stroke:#1f77b4;" x="301.056854" xlink:href="#m1fcd20c5d3" y="140.375282"/>
     <use style="fill:#1f77b4;stroke:#1f77b4;" x="302.914621" xlink:href="#m1fcd20c5d3" y="142.490554"/>
     <use style="fill:#1f77b4;stroke:#1f77b4;" x="304.772388" xlink:href="#m1fcd20c5d3" y="148.207587"/>
     <use style="fill:#1f77b4;stroke:#1f77b4;" x="306.630155" xlink:href="#m1fcd20c5d3" y="149.325742"/>
     <use style="fill:#1f77b4;stroke:#1f77b4;" x="308.487923" xlink:href="#m1fcd20c5d3" y="133.89821"/>
     <use style="fill:#1f77b4;stroke:#1f77b4;" x="310.34569" xlink:href="#m1fcd20c5d3" y="153.793752"/>
     <use style="fill:#1f77b4;stroke:#1f77b4;" x="312.203457" xlink:href="#m1fcd20c5d3" y="122.447804"/>
     <use style="fill:#1f77b4;stroke:#1f77b4;" x="314.061225" xlink:href="#m1fcd20c5d3" y="129.266369"/>
     <use style="fill:#1f77b4;stroke:#1f77b4;" x="315.918992" xlink:href="#m1fcd20c5d3" y="110.293553"/>
     <use style="fill:#1f77b4;stroke:#1f77b4;" x="317.776759" xlink:href="#m1fcd20c5d3" y="137.544847"/>
     <use style="fill:#1f77b4;stroke:#1f77b4;" x="319.634527" xlink:href="#m1fcd20c5d3" y="119.618836"/>
     <use style="fill:#1f77b4;stroke:#1f77b4;" x="321.492294" xlink:href="#m1fcd20c5d3" y="131.828306"/>
     <use style="fill:#1f77b4;stroke:#1f77b4;" x="323.350061" xlink:href="#m1fcd20c5d3" y="119.829729"/>
     <use style="fill:#1f77b4;stroke:#1f77b4;" x="325.207829" xlink:href="#m1fcd20c5d3" y="133.538042"/>
     <use style="fill:#1f77b4;stroke:#1f77b4;" x="327.065596" xlink:href="#m1fcd20c5d3" y="98.907885"/>
     <use style="fill:#1f77b4;stroke:#1f77b4;" x="328.923363" xlink:href="#m1fcd20c5d3" y="123.793897"/>
     <use style="fill:#1f77b4;stroke:#1f77b4;" x="330.781131" xlink:href="#m1fcd20c5d3" y="133.451061"/>
     <use style="fill:#1f77b4;stroke:#1f77b4;" x="332.638898" xlink:href="#m1fcd20c5d3" y="126.820435"/>
     <use style="fill:#1f77b4;stroke:#1f77b4;" x="334.496665" xlink:href="#m1fcd20c5d3" y="121.321432"/>
     <use style="fill:#1f77b4;stroke:#1f77b4;" x="336.354432" xlink:href="#m1fcd20c5d3" y="130.52147"/>
     <use style="fill:#1f77b4;stroke:#1f77b4;" x="338.2122" xlink:href="#m1fcd20c5d3" y="114.801547"/>
     <use style="fill:#1f77b4;stroke:#1f77b4;" x="340.069967" xlink:href="#m1fcd20c5d3" y="98.171845"/>
     <use style="fill:#1f77b4;stroke:#1f77b4;" x="341.927734" xlink:href="#m1fcd20c5d3" y="115.972713"/>
     <use style="fill:#1f77b4;stroke:#1f77b4;" x="343.785502" xlink:href="#m1fcd20c5d3" y="110.54736"/>
     <use style="fill:#1f77b4;stroke:#1f77b4;" x="345.643269" xlink:href="#m1fcd20c5d3" y="113.948986"/>
     <use style="fill:#1f77b4;stroke:#1f77b4;" x="347.501036" xlink:href="#m1fcd20c5d3" y="100.89238"/>
     <use style="fill:#1f77b4;stroke:#1f77b4;" x="349.358804" xlink:href="#m1fcd20c5d3" y="115.897787"/>
     <use style="fill:#1f77b4;stroke:#1f77b4;" x="351.216571" xlink:href="#m1fcd20c5d3" y="97.758842"/>
     <use style="fill:#1f77b4;stroke:#1f77b4;" x="353.074338" xlink:href="#m1fcd20c5d3" y="121.407291"/>
     <use style="fill:#1f77b4;stroke:#1f77b4;" x="354.932106" xlink:href="#m1fcd20c5d3" y="96.512855"/>
     <use style="fill:#1f77b4;stroke:#1f77b4;" x="356.789873" xlink:href="#m1fcd20c5d3" y="110.876816"/>
     <use style="fill:#1f77b4;stroke:#1f77b4;" x="358.64764" xlink:href="#m1fcd20c5d3" y="99.635707"/>
     <use style="fill:#1f77b4;stroke:#1f77b4;" x="360.505407" xlink:href="#m1fcd20c5d3" y="95.292326"/>
     <use style="fill:#1f77b4;stroke:#1f77b4;" x="362.363175" xlink:href="#m1fcd20c5d3" y="110.061689"/>
     <use style="fill:#1f77b4;stroke:#1f77b4;" x="364.220942" xlink:href="#m1fcd20c5d3" y="93.5862"/>
     <use style="fill:#1f77b4;stroke:#1f77b4;" x="366.078709" xlink:href="#m1fcd20c5d3" y="90.602379"/>
     <use style="fill:#1f77b4;stroke:#1f77b4;" x="367.936477" xlink:href="#m1fcd20c5d3" y="93.050402"/>
     <use style="fill:#1f77b4;stroke:#1f77b4;" x="369.794244" xlink:href="#m1fcd20c5d3" y="101.573985"/>
     <use style="fill:#1f77b4;stroke:#1f77b4;" x="371.652011" xlink:href="#m1fcd20c5d3" y="94.567698"/>
     <use style="fill:#1f77b4;stroke:#1f77b4;" x="373.509779" xlink:href="#m1fcd20c5d3" y="91.047348"/>
     <use style="fill:#1f77b4;stroke:#1f77b4;" x="375.367546" xlink:href="#m1fcd20c5d3" y="86.206448"/>
     <use style="fill:#1f77b4;stroke:#1f77b4;" x="377.225313" xlink:href="#m1fcd20c5d3" y="92.747622"/>
     <use style="fill:#1f77b4;stroke:#1f77b4;" x="379.083081" xlink:href="#m1fcd20c5d3" y="107.195719"/>
     <use style="fill:#1f77b4;stroke:#1f77b4;" x="380.940848" xlink:href="#m1fcd20c5d3" y="84.597315"/>
     <use style="fill:#1f77b4;stroke:#1f77b4;" x="382.798615" xlink:href="#m1fcd20c5d3" y="79.300495"/>
     <use style="fill:#1f77b4;stroke:#1f77b4;" x="384.656382" xlink:href="#m1fcd20c5d3" y="83.46396"/>
     <use style="fill:#1f77b4;stroke:#1f77b4;" x="386.51415" xlink:href="#m1fcd20c5d3" y="90.070522"/>
     <use style="fill:#1f77b4;stroke:#1f77b4;" x="388.371917" xlink:href="#m1fcd20c5d3" y="80.969971"/>
     <use style="fill:#1f77b4;stroke:#1f77b4;" x="390.229684" xlink:href="#m1fcd20c5d3" y="77.49808"/>
     <use style="fill:#1f77b4;stroke:#1f77b4;" x="392.087452" xlink:href="#m1fcd20c5d3" y="59.796731"/>
     <use style="fill:#1f77b4;stroke:#1f77b4;" x="393.945219" xlink:href="#m1fcd20c5d3" y="85.528884"/>
     <use style="fill:#1f77b4;stroke:#1f77b4;" x="395.802986" xlink:href="#m1fcd20c5d3" y="67.225505"/>
     <use style="fill:#1f77b4;stroke:#1f77b4;" x="397.660754" xlink:href="#m1fcd20c5d3" y="53.720942"/>
     <use style="fill:#1f77b4;stroke:#1f77b4;" x="399.518521" xlink:href="#m1fcd20c5d3" y="66.441505"/>
     <use style="fill:#1f77b4;stroke:#1f77b4;" x="401.376288" xlink:href="#m1fcd20c5d3" y="55.612735"/>
     <use style="fill:#1f77b4;stroke:#1f77b4;" x="403.234056" xlink:href="#m1fcd20c5d3" y="58.729524"/>
     <use style="fill:#1f77b4;stroke:#1f77b4;" x="405.091823" xlink:href="#m1fcd20c5d3" y="45.457237"/>
     <use style="fill:#1f77b4;stroke:#1f77b4;" x="406.94959" xlink:href="#m1fcd20c5d3" y="86.95965"/>
     <use style="fill:#1f77b4;stroke:#1f77b4;" x="408.807357" xlink:href="#m1fcd20c5d3" y="70.171059"/>
     <use style="fill:#1f77b4;stroke:#1f77b4;" x="410.665125" xlink:href="#m1fcd20c5d3" y="64.306587"/>
     <use style="fill:#1f77b4;stroke:#1f77b4;" x="412.522892" xlink:href="#m1fcd20c5d3" y="62.538114"/>
     <use style="fill:#1f77b4;stroke:#1f77b4;" x="414.380659" xlink:href="#m1fcd20c5d3" y="64.042206"/>
     <use style="fill:#1f77b4;stroke:#1f77b4;" x="416.238427" xlink:href="#m1fcd20c5d3" y="74.003199"/>
     <use style="fill:#1f77b4;stroke:#1f77b4;" x="418.096194" xlink:href="#m1fcd20c5d3" y="60.996102"/>
     <use style="fill:#1f77b4;stroke:#1f77b4;" x="419.953961" xlink:href="#m1fcd20c5d3" y="46.462497"/>
     <use style="fill:#1f77b4;stroke:#1f77b4;" x="421.811729" xlink:href="#m1fcd20c5d3" y="57.288322"/>
     <use style="fill:#1f77b4;stroke:#1f77b4;" x="423.669496" xlink:href="#m1fcd20c5d3" y="68.935833"/>
     <use style="fill:#1f77b4;stroke:#1f77b4;" x="425.527263" xlink:href="#m1fcd20c5d3" y="29.953323"/>
     <use style="fill:#1f77b4;stroke:#1f77b4;" x="427.385031" xlink:href="#m1fcd20c5d3" y="46.510812"/>
     <use style="fill:#1f77b4;stroke:#1f77b4;" x="429.242798" xlink:href="#m1fcd20c5d3" y="53.097864"/>
     <use style="fill:#1f77b4;stroke:#1f77b4;" x="431.100565" xlink:href="#m1fcd20c5d3" y="48.940886"/>
     <use style="fill:#1f77b4;stroke:#1f77b4;" x="432.958332" xlink:href="#m1fcd20c5d3" y="53.93336"/>
     <use style="fill:#1f77b4;stroke:#1f77b4;" x="434.8161" xlink:href="#m1fcd20c5d3" y="44.2011"/>
     <use style="fill:#1f77b4;stroke:#1f77b4;" x="436.673867" xlink:href="#m1fcd20c5d3" y="41.678924"/>
     <use style="fill:#1f77b4;stroke:#1f77b4;" x="438.531634" xlink:href="#m1fcd20c5d3" y="55.10979"/>
     <use style="fill:#1f77b4;stroke:#1f77b4;" x="440.389402" xlink:href="#m1fcd20c5d3" y="41.273656"/>
     <use style="fill:#1f77b4;stroke:#1f77b4;" x="442.247169" xlink:href="#m1fcd20c5d3" y="49.616533"/>
     <use style="fill:#1f77b4;stroke:#1f77b4;" x="444.104936" xlink:href="#m1fcd20c5d3" y="49.476707"/>
    </g>
   </g>
   <g id="matplotlib.axis_3">
    <g id="xtick_1">
     <g id="line2d_1">
      <defs>
       <path d="M 0 0 
L 0 3.5 
" id="m8f2e1377fd" style="stroke:#000000;stroke-width:0.8;"/>
      </defs>
      <g>
       <use style="stroke:#000000;stroke-width:0.8;" x="260.185973" xlink:href="#m8f2e1377fd" y="185.398125"/>
      </g>
     </g>
     <g id="text_1">
      <!-- 0 -->
      <defs>
       <path d="M 31.78125 66.40625 
Q 24.171875 66.40625 20.328125 58.90625 
Q 16.5 51.421875 16.5 36.375 
Q 16.5 21.390625 20.328125 13.890625 
Q 24.171875 6.390625 31.78125 6.390625 
Q 39.453125 6.390625 43.28125 13.890625 
Q 47.125 21.390625 47.125 36.375 
Q 47.125 51.421875 43.28125 58.90625 
Q 39.453125 66.40625 31.78125 66.40625 
z
M 31.78125 74.21875 
Q 44.046875 74.21875 50.515625 64.515625 
Q 56.984375 54.828125 56.984375 36.375 
Q 56.984375 17.96875 50.515625 8.265625 
Q 44.046875 -1.421875 31.78125 -1.421875 
Q 19.53125 -1.421875 13.0625 8.265625 
Q 6.59375 17.96875 6.59375 36.375 
Q 6.59375 54.828125 13.0625 64.515625 
Q 19.53125 74.21875 31.78125 74.21875 
z
" id="DejaVuSans-48"/>
      </defs>
      <g transform="translate(257.004723 199.996562)scale(0.1 -0.1)">
       <use xlink:href="#DejaVuSans-48"/>
      </g>
     </g>
    </g>
    <g id="xtick_2">
     <g id="line2d_2">
      <g>
       <use style="stroke:#000000;stroke-width:0.8;" x="296.969765" xlink:href="#m8f2e1377fd" y="185.398125"/>
      </g>
     </g>
     <g id="text_2">
      <!-- 2 -->
      <defs>
       <path d="M 19.1875 8.296875 
L 53.609375 8.296875 
L 53.609375 0 
L 7.328125 0 
L 7.328125 8.296875 
Q 12.9375 14.109375 22.625 23.890625 
Q 32.328125 33.6875 34.8125 36.53125 
Q 39.546875 41.84375 41.421875 45.53125 
Q 43.3125 49.21875 43.3125 52.78125 
Q 43.3125 58.59375 39.234375 62.25 
Q 35.15625 65.921875 28.609375 65.921875 
Q 23.96875 65.921875 18.8125 64.3125 
Q 13.671875 62.703125 7.8125 59.421875 
L 7.8125 69.390625 
Q 13.765625 71.78125 18.9375 73 
Q 24.125 74.21875 28.421875 74.21875 
Q 39.75 74.21875 46.484375 68.546875 
Q 53.21875 62.890625 53.21875 53.421875 
Q 53.21875 48.921875 51.53125 44.890625 
Q 49.859375 40.875 45.40625 35.40625 
Q 44.1875 33.984375 37.640625 27.21875 
Q 31.109375 20.453125 19.1875 8.296875 
z
" id="DejaVuSans-50"/>
      </defs>
      <g transform="translate(293.788515 199.996562)scale(0.1 -0.1)">
       <use xlink:href="#DejaVuSans-50"/>
      </g>
     </g>
    </g>
    <g id="xtick_3">
     <g id="line2d_3">
      <g>
       <use style="stroke:#000000;stroke-width:0.8;" x="333.753558" xlink:href="#m8f2e1377fd" y="185.398125"/>
      </g>
     </g>
     <g id="text_3">
      <!-- 4 -->
      <defs>
       <path d="M 37.796875 64.3125 
L 12.890625 25.390625 
L 37.796875 25.390625 
z
M 35.203125 72.90625 
L 47.609375 72.90625 
L 47.609375 25.390625 
L 58.015625 25.390625 
L 58.015625 17.1875 
L 47.609375 17.1875 
L 47.609375 0 
L 37.796875 0 
L 37.796875 17.1875 
L 4.890625 17.1875 
L 4.890625 26.703125 
z
" id="DejaVuSans-52"/>
      </defs>
      <g transform="translate(330.572308 199.996562)scale(0.1 -0.1)">
       <use xlink:href="#DejaVuSans-52"/>
      </g>
     </g>
    </g>
    <g id="xtick_4">
     <g id="line2d_4">
      <g>
       <use style="stroke:#000000;stroke-width:0.8;" x="370.537351" xlink:href="#m8f2e1377fd" y="185.398125"/>
      </g>
     </g>
     <g id="text_4">
      <!-- 6 -->
      <defs>
       <path d="M 33.015625 40.375 
Q 26.375 40.375 22.484375 35.828125 
Q 18.609375 31.296875 18.609375 23.390625 
Q 18.609375 15.53125 22.484375 10.953125 
Q 26.375 6.390625 33.015625 6.390625 
Q 39.65625 6.390625 43.53125 10.953125 
Q 47.40625 15.53125 47.40625 23.390625 
Q 47.40625 31.296875 43.53125 35.828125 
Q 39.65625 40.375 33.015625 40.375 
z
M 52.59375 71.296875 
L 52.59375 62.3125 
Q 48.875 64.0625 45.09375 64.984375 
Q 41.3125 65.921875 37.59375 65.921875 
Q 27.828125 65.921875 22.671875 59.328125 
Q 17.53125 52.734375 16.796875 39.40625 
Q 19.671875 43.65625 24.015625 45.921875 
Q 28.375 48.1875 33.59375 48.1875 
Q 44.578125 48.1875 50.953125 41.515625 
Q 57.328125 34.859375 57.328125 23.390625 
Q 57.328125 12.15625 50.6875 5.359375 
Q 44.046875 -1.421875 33.015625 -1.421875 
Q 20.359375 -1.421875 13.671875 8.265625 
Q 6.984375 17.96875 6.984375 36.375 
Q 6.984375 53.65625 15.1875 63.9375 
Q 23.390625 74.21875 37.203125 74.21875 
Q 40.921875 74.21875 44.703125 73.484375 
Q 48.484375 72.75 52.59375 71.296875 
z
" id="DejaVuSans-54"/>
      </defs>
      <g transform="translate(367.356101 199.996562)scale(0.1 -0.1)">
       <use xlink:href="#DejaVuSans-54"/>
      </g>
     </g>
    </g>
    <g id="xtick_5">
     <g id="line2d_5">
      <g>
       <use style="stroke:#000000;stroke-width:0.8;" x="407.321144" xlink:href="#m8f2e1377fd" y="185.398125"/>
      </g>
     </g>
     <g id="text_5">
      <!-- 8 -->
      <defs>
       <path d="M 31.78125 34.625 
Q 24.75 34.625 20.71875 30.859375 
Q 16.703125 27.09375 16.703125 20.515625 
Q 16.703125 13.921875 20.71875 10.15625 
Q 24.75 6.390625 31.78125 6.390625 
Q 38.8125 6.390625 42.859375 10.171875 
Q 46.921875 13.96875 46.921875 20.515625 
Q 46.921875 27.09375 42.890625 30.859375 
Q 38.875 34.625 31.78125 34.625 
z
M 21.921875 38.8125 
Q 15.578125 40.375 12.03125 44.71875 
Q 8.5 49.078125 8.5 55.328125 
Q 8.5 64.0625 14.71875 69.140625 
Q 20.953125 74.21875 31.78125 74.21875 
Q 42.671875 74.21875 48.875 69.140625 
Q 55.078125 64.0625 55.078125 55.328125 
Q 55.078125 49.078125 51.53125 44.71875 
Q 48 40.375 41.703125 38.8125 
Q 48.828125 37.15625 52.796875 32.3125 
Q 56.78125 27.484375 56.78125 20.515625 
Q 56.78125 9.90625 50.3125 4.234375 
Q 43.84375 -1.421875 31.78125 -1.421875 
Q 19.734375 -1.421875 13.25 4.234375 
Q 6.78125 9.90625 6.78125 20.515625 
Q 6.78125 27.484375 10.78125 32.3125 
Q 14.796875 37.15625 21.921875 38.8125 
z
M 18.3125 54.390625 
Q 18.3125 48.734375 21.84375 45.5625 
Q 25.390625 42.390625 31.78125 42.390625 
Q 38.140625 42.390625 41.71875 45.5625 
Q 45.3125 48.734375 45.3125 54.390625 
Q 45.3125 60.0625 41.71875 63.234375 
Q 38.140625 66.40625 31.78125 66.40625 
Q 25.390625 66.40625 21.84375 63.234375 
Q 18.3125 60.0625 18.3125 54.390625 
z
" id="DejaVuSans-56"/>
      </defs>
      <g transform="translate(404.139894 199.996562)scale(0.1 -0.1)">
       <use xlink:href="#DejaVuSans-56"/>
      </g>
     </g>
    </g>
    <g id="xtick_6">
     <g id="line2d_6">
      <g>
       <use style="stroke:#000000;stroke-width:0.8;" x="444.104936" xlink:href="#m8f2e1377fd" y="185.398125"/>
      </g>
     </g>
     <g id="text_6">
      <!-- 10 -->
      <defs>
       <path d="M 12.40625 8.296875 
L 28.515625 8.296875 
L 28.515625 63.921875 
L 10.984375 60.40625 
L 10.984375 69.390625 
L 28.421875 72.90625 
L 38.28125 72.90625 
L 38.28125 8.296875 
L 54.390625 8.296875 
L 54.390625 0 
L 12.40625 0 
z
" id="DejaVuSans-49"/>
      </defs>
      <g transform="translate(437.742436 199.996562)scale(0.1 -0.1)">
       <use xlink:href="#DejaVuSans-49"/>
       <use x="63.623047" xlink:href="#DejaVuSans-48"/>
      </g>
     </g>
    </g>
    <g id="text_7">
     <!-- Number of trees -->
     <defs>
      <path d="M 9.8125 72.90625 
L 23.09375 72.90625 
L 55.421875 11.921875 
L 55.421875 72.90625 
L 64.984375 72.90625 
L 64.984375 0 
L 51.703125 0 
L 19.390625 60.984375 
L 19.390625 0 
L 9.8125 0 
z
" id="DejaVuSans-78"/>
      <path d="M 8.5 21.578125 
L 8.5 54.6875 
L 17.484375 54.6875 
L 17.484375 21.921875 
Q 17.484375 14.15625 20.5 10.265625 
Q 23.53125 6.390625 29.59375 6.390625 
Q 36.859375 6.390625 41.078125 11.03125 
Q 45.3125 15.671875 45.3125 23.6875 
L 45.3125 54.6875 
L 54.296875 54.6875 
L 54.296875 0 
L 45.3125 0 
L 45.3125 8.40625 
Q 42.046875 3.421875 37.71875 1 
Q 33.40625 -1.421875 27.6875 -1.421875 
Q 18.265625 -1.421875 13.375 4.4375 
Q 8.5 10.296875 8.5 21.578125 
z
M 31.109375 56 
z
" id="DejaVuSans-117"/>
      <path d="M 52 44.1875 
Q 55.375 50.25 60.0625 53.125 
Q 64.75 56 71.09375 56 
Q 79.640625 56 84.28125 50.015625 
Q 88.921875 44.046875 88.921875 33.015625 
L 88.921875 0 
L 79.890625 0 
L 79.890625 32.71875 
Q 79.890625 40.578125 77.09375 44.375 
Q 74.3125 48.1875 68.609375 48.1875 
Q 61.625 48.1875 57.5625 43.546875 
Q 53.515625 38.921875 53.515625 30.90625 
L 53.515625 0 
L 44.484375 0 
L 44.484375 32.71875 
Q 44.484375 40.625 41.703125 44.40625 
Q 38.921875 48.1875 33.109375 48.1875 
Q 26.21875 48.1875 22.15625 43.53125 
Q 18.109375 38.875 18.109375 30.90625 
L 18.109375 0 
L 9.078125 0 
L 9.078125 54.6875 
L 18.109375 54.6875 
L 18.109375 46.1875 
Q 21.1875 51.21875 25.484375 53.609375 
Q 29.78125 56 35.6875 56 
Q 41.65625 56 45.828125 52.96875 
Q 50 49.953125 52 44.1875 
z
" id="DejaVuSans-109"/>
      <path d="M 48.6875 27.296875 
Q 48.6875 37.203125 44.609375 42.84375 
Q 40.53125 48.484375 33.40625 48.484375 
Q 26.265625 48.484375 22.1875 42.84375 
Q 18.109375 37.203125 18.109375 27.296875 
Q 18.109375 17.390625 22.1875 11.75 
Q 26.265625 6.109375 33.40625 6.109375 
Q 40.53125 6.109375 44.609375 11.75 
Q 48.6875 17.390625 48.6875 27.296875 
z
M 18.109375 46.390625 
Q 20.953125 51.265625 25.265625 53.625 
Q 29.59375 56 35.59375 56 
Q 45.5625 56 51.78125 48.09375 
Q 58.015625 40.1875 58.015625 27.296875 
Q 58.015625 14.40625 51.78125 6.484375 
Q 45.5625 -1.421875 35.59375 -1.421875 
Q 29.59375 -1.421875 25.265625 0.953125 
Q 20.953125 3.328125 18.109375 8.203125 
L 18.109375 0 
L 9.078125 0 
L 9.078125 75.984375 
L 18.109375 75.984375 
z
" id="DejaVuSans-98"/>
      <path d="M 56.203125 29.59375 
L 56.203125 25.203125 
L 14.890625 25.203125 
Q 15.484375 15.921875 20.484375 11.0625 
Q 25.484375 6.203125 34.421875 6.203125 
Q 39.59375 6.203125 44.453125 7.46875 
Q 49.3125 8.734375 54.109375 11.28125 
L 54.109375 2.78125 
Q 49.265625 0.734375 44.1875 -0.34375 
Q 39.109375 -1.421875 33.890625 -1.421875 
Q 20.796875 -1.421875 13.15625 6.1875 
Q 5.515625 13.8125 5.515625 26.8125 
Q 5.515625 40.234375 12.765625 48.109375 
Q 20.015625 56 32.328125 56 
Q 43.359375 56 49.78125 48.890625 
Q 56.203125 41.796875 56.203125 29.59375 
z
M 47.21875 32.234375 
Q 47.125 39.59375 43.09375 43.984375 
Q 39.0625 48.390625 32.421875 48.390625 
Q 24.90625 48.390625 20.390625 44.140625 
Q 15.875 39.890625 15.1875 32.171875 
z
" id="DejaVuSans-101"/>
      <path d="M 41.109375 46.296875 
Q 39.59375 47.171875 37.8125 47.578125 
Q 36.03125 48 33.890625 48 
Q 26.265625 48 22.1875 43.046875 
Q 18.109375 38.09375 18.109375 28.8125 
L 18.109375 0 
L 9.078125 0 
L 9.078125 54.6875 
L 18.109375 54.6875 
L 18.109375 46.1875 
Q 20.953125 51.171875 25.484375 53.578125 
Q 30.03125 56 36.53125 56 
Q 37.453125 56 38.578125 55.875 
Q 39.703125 55.765625 41.0625 55.515625 
z
" id="DejaVuSans-114"/>
      <path id="DejaVuSans-32"/>
      <path d="M 30.609375 48.390625 
Q 23.390625 48.390625 19.1875 42.75 
Q 14.984375 37.109375 14.984375 27.296875 
Q 14.984375 17.484375 19.15625 11.84375 
Q 23.34375 6.203125 30.609375 6.203125 
Q 37.796875 6.203125 41.984375 11.859375 
Q 46.1875 17.53125 46.1875 27.296875 
Q 46.1875 37.015625 41.984375 42.703125 
Q 37.796875 48.390625 30.609375 48.390625 
z
M 30.609375 56 
Q 42.328125 56 49.015625 48.375 
Q 55.71875 40.765625 55.71875 27.296875 
Q 55.71875 13.875 49.015625 6.21875 
Q 42.328125 -1.421875 30.609375 -1.421875 
Q 18.84375 -1.421875 12.171875 6.21875 
Q 5.515625 13.875 5.515625 27.296875 
Q 5.515625 40.765625 12.171875 48.375 
Q 18.84375 56 30.609375 56 
z
" id="DejaVuSans-111"/>
      <path d="M 37.109375 75.984375 
L 37.109375 68.5 
L 28.515625 68.5 
Q 23.6875 68.5 21.796875 66.546875 
Q 19.921875 64.59375 19.921875 59.515625 
L 19.921875 54.6875 
L 34.71875 54.6875 
L 34.71875 47.703125 
L 19.921875 47.703125 
L 19.921875 0 
L 10.890625 0 
L 10.890625 47.703125 
L 2.296875 47.703125 
L 2.296875 54.6875 
L 10.890625 54.6875 
L 10.890625 58.5 
Q 10.890625 67.625 15.140625 71.796875 
Q 19.390625 75.984375 28.609375 75.984375 
z
" id="DejaVuSans-102"/>
      <path d="M 18.3125 70.21875 
L 18.3125 54.6875 
L 36.8125 54.6875 
L 36.8125 47.703125 
L 18.3125 47.703125 
L 18.3125 18.015625 
Q 18.3125 11.328125 20.140625 9.421875 
Q 21.96875 7.515625 27.59375 7.515625 
L 36.8125 7.515625 
L 36.8125 0 
L 27.59375 0 
Q 17.1875 0 13.234375 3.875 
Q 9.28125 7.765625 9.28125 18.015625 
L 9.28125 47.703125 
L 2.6875 47.703125 
L 2.6875 54.6875 
L 9.28125 54.6875 
L 9.28125 70.21875 
z
" id="DejaVuSans-116"/>
      <path d="M 44.28125 53.078125 
L 44.28125 44.578125 
Q 40.484375 46.53125 36.375 47.5 
Q 32.28125 48.484375 27.875 48.484375 
Q 21.1875 48.484375 17.84375 46.4375 
Q 14.5 44.390625 14.5 40.28125 
Q 14.5 37.15625 16.890625 35.375 
Q 19.28125 33.59375 26.515625 31.984375 
L 29.59375 31.296875 
Q 39.15625 29.25 43.1875 25.515625 
Q 47.21875 21.78125 47.21875 15.09375 
Q 47.21875 7.46875 41.1875 3.015625 
Q 35.15625 -1.421875 24.609375 -1.421875 
Q 20.21875 -1.421875 15.453125 -0.5625 
Q 10.6875 0.296875 5.421875 2 
L 5.421875 11.28125 
Q 10.40625 8.6875 15.234375 7.390625 
Q 20.0625 6.109375 24.8125 6.109375 
Q 31.15625 6.109375 34.5625 8.28125 
Q 37.984375 10.453125 37.984375 14.40625 
Q 37.984375 18.0625 35.515625 20.015625 
Q 33.0625 21.96875 24.703125 23.78125 
L 21.578125 24.515625 
Q 13.234375 26.265625 9.515625 29.90625 
Q 5.8125 33.546875 5.8125 39.890625 
Q 5.8125 47.609375 11.28125 51.796875 
Q 16.75 56 26.8125 56 
Q 31.78125 56 36.171875 55.265625 
Q 40.578125 54.546875 44.28125 53.078125 
z
" id="DejaVuSans-115"/>
     </defs>
     <g transform="translate(311.289986 213.674688)scale(0.1 -0.1)">
      <use xlink:href="#DejaVuSans-78"/>
      <use x="74.804688" xlink:href="#DejaVuSans-117"/>
      <use x="138.183594" xlink:href="#DejaVuSans-109"/>
      <use x="235.595703" xlink:href="#DejaVuSans-98"/>
      <use x="299.072266" xlink:href="#DejaVuSans-101"/>
      <use x="360.595703" xlink:href="#DejaVuSans-114"/>
      <use x="401.708984" xlink:href="#DejaVuSans-32"/>
      <use x="433.496094" xlink:href="#DejaVuSans-111"/>
      <use x="494.677734" xlink:href="#DejaVuSans-102"/>
      <use x="529.882812" xlink:href="#DejaVuSans-32"/>
      <use x="561.669922" xlink:href="#DejaVuSans-116"/>
      <use x="600.878906" xlink:href="#DejaVuSans-114"/>
      <use x="641.960938" xlink:href="#DejaVuSans-101"/>
      <use x="703.484375" xlink:href="#DejaVuSans-101"/>
      <use x="765.007812" xlink:href="#DejaVuSans-115"/>
     </g>
    </g>
   </g>
   <g id="matplotlib.axis_4">
    <g id="ytick_1">
     <g id="line2d_7">
      <defs>
       <path d="M 0 0 
L -3.5 0 
" id="mbb24b1ef3d" style="stroke:#000000;stroke-width:0.8;"/>
      </defs>
      <g>
       <use style="stroke:#000000;stroke-width:0.8;" x="250.690909" xlink:href="#mbb24b1ef3d" y="164.716293"/>
      </g>
     </g>
     <g id="text_8">
      <!-- 0 -->
      <g transform="translate(237.328409 168.515511)scale(0.1 -0.1)">
       <use xlink:href="#DejaVuSans-48"/>
      </g>
     </g>
    </g>
    <g id="ytick_2">
     <g id="line2d_8">
      <g>
       <use style="stroke:#000000;stroke-width:0.8;" x="250.690909" xlink:href="#mbb24b1ef3d" y="140.529263"/>
      </g>
     </g>
     <g id="text_9">
      <!-- 2 -->
      <g transform="translate(237.328409 144.328482)scale(0.1 -0.1)">
       <use xlink:href="#DejaVuSans-50"/>
      </g>
     </g>
    </g>
    <g id="ytick_3">
     <g id="line2d_9">
      <g>
       <use style="stroke:#000000;stroke-width:0.8;" x="250.690909" xlink:href="#mbb24b1ef3d" y="116.342234"/>
      </g>
     </g>
     <g id="text_10">
      <!-- 4 -->
      <g transform="translate(237.328409 120.141453)scale(0.1 -0.1)">
       <use xlink:href="#DejaVuSans-52"/>
      </g>
     </g>
    </g>
    <g id="ytick_4">
     <g id="line2d_10">
      <g>
       <use style="stroke:#000000;stroke-width:0.8;" x="250.690909" xlink:href="#mbb24b1ef3d" y="92.155205"/>
      </g>
     </g>
     <g id="text_11">
      <!-- 6 -->
      <g transform="translate(237.328409 95.954424)scale(0.1 -0.1)">
       <use xlink:href="#DejaVuSans-54"/>
      </g>
     </g>
    </g>
    <g id="ytick_5">
     <g id="line2d_11">
      <g>
       <use style="stroke:#000000;stroke-width:0.8;" x="250.690909" xlink:href="#mbb24b1ef3d" y="67.968175"/>
      </g>
     </g>
     <g id="text_12">
      <!-- 8 -->
      <g transform="translate(237.328409 71.767394)scale(0.1 -0.1)">
       <use xlink:href="#DejaVuSans-56"/>
      </g>
     </g>
    </g>
    <g id="ytick_6">
     <g id="line2d_12">
      <g>
       <use style="stroke:#000000;stroke-width:0.8;" x="250.690909" xlink:href="#mbb24b1ef3d" y="43.781146"/>
      </g>
     </g>
     <g id="text_13">
      <!-- 10 -->
      <g transform="translate(230.965909 47.580365)scale(0.1 -0.1)">
       <use xlink:href="#DejaVuSans-49"/>
       <use x="63.623047" xlink:href="#DejaVuSans-48"/>
      </g>
     </g>
    </g>
    <g id="text_14">
     <!-- Number of birds -->
     <defs>
      <path d="M 9.421875 54.6875 
L 18.40625 54.6875 
L 18.40625 0 
L 9.421875 0 
z
M 9.421875 75.984375 
L 18.40625 75.984375 
L 18.40625 64.59375 
L 9.421875 64.59375 
z
" id="DejaVuSans-105"/>
      <path d="M 45.40625 46.390625 
L 45.40625 75.984375 
L 54.390625 75.984375 
L 54.390625 0 
L 45.40625 0 
L 45.40625 8.203125 
Q 42.578125 3.328125 38.25 0.953125 
Q 33.9375 -1.421875 27.875 -1.421875 
Q 17.96875 -1.421875 11.734375 6.484375 
Q 5.515625 14.40625 5.515625 27.296875 
Q 5.515625 40.1875 11.734375 48.09375 
Q 17.96875 56 27.875 56 
Q 33.9375 56 38.25 53.625 
Q 42.578125 51.265625 45.40625 46.390625 
z
M 14.796875 27.296875 
Q 14.796875 17.390625 18.875 11.75 
Q 22.953125 6.109375 30.078125 6.109375 
Q 37.203125 6.109375 41.296875 11.75 
Q 45.40625 17.390625 45.40625 27.296875 
Q 45.40625 37.203125 41.296875 42.84375 
Q 37.203125 48.484375 30.078125 48.484375 
Q 22.953125 48.484375 18.875 42.84375 
Q 14.796875 37.203125 14.796875 27.296875 
z
" id="DejaVuSans-100"/>
     </defs>
     <g transform="translate(224.886222 144.338594)rotate(-90)scale(0.1 -0.1)">
      <use xlink:href="#DejaVuSans-78"/>
      <use x="74.804688" xlink:href="#DejaVuSans-117"/>
      <use x="138.183594" xlink:href="#DejaVuSans-109"/>
      <use x="235.595703" xlink:href="#DejaVuSans-98"/>
      <use x="299.072266" xlink:href="#DejaVuSans-101"/>
      <use x="360.595703" xlink:href="#DejaVuSans-114"/>
      <use x="401.708984" xlink:href="#DejaVuSans-32"/>
      <use x="433.496094" xlink:href="#DejaVuSans-111"/>
      <use x="494.677734" xlink:href="#DejaVuSans-102"/>
      <use x="529.882812" xlink:href="#DejaVuSans-32"/>
      <use x="561.669922" xlink:href="#DejaVuSans-98"/>
      <use x="625.146484" xlink:href="#DejaVuSans-105"/>
      <use x="652.929688" xlink:href="#DejaVuSans-114"/>
      <use x="694.027344" xlink:href="#DejaVuSans-100"/>
      <use x="757.503906" xlink:href="#DejaVuSans-115"/>
     </g>
    </g>
   </g>
   <g id="patch_4">
    <path d="M 250.690909 185.398125 
L 250.690909 22.318125 
" style="fill:none;stroke:#000000;stroke-linecap:square;stroke-linejoin:miter;stroke-width:0.8;"/>
   </g>
   <g id="patch_5">
    <path d="M 250.690909 185.398125 
L 453.6 185.398125 
" style="fill:none;stroke:#000000;stroke-linecap:square;stroke-linejoin:miter;stroke-width:0.8;"/>
   </g>
   <g id="text_15">
    <!-- Model of birds and trees -->
    <defs>
     <path d="M 9.8125 72.90625 
L 24.515625 72.90625 
L 43.109375 23.296875 
L 61.8125 72.90625 
L 76.515625 72.90625 
L 76.515625 0 
L 66.890625 0 
L 66.890625 64.015625 
L 48.09375 14.015625 
L 38.1875 14.015625 
L 19.390625 64.015625 
L 19.390625 0 
L 9.8125 0 
z
" id="DejaVuSans-77"/>
     <path d="M 9.421875 75.984375 
L 18.40625 75.984375 
L 18.40625 0 
L 9.421875 0 
z
" id="DejaVuSans-108"/>
     <path d="M 34.28125 27.484375 
Q 23.390625 27.484375 19.1875 25 
Q 14.984375 22.515625 14.984375 16.5 
Q 14.984375 11.71875 18.140625 8.90625 
Q 21.296875 6.109375 26.703125 6.109375 
Q 34.1875 6.109375 38.703125 11.40625 
Q 43.21875 16.703125 43.21875 25.484375 
L 43.21875 27.484375 
z
M 52.203125 31.203125 
L 52.203125 0 
L 43.21875 0 
L 43.21875 8.296875 
Q 40.140625 3.328125 35.546875 0.953125 
Q 30.953125 -1.421875 24.3125 -1.421875 
Q 15.921875 -1.421875 10.953125 3.296875 
Q 6 8.015625 6 15.921875 
Q 6 25.140625 12.171875 29.828125 
Q 18.359375 34.515625 30.609375 34.515625 
L 43.21875 34.515625 
L 43.21875 35.40625 
Q 43.21875 41.609375 39.140625 45 
Q 35.0625 48.390625 27.6875 48.390625 
Q 23 48.390625 18.546875 47.265625 
Q 14.109375 46.140625 10.015625 43.890625 
L 10.015625 52.203125 
Q 14.9375 54.109375 19.578125 55.046875 
Q 24.21875 56 28.609375 56 
Q 40.484375 56 46.34375 49.84375 
Q 52.203125 43.703125 52.203125 31.203125 
z
" id="DejaVuSans-97"/>
     <path d="M 54.890625 33.015625 
L 54.890625 0 
L 45.90625 0 
L 45.90625 32.71875 
Q 45.90625 40.484375 42.875 44.328125 
Q 39.84375 48.1875 33.796875 48.1875 
Q 26.515625 48.1875 22.3125 43.546875 
Q 18.109375 38.921875 18.109375 30.90625 
L 18.109375 0 
L 9.078125 0 
L 9.078125 54.6875 
L 18.109375 54.6875 
L 18.109375 46.1875 
Q 21.34375 51.125 25.703125 53.5625 
Q 30.078125 56 35.796875 56 
Q 45.21875 56 50.046875 50.171875 
Q 54.890625 44.34375 54.890625 33.015625 
z
" id="DejaVuSans-110"/>
    </defs>
    <g transform="translate(279.227642 16.318125)scale(0.12 -0.12)">
     <use xlink:href="#DejaVuSans-77"/>
     <use x="86.279297" xlink:href="#DejaVuSans-111"/>
     <use x="147.460938" xlink:href="#DejaVuSans-100"/>
     <use x="210.9375" xlink:href="#DejaVuSans-101"/>
     <use x="272.460938" xlink:href="#DejaVuSans-108"/>
     <use x="300.244141" xlink:href="#DejaVuSans-32"/>
     <use x="332.03125" xlink:href="#DejaVuSans-111"/>
     <use x="393.212891" xlink:href="#DejaVuSans-102"/>
     <use x="428.417969" xlink:href="#DejaVuSans-32"/>
     <use x="460.205078" xlink:href="#DejaVuSans-98"/>
     <use x="523.681641" xlink:href="#DejaVuSans-105"/>
     <use x="551.464844" xlink:href="#DejaVuSans-114"/>
     <use x="592.5625" xlink:href="#DejaVuSans-100"/>
     <use x="656.039062" xlink:href="#DejaVuSans-115"/>
     <use x="708.138672" xlink:href="#DejaVuSans-32"/>
     <use x="739.925781" xlink:href="#DejaVuSans-97"/>
     <use x="801.205078" xlink:href="#DejaVuSans-110"/>
     <use x="864.583984" xlink:href="#DejaVuSans-100"/>
     <use x="928.060547" xlink:href="#DejaVuSans-32"/>
     <use x="959.847656" xlink:href="#DejaVuSans-116"/>
     <use x="999.056641" xlink:href="#DejaVuSans-114"/>
     <use x="1040.138672" xlink:href="#DejaVuSans-101"/>
     <use x="1101.662109" xlink:href="#DejaVuSans-101"/>
     <use x="1163.185547" xlink:href="#DejaVuSans-115"/>
    </g>
   </g>
  </g>
 </g>
 <defs>
  <clipPath id="pdda05df532">
   <rect height="163.08" width="202.909091" x="250.690909" y="22.318125"/>
  </clipPath>
 </defs>
</svg>
