<?xml version="1.0" encoding="utf-8" standalone="no"?>
<!DOCTYPE svg PUBLIC "-//W3C//DTD SVG 1.1//EN"
  "http://www.w3.org/Graphics/SVG/1.1/DTD/svg11.dtd">
<svg xmlns:xlink="http://www.w3.org/1999/xlink" width="460.8pt" height="226.194375pt" viewBox="0 0 460.8 226.194375" xmlns="http://www.w3.org/2000/svg" version="1.1">
 <metadata>
  <rdf:RDF xmlns:dc="http://purl.org/dc/elements/1.1/" xmlns:cc="http://creativecommons.org/ns#" xmlns:rdf="http://www.w3.org/1999/02/22-rdf-syntax-ns#">
   <cc:Work>
    <dc:type rdf:resource="http://purl.org/dc/dcmitype/StillImage"/>
    <dc:date>2023-04-28T14:49:49.802686</dc:date>
    <dc:format>image/svg+xml</dc:format>
    <dc:creator>
     <cc:Agent>
      <dc:title>Matplotlib v3.5.3, https://matplotlib.org/</dc:title>
     </cc:Agent>
    </dc:creator>
   </cc:Work>
  </rdf:RDF>
 </metadata>
 <defs>
  <style type="text/css">*{stroke-linejoin: round; stroke-linecap: butt}</style>
 </defs>
 <g id="figure_1">
  <g id="patch_1">
   <path d="M 0 226.194375 
L 460.8 226.194375 
L 460.8 0 
L 0 0 
z
" style="fill: #ffffff"/>
  </g>
  <g id="axes_1">
   <g id="patch_2">
    <path d="M 7.2 188.638125 
L 210.109091 188.638125 
L 210.109091 22.318125 
L 7.2 22.318125 
z
" style="fill: #ffffff"/>
   </g>
   <g id="matplotlib.axis_1"/>
   <g id="matplotlib.axis_2"/>
  </g>
  <g id="axes_2">
   <g id="patch_3">
    <path d="M 250.690909 188.638125 
L 453.6 188.638125 
L 453.6 22.318125 
L 250.690909 22.318125 
z
" style="fill: #ffffff"/>
   </g>
   <g id="PathCollection_1">
    <defs>
     <path id="m652c8b7129" d="M 0 3 
C 0.795609 3 1.55874 2.683901 2.12132 2.12132 
C 2.683901 1.55874 3 0.795609 3 0 
C 3 -0.795609 2.683901 -1.55874 2.12132 -2.12132 
C 1.55874 -2.683901 0.795609 -3 0 -3 
C -0.795609 -3 -1.55874 -2.683901 -2.12132 -2.12132 
C -2.683901 -1.55874 -3 -0.795609 -3 0 
C -3 0.795609 -2.683901 1.55874 -2.12132 2.12132 
C -1.55874 2.683901 -0.795609 3 0 3 
z
" style="stroke: #1f77b4"/>
    </defs>
    <g clip-path="url(#p20c5b8006f)">
     <use xlink:href="#m652c8b7129" x="259.91405" y="167.132" style="fill: #1f77b4; stroke: #1f77b4"/>
     <use xlink:href="#m652c8b7129" x="261.77731" y="154.466137" style="fill: #1f77b4; stroke: #1f77b4"/>
     <use xlink:href="#m652c8b7129" x="263.640571" y="149.601487" style="fill: #1f77b4; stroke: #1f77b4"/>
     <use xlink:href="#m652c8b7129" x="265.503832" y="157.445486" style="fill: #1f77b4; stroke: #1f77b4"/>
     <use xlink:href="#m652c8b7129" x="267.367092" y="181.078125" style="fill: #1f77b4; stroke: #1f77b4"/>
     <use xlink:href="#m652c8b7129" x="269.230353" y="159.594804" style="fill: #1f77b4; stroke: #1f77b4"/>
     <use xlink:href="#m652c8b7129" x="271.093614" y="139.746115" style="fill: #1f77b4; stroke: #1f77b4"/>
     <use xlink:href="#m652c8b7129" x="272.956875" y="174.932822" style="fill: #1f77b4; stroke: #1f77b4"/>
     <use xlink:href="#m652c8b7129" x="274.820135" y="148.136081" style="fill: #1f77b4; stroke: #1f77b4"/>
     <use xlink:href="#m652c8b7129" x="276.683396" y="153.595621" style="fill: #1f77b4; stroke: #1f77b4"/>
     <use xlink:href="#m652c8b7129" x="278.546657" y="151.021312" style="fill: #1f77b4; stroke: #1f77b4"/>
     <use xlink:href="#m652c8b7129" x="280.409917" y="162.412456" style="fill: #1f77b4; stroke: #1f77b4"/>
     <use xlink:href="#m652c8b7129" x="282.273178" y="145.444816" style="fill: #1f77b4; stroke: #1f77b4"/>
     <use xlink:href="#m652c8b7129" x="284.136439" y="149.915695" style="fill: #1f77b4; stroke: #1f77b4"/>
     <use xlink:href="#m652c8b7129" x="285.999699" y="135.447344" style="fill: #1f77b4; stroke: #1f77b4"/>
     <use xlink:href="#m652c8b7129" x="287.86296" y="159.599758" style="fill: #1f77b4; stroke: #1f77b4"/>
     <use xlink:href="#m652c8b7129" x="289.726221" y="131.345355" style="fill: #1f77b4; stroke: #1f77b4"/>
     <use xlink:href="#m652c8b7129" x="291.589482" y="156.027399" style="fill: #1f77b4; stroke: #1f77b4"/>
     <use xlink:href="#m652c8b7129" x="293.452742" y="140.851637" style="fill: #1f77b4; stroke: #1f77b4"/>
     <use xlink:href="#m652c8b7129" x="295.316003" y="129.84165" style="fill: #1f77b4; stroke: #1f77b4"/>
     <use xlink:href="#m652c8b7129" x="297.179264" y="142.919795" style="fill: #1f77b4; stroke: #1f77b4"/>
     <use xlink:href="#m652c8b7129" x="299.042524" y="127.93914" style="fill: #1f77b4; stroke: #1f77b4"/>
     <use xlink:href="#m652c8b7129" x="300.905785" y="161.167881" style="fill: #1f77b4; stroke: #1f77b4"/>
     <use xlink:href="#m652c8b7129" x="302.769046" y="138.753546" style="fill: #1f77b4; stroke: #1f77b4"/>
     <use xlink:href="#m652c8b7129" x="304.632307" y="138.476923" style="fill: #1f77b4; stroke: #1f77b4"/>
     <use xlink:href="#m652c8b7129" x="306.495567" y="133.785468" style="fill: #1f77b4; stroke: #1f77b4"/>
     <use xlink:href="#m652c8b7129" x="308.358828" y="138.209159" style="fill: #1f77b4; stroke: #1f77b4"/>
     <use xlink:href="#m652c8b7129" x="310.222089" y="141.298955" style="fill: #1f77b4; stroke: #1f77b4"/>
     <use xlink:href="#m652c8b7129" x="312.085349" y="135.063233" style="fill: #1f77b4; stroke: #1f77b4"/>
     <use xlink:href="#m652c8b7129" x="313.94861" y="114.610791" style="fill: #1f77b4; stroke: #1f77b4"/>
     <use xlink:href="#m652c8b7129" x="315.811871" y="122.499711" style="fill: #1f77b4; stroke: #1f77b4"/>
     <use xlink:href="#m652c8b7129" x="317.675131" y="113.620981" style="fill: #1f77b4; stroke: #1f77b4"/>
     <use xlink:href="#m652c8b7129" x="319.538392" y="102.243402" style="fill: #1f77b4; stroke: #1f77b4"/>
     <use xlink:href="#m652c8b7129" x="321.401653" y="109.271692" style="fill: #1f77b4; stroke: #1f77b4"/>
     <use xlink:href="#m652c8b7129" x="323.264914" y="119.43028" style="fill: #1f77b4; stroke: #1f77b4"/>
     <use xlink:href="#m652c8b7129" x="325.128174" y="99.70045" style="fill: #1f77b4; stroke: #1f77b4"/>
     <use xlink:href="#m652c8b7129" x="326.991435" y="119.122452" style="fill: #1f77b4; stroke: #1f77b4"/>
     <use xlink:href="#m652c8b7129" x="328.854696" y="130.212133" style="fill: #1f77b4; stroke: #1f77b4"/>
     <use xlink:href="#m652c8b7129" x="330.717956" y="134.050472" style="fill: #1f77b4; stroke: #1f77b4"/>
     <use xlink:href="#m652c8b7129" x="332.581217" y="119.671421" style="fill: #1f77b4; stroke: #1f77b4"/>
     <use xlink:href="#m652c8b7129" x="334.444478" y="121.689467" style="fill: #1f77b4; stroke: #1f77b4"/>
     <use xlink:href="#m652c8b7129" x="336.307739" y="129.659237" style="fill: #1f77b4; stroke: #1f77b4"/>
     <use xlink:href="#m652c8b7129" x="338.170999" y="107.91369" style="fill: #1f77b4; stroke: #1f77b4"/>
     <use xlink:href="#m652c8b7129" x="340.03426" y="133.203771" style="fill: #1f77b4; stroke: #1f77b4"/>
     <use xlink:href="#m652c8b7129" x="341.897521" y="87.329911" style="fill: #1f77b4; stroke: #1f77b4"/>
     <use xlink:href="#m652c8b7129" x="343.760781" y="107.281345" style="fill: #1f77b4; stroke: #1f77b4"/>
     <use xlink:href="#m652c8b7129" x="345.624042" y="86.946368" style="fill: #1f77b4; stroke: #1f77b4"/>
     <use xlink:href="#m652c8b7129" x="347.487303" y="115.455489" style="fill: #1f77b4; stroke: #1f77b4"/>
     <use xlink:href="#m652c8b7129" x="349.350563" y="120.79586" style="fill: #1f77b4; stroke: #1f77b4"/>
     <use xlink:href="#m652c8b7129" x="351.213824" y="92.543246" style="fill: #1f77b4; stroke: #1f77b4"/>
     <use xlink:href="#m652c8b7129" x="353.077085" y="117.452431" style="fill: #1f77b4; stroke: #1f77b4"/>
     <use xlink:href="#m652c8b7129" x="354.940346" y="93.388748" style="fill: #1f77b4; stroke: #1f77b4"/>
     <use xlink:href="#m652c8b7129" x="356.803606" y="74.958958" style="fill: #1f77b4; stroke: #1f77b4"/>
     <use xlink:href="#m652c8b7129" x="358.666867" y="84.758918" style="fill: #1f77b4; stroke: #1f77b4"/>
     <use xlink:href="#m652c8b7129" x="360.530128" y="109.024584" style="fill: #1f77b4; stroke: #1f77b4"/>
     <use xlink:href="#m652c8b7129" x="362.393388" y="109.113013" style="fill: #1f77b4; stroke: #1f77b4"/>
     <use xlink:href="#m652c8b7129" x="364.256649" y="103.79778" style="fill: #1f77b4; stroke: #1f77b4"/>
     <use xlink:href="#m652c8b7129" x="366.11991" y="88.127098" style="fill: #1f77b4; stroke: #1f77b4"/>
     <use xlink:href="#m652c8b7129" x="367.983171" y="80.895367" style="fill: #1f77b4; stroke: #1f77b4"/>
     <use xlink:href="#m652c8b7129" x="369.846431" y="96.886166" style="fill: #1f77b4; stroke: #1f77b4"/>
     <use xlink:href="#m652c8b7129" x="371.709692" y="96.193423" style="fill: #1f77b4; stroke: #1f77b4"/>
     <use xlink:href="#m652c8b7129" x="373.572953" y="93.683647" style="fill: #1f77b4; stroke: #1f77b4"/>
     <use xlink:href="#m652c8b7129" x="375.436213" y="92.900961" style="fill: #1f77b4; stroke: #1f77b4"/>
     <use xlink:href="#m652c8b7129" x="377.299474" y="80.694474" style="fill: #1f77b4; stroke: #1f77b4"/>
     <use xlink:href="#m652c8b7129" x="379.162735" y="100.241842" style="fill: #1f77b4; stroke: #1f77b4"/>
     <use xlink:href="#m652c8b7129" x="381.025995" y="77.363132" style="fill: #1f77b4; stroke: #1f77b4"/>
     <use xlink:href="#m652c8b7129" x="382.889256" y="95.29061" style="fill: #1f77b4; stroke: #1f77b4"/>
     <use xlink:href="#m652c8b7129" x="384.752517" y="72.995834" style="fill: #1f77b4; stroke: #1f77b4"/>
     <use xlink:href="#m652c8b7129" x="386.615778" y="79.821485" style="fill: #1f77b4; stroke: #1f77b4"/>
     <use xlink:href="#m652c8b7129" x="388.479038" y="62.448096" style="fill: #1f77b4; stroke: #1f77b4"/>
     <use xlink:href="#m652c8b7129" x="390.342299" y="72.326384" style="fill: #1f77b4; stroke: #1f77b4"/>
     <use xlink:href="#m652c8b7129" x="392.20556" y="63.77034" style="fill: #1f77b4; stroke: #1f77b4"/>
     <use xlink:href="#m652c8b7129" x="394.06882" y="73.923595" style="fill: #1f77b4; stroke: #1f77b4"/>
     <use xlink:href="#m652c8b7129" x="395.932081" y="65.904851" style="fill: #1f77b4; stroke: #1f77b4"/>
     <use xlink:href="#m652c8b7129" x="397.795342" y="63.284286" style="fill: #1f77b4; stroke: #1f77b4"/>
     <use xlink:href="#m652c8b7129" x="399.658603" y="56.307118" style="fill: #1f77b4; stroke: #1f77b4"/>
     <use xlink:href="#m652c8b7129" x="401.521863" y="68.997939" style="fill: #1f77b4; stroke: #1f77b4"/>
     <use xlink:href="#m652c8b7129" x="403.385124" y="56.249115" style="fill: #1f77b4; stroke: #1f77b4"/>
     <use xlink:href="#m652c8b7129" x="405.248385" y="69.972434" style="fill: #1f77b4; stroke: #1f77b4"/>
     <use xlink:href="#m652c8b7129" x="407.111645" y="34.36442" style="fill: #1f77b4; stroke: #1f77b4"/>
     <use xlink:href="#m652c8b7129" x="408.974906" y="57.2149" style="fill: #1f77b4; stroke: #1f77b4"/>
     <use xlink:href="#m652c8b7129" x="410.838167" y="43.382845" style="fill: #1f77b4; stroke: #1f77b4"/>
     <use xlink:href="#m652c8b7129" x="412.701427" y="67.276471" style="fill: #1f77b4; stroke: #1f77b4"/>
     <use xlink:href="#m652c8b7129" x="414.564688" y="66.520089" style="fill: #1f77b4; stroke: #1f77b4"/>
     <use xlink:href="#m652c8b7129" x="416.427949" y="49.174312" style="fill: #1f77b4; stroke: #1f77b4"/>
     <use xlink:href="#m652c8b7129" x="418.29121" y="57.220803" style="fill: #1f77b4; stroke: #1f77b4"/>
     <use xlink:href="#m652c8b7129" x="420.15447" y="79.332488" style="fill: #1f77b4; stroke: #1f77b4"/>
     <use xlink:href="#m652c8b7129" x="422.017731" y="33.134722" style="fill: #1f77b4; stroke: #1f77b4"/>
     <use xlink:href="#m652c8b7129" x="423.880992" y="79.832907" style="fill: #1f77b4; stroke: #1f77b4"/>
     <use xlink:href="#m652c8b7129" x="425.744252" y="59.730808" style="fill: #1f77b4; stroke: #1f77b4"/>
     <use xlink:href="#m652c8b7129" x="427.607513" y="31.725635" style="fill: #1f77b4; stroke: #1f77b4"/>
     <use xlink:href="#m652c8b7129" x="429.470774" y="49.348249" style="fill: #1f77b4; stroke: #1f77b4"/>
     <use xlink:href="#m652c8b7129" x="431.334035" y="53.570844" style="fill: #1f77b4; stroke: #1f77b4"/>
     <use xlink:href="#m652c8b7129" x="433.197295" y="48.281741" style="fill: #1f77b4; stroke: #1f77b4"/>
     <use xlink:href="#m652c8b7129" x="435.060556" y="46.4554" style="fill: #1f77b4; stroke: #1f77b4"/>
     <use xlink:href="#m652c8b7129" x="436.923817" y="29.878125" style="fill: #1f77b4; stroke: #1f77b4"/>
     <use xlink:href="#m652c8b7129" x="438.787077" y="57.455194" style="fill: #1f77b4; stroke: #1f77b4"/>
     <use xlink:href="#m652c8b7129" x="440.650338" y="31.551526" style="fill: #1f77b4; stroke: #1f77b4"/>
     <use xlink:href="#m652c8b7129" x="442.513599" y="36.512269" style="fill: #1f77b4; stroke: #1f77b4"/>
     <use xlink:href="#m652c8b7129" x="444.37686" y="38.132747" style="fill: #1f77b4; stroke: #1f77b4"/>
    </g>
   </g>
   <g id="matplotlib.axis_3">
    <g id="xtick_1">
     <g id="line2d_1">
      <defs>
       <path id="m3fb67a474d" d="M 0 0 
L 0 3.5 
" style="stroke: #000000; stroke-width: 0.8"/>
      </defs>
      <g>
       <use xlink:href="#m3fb67a474d" x="259.91405" y="188.638125" style="stroke: #000000; stroke-width: 0.8"/>
      </g>
     </g>
     <g id="text_1">
      <!-- 0 -->
      <g transform="translate(256.7328 203.236563)scale(0.1 -0.1)">
       <defs>
        <path id="DejaVuSans-30" d="M 2034 4250 
Q 1547 4250 1301 3770 
Q 1056 3291 1056 2328 
Q 1056 1369 1301 889 
Q 1547 409 2034 409 
Q 2525 409 2770 889 
Q 3016 1369 3016 2328 
Q 3016 3291 2770 3770 
Q 2525 4250 2034 4250 
z
M 2034 4750 
Q 2819 4750 3233 4129 
Q 3647 3509 3647 2328 
Q 3647 1150 3233 529 
Q 2819 -91 2034 -91 
Q 1250 -91 836 529 
Q 422 1150 422 2328 
Q 422 3509 836 4129 
Q 1250 4750 2034 4750 
z
" transform="scale(0.015625)"/>
       </defs>
       <use xlink:href="#DejaVuSans-30"/>
      </g>
     </g>
    </g>
    <g id="xtick_2">
     <g id="line2d_2">
      <g>
       <use xlink:href="#m3fb67a474d" x="296.806612" y="188.638125" style="stroke: #000000; stroke-width: 0.8"/>
      </g>
     </g>
     <g id="text_2">
      <!-- 2 -->
      <g transform="translate(293.625362 203.236563)scale(0.1 -0.1)">
       <defs>
        <path id="DejaVuSans-32" d="M 1228 531 
L 3431 531 
L 3431 0 
L 469 0 
L 469 531 
Q 828 903 1448 1529 
Q 2069 2156 2228 2338 
Q 2531 2678 2651 2914 
Q 2772 3150 2772 3378 
Q 2772 3750 2511 3984 
Q 2250 4219 1831 4219 
Q 1534 4219 1204 4116 
Q 875 4013 500 3803 
L 500 4441 
Q 881 4594 1212 4672 
Q 1544 4750 1819 4750 
Q 2544 4750 2975 4387 
Q 3406 4025 3406 3419 
Q 3406 3131 3298 2873 
Q 3191 2616 2906 2266 
Q 2828 2175 2409 1742 
Q 1991 1309 1228 531 
z
" transform="scale(0.015625)"/>
       </defs>
       <use xlink:href="#DejaVuSans-32"/>
      </g>
     </g>
    </g>
    <g id="xtick_3">
     <g id="line2d_3">
      <g>
       <use xlink:href="#m3fb67a474d" x="333.699174" y="188.638125" style="stroke: #000000; stroke-width: 0.8"/>
      </g>
     </g>
     <g id="text_3">
      <!-- 4 -->
      <g transform="translate(330.517924 203.236563)scale(0.1 -0.1)">
       <defs>
        <path id="DejaVuSans-34" d="M 2419 4116 
L 825 1625 
L 2419 1625 
L 2419 4116 
z
M 2253 4666 
L 3047 4666 
L 3047 1625 
L 3713 1625 
L 3713 1100 
L 3047 1100 
L 3047 0 
L 2419 0 
L 2419 1100 
L 313 1100 
L 313 1709 
L 2253 4666 
z
" transform="scale(0.015625)"/>
       </defs>
       <use xlink:href="#DejaVuSans-34"/>
      </g>
     </g>
    </g>
    <g id="xtick_4">
     <g id="line2d_4">
      <g>
       <use xlink:href="#m3fb67a474d" x="370.591736" y="188.638125" style="stroke: #000000; stroke-width: 0.8"/>
      </g>
     </g>
     <g id="text_4">
      <!-- 6 -->
      <g transform="translate(367.410486 203.236563)scale(0.1 -0.1)">
       <defs>
        <path id="DejaVuSans-36" d="M 2113 2584 
Q 1688 2584 1439 2293 
Q 1191 2003 1191 1497 
Q 1191 994 1439 701 
Q 1688 409 2113 409 
Q 2538 409 2786 701 
Q 3034 994 3034 1497 
Q 3034 2003 2786 2293 
Q 2538 2584 2113 2584 
z
M 3366 4563 
L 3366 3988 
Q 3128 4100 2886 4159 
Q 2644 4219 2406 4219 
Q 1781 4219 1451 3797 
Q 1122 3375 1075 2522 
Q 1259 2794 1537 2939 
Q 1816 3084 2150 3084 
Q 2853 3084 3261 2657 
Q 3669 2231 3669 1497 
Q 3669 778 3244 343 
Q 2819 -91 2113 -91 
Q 1303 -91 875 529 
Q 447 1150 447 2328 
Q 447 3434 972 4092 
Q 1497 4750 2381 4750 
Q 2619 4750 2861 4703 
Q 3103 4656 3366 4563 
z
" transform="scale(0.015625)"/>
       </defs>
       <use xlink:href="#DejaVuSans-36"/>
      </g>
     </g>
    </g>
    <g id="xtick_5">
     <g id="line2d_5">
      <g>
       <use xlink:href="#m3fb67a474d" x="407.484298" y="188.638125" style="stroke: #000000; stroke-width: 0.8"/>
      </g>
     </g>
     <g id="text_5">
      <!-- 8 -->
      <g transform="translate(404.303048 203.236563)scale(0.1 -0.1)">
       <defs>
        <path id="DejaVuSans-38" d="M 2034 2216 
Q 1584 2216 1326 1975 
Q 1069 1734 1069 1313 
Q 1069 891 1326 650 
Q 1584 409 2034 409 
Q 2484 409 2743 651 
Q 3003 894 3003 1313 
Q 3003 1734 2745 1975 
Q 2488 2216 2034 2216 
z
M 1403 2484 
Q 997 2584 770 2862 
Q 544 3141 544 3541 
Q 544 4100 942 4425 
Q 1341 4750 2034 4750 
Q 2731 4750 3128 4425 
Q 3525 4100 3525 3541 
Q 3525 3141 3298 2862 
Q 3072 2584 2669 2484 
Q 3125 2378 3379 2068 
Q 3634 1759 3634 1313 
Q 3634 634 3220 271 
Q 2806 -91 2034 -91 
Q 1263 -91 848 271 
Q 434 634 434 1313 
Q 434 1759 690 2068 
Q 947 2378 1403 2484 
z
M 1172 3481 
Q 1172 3119 1398 2916 
Q 1625 2713 2034 2713 
Q 2441 2713 2670 2916 
Q 2900 3119 2900 3481 
Q 2900 3844 2670 4047 
Q 2441 4250 2034 4250 
Q 1625 4250 1398 4047 
Q 1172 3844 1172 3481 
z
" transform="scale(0.015625)"/>
       </defs>
       <use xlink:href="#DejaVuSans-38"/>
      </g>
     </g>
    </g>
    <g id="xtick_6">
     <g id="line2d_6">
      <g>
       <use xlink:href="#m3fb67a474d" x="444.37686" y="188.638125" style="stroke: #000000; stroke-width: 0.8"/>
      </g>
     </g>
     <g id="text_6">
      <!-- 10 -->
      <g transform="translate(438.01436 203.236563)scale(0.1 -0.1)">
       <defs>
        <path id="DejaVuSans-31" d="M 794 531 
L 1825 531 
L 1825 4091 
L 703 3866 
L 703 4441 
L 1819 4666 
L 2450 4666 
L 2450 531 
L 3481 531 
L 3481 0 
L 794 0 
L 794 531 
z
" transform="scale(0.015625)"/>
       </defs>
       <use xlink:href="#DejaVuSans-31"/>
       <use xlink:href="#DejaVuSans-30" x="63.623047"/>
      </g>
     </g>
    </g>
    <g id="text_7">
     <!-- Number of trees -->
     <g transform="translate(311.400923 216.914688)scale(0.1 -0.1)">
      <defs>
       <path id="DejaVuSans-4e" d="M 628 4666 
L 1478 4666 
L 3547 763 
L 3547 4666 
L 4159 4666 
L 4159 0 
L 3309 0 
L 1241 3903 
L 1241 0 
L 628 0 
L 628 4666 
z
" transform="scale(0.015625)"/>
       <path id="DejaVuSans-75" d="M 544 1381 
L 544 3500 
L 1119 3500 
L 1119 1403 
Q 1119 906 1312 657 
Q 1506 409 1894 409 
Q 2359 409 2629 706 
Q 2900 1003 2900 1516 
L 2900 3500 
L 3475 3500 
L 3475 0 
L 2900 0 
L 2900 538 
Q 2691 219 2414 64 
Q 2138 -91 1772 -91 
Q 1169 -91 856 284 
Q 544 659 544 1381 
z
M 1991 3584 
L 1991 3584 
z
" transform="scale(0.015625)"/>
       <path id="DejaVuSans-6d" d="M 3328 2828 
Q 3544 3216 3844 3400 
Q 4144 3584 4550 3584 
Q 5097 3584 5394 3201 
Q 5691 2819 5691 2113 
L 5691 0 
L 5113 0 
L 5113 2094 
Q 5113 2597 4934 2840 
Q 4756 3084 4391 3084 
Q 3944 3084 3684 2787 
Q 3425 2491 3425 1978 
L 3425 0 
L 2847 0 
L 2847 2094 
Q 2847 2600 2669 2842 
Q 2491 3084 2119 3084 
Q 1678 3084 1418 2786 
Q 1159 2488 1159 1978 
L 1159 0 
L 581 0 
L 581 3500 
L 1159 3500 
L 1159 2956 
Q 1356 3278 1631 3431 
Q 1906 3584 2284 3584 
Q 2666 3584 2933 3390 
Q 3200 3197 3328 2828 
z
" transform="scale(0.015625)"/>
       <path id="DejaVuSans-62" d="M 3116 1747 
Q 3116 2381 2855 2742 
Q 2594 3103 2138 3103 
Q 1681 3103 1420 2742 
Q 1159 2381 1159 1747 
Q 1159 1113 1420 752 
Q 1681 391 2138 391 
Q 2594 391 2855 752 
Q 3116 1113 3116 1747 
z
M 1159 2969 
Q 1341 3281 1617 3432 
Q 1894 3584 2278 3584 
Q 2916 3584 3314 3078 
Q 3713 2572 3713 1747 
Q 3713 922 3314 415 
Q 2916 -91 2278 -91 
Q 1894 -91 1617 61 
Q 1341 213 1159 525 
L 1159 0 
L 581 0 
L 581 4863 
L 1159 4863 
L 1159 2969 
z
" transform="scale(0.015625)"/>
       <path id="DejaVuSans-65" d="M 3597 1894 
L 3597 1613 
L 953 1613 
Q 991 1019 1311 708 
Q 1631 397 2203 397 
Q 2534 397 2845 478 
Q 3156 559 3463 722 
L 3463 178 
Q 3153 47 2828 -22 
Q 2503 -91 2169 -91 
Q 1331 -91 842 396 
Q 353 884 353 1716 
Q 353 2575 817 3079 
Q 1281 3584 2069 3584 
Q 2775 3584 3186 3129 
Q 3597 2675 3597 1894 
z
M 3022 2063 
Q 3016 2534 2758 2815 
Q 2500 3097 2075 3097 
Q 1594 3097 1305 2825 
Q 1016 2553 972 2059 
L 3022 2063 
z
" transform="scale(0.015625)"/>
       <path id="DejaVuSans-72" d="M 2631 2963 
Q 2534 3019 2420 3045 
Q 2306 3072 2169 3072 
Q 1681 3072 1420 2755 
Q 1159 2438 1159 1844 
L 1159 0 
L 581 0 
L 581 3500 
L 1159 3500 
L 1159 2956 
Q 1341 3275 1631 3429 
Q 1922 3584 2338 3584 
Q 2397 3584 2469 3576 
Q 2541 3569 2628 3553 
L 2631 2963 
z
" transform="scale(0.015625)"/>
       <path id="DejaVuSans-20" transform="scale(0.015625)"/>
       <path id="DejaVuSans-6f" d="M 1959 3097 
Q 1497 3097 1228 2736 
Q 959 2375 959 1747 
Q 959 1119 1226 758 
Q 1494 397 1959 397 
Q 2419 397 2687 759 
Q 2956 1122 2956 1747 
Q 2956 2369 2687 2733 
Q 2419 3097 1959 3097 
z
M 1959 3584 
Q 2709 3584 3137 3096 
Q 3566 2609 3566 1747 
Q 3566 888 3137 398 
Q 2709 -91 1959 -91 
Q 1206 -91 779 398 
Q 353 888 353 1747 
Q 353 2609 779 3096 
Q 1206 3584 1959 3584 
z
" transform="scale(0.015625)"/>
       <path id="DejaVuSans-66" d="M 2375 4863 
L 2375 4384 
L 1825 4384 
Q 1516 4384 1395 4259 
Q 1275 4134 1275 3809 
L 1275 3500 
L 2222 3500 
L 2222 3053 
L 1275 3053 
L 1275 0 
L 697 0 
L 697 3053 
L 147 3053 
L 147 3500 
L 697 3500 
L 697 3744 
Q 697 4328 969 4595 
Q 1241 4863 1831 4863 
L 2375 4863 
z
" transform="scale(0.015625)"/>
       <path id="DejaVuSans-74" d="M 1172 4494 
L 1172 3500 
L 2356 3500 
L 2356 3053 
L 1172 3053 
L 1172 1153 
Q 1172 725 1289 603 
Q 1406 481 1766 481 
L 2356 481 
L 2356 0 
L 1766 0 
Q 1100 0 847 248 
Q 594 497 594 1153 
L 594 3053 
L 172 3053 
L 172 3500 
L 594 3500 
L 594 4494 
L 1172 4494 
z
" transform="scale(0.015625)"/>
       <path id="DejaVuSans-73" d="M 2834 3397 
L 2834 2853 
Q 2591 2978 2328 3040 
Q 2066 3103 1784 3103 
Q 1356 3103 1142 2972 
Q 928 2841 928 2578 
Q 928 2378 1081 2264 
Q 1234 2150 1697 2047 
L 1894 2003 
Q 2506 1872 2764 1633 
Q 3022 1394 3022 966 
Q 3022 478 2636 193 
Q 2250 -91 1575 -91 
Q 1294 -91 989 -36 
Q 684 19 347 128 
L 347 722 
Q 666 556 975 473 
Q 1284 391 1588 391 
Q 1994 391 2212 530 
Q 2431 669 2431 922 
Q 2431 1156 2273 1281 
Q 2116 1406 1581 1522 
L 1381 1569 
Q 847 1681 609 1914 
Q 372 2147 372 2553 
Q 372 3047 722 3315 
Q 1072 3584 1716 3584 
Q 2034 3584 2315 3537 
Q 2597 3491 2834 3397 
z
" transform="scale(0.015625)"/>
      </defs>
      <use xlink:href="#DejaVuSans-4e"/>
      <use xlink:href="#DejaVuSans-75" x="74.804688"/>
      <use xlink:href="#DejaVuSans-6d" x="138.183594"/>
      <use xlink:href="#DejaVuSans-62" x="235.595703"/>
      <use xlink:href="#DejaVuSans-65" x="299.072266"/>
      <use xlink:href="#DejaVuSans-72" x="360.595703"/>
      <use xlink:href="#DejaVuSans-20" x="401.708984"/>
      <use xlink:href="#DejaVuSans-6f" x="433.496094"/>
      <use xlink:href="#DejaVuSans-66" x="494.677734"/>
      <use xlink:href="#DejaVuSans-20" x="529.882812"/>
      <use xlink:href="#DejaVuSans-74" x="561.669922"/>
      <use xlink:href="#DejaVuSans-72" x="600.878906"/>
      <use xlink:href="#DejaVuSans-65" x="639.742188"/>
      <use xlink:href="#DejaVuSans-65" x="701.265625"/>
      <use xlink:href="#DejaVuSans-73" x="762.789062"/>
     </g>
    </g>
   </g>
   <g id="matplotlib.axis_4">
    <g id="ytick_1">
     <g id="line2d_7">
      <defs>
       <path id="m65f164078d" d="M 0 0 
L -3.5 0 
" style="stroke: #000000; stroke-width: 0.8"/>
      </defs>
      <g>
       <use xlink:href="#m65f164078d" x="250.690909" y="163.675772" style="stroke: #000000; stroke-width: 0.8"/>
      </g>
     </g>
     <g id="text_8">
      <!-- 0 -->
      <g transform="translate(237.328409 167.474991)scale(0.1 -0.1)">
       <use xlink:href="#DejaVuSans-30"/>
      </g>
     </g>
    </g>
    <g id="ytick_2">
     <g id="line2d_8">
      <g>
       <use xlink:href="#m65f164078d" x="250.690909" y="138.39841" style="stroke: #000000; stroke-width: 0.8"/>
      </g>
     </g>
     <g id="text_9">
      <!-- 2 -->
      <g transform="translate(237.328409 142.197629)scale(0.1 -0.1)">
       <use xlink:href="#DejaVuSans-32"/>
      </g>
     </g>
    </g>
    <g id="ytick_3">
     <g id="line2d_9">
      <g>
       <use xlink:href="#m65f164078d" x="250.690909" y="113.121047" style="stroke: #000000; stroke-width: 0.8"/>
      </g>
     </g>
     <g id="text_10">
      <!-- 4 -->
      <g transform="translate(237.328409 116.920266)scale(0.1 -0.1)">
       <use xlink:href="#DejaVuSans-34"/>
      </g>
     </g>
    </g>
    <g id="ytick_4">
     <g id="line2d_10">
      <g>
       <use xlink:href="#m65f164078d" x="250.690909" y="87.843685" style="stroke: #000000; stroke-width: 0.8"/>
      </g>
     </g>
     <g id="text_11">
      <!-- 6 -->
      <g transform="translate(237.328409 91.642904)scale(0.1 -0.1)">
       <use xlink:href="#DejaVuSans-36"/>
      </g>
     </g>
    </g>
    <g id="ytick_5">
     <g id="line2d_11">
      <g>
       <use xlink:href="#m65f164078d" x="250.690909" y="62.566322" style="stroke: #000000; stroke-width: 0.8"/>
      </g>
     </g>
     <g id="text_12">
      <!-- 8 -->
      <g transform="translate(237.328409 66.365541)scale(0.1 -0.1)">
       <use xlink:href="#DejaVuSans-38"/>
      </g>
     </g>
    </g>
    <g id="ytick_6">
     <g id="line2d_12">
      <g>
       <use xlink:href="#m65f164078d" x="250.690909" y="37.28896" style="stroke: #000000; stroke-width: 0.8"/>
      </g>
     </g>
     <g id="text_13">
      <!-- 10 -->
      <g transform="translate(230.965909 41.088178)scale(0.1 -0.1)">
       <use xlink:href="#DejaVuSans-31"/>
       <use xlink:href="#DejaVuSans-30" x="63.623047"/>
      </g>
     </g>
    </g>
    <g id="text_14">
     <!-- Number of birds -->
     <g transform="translate(224.886222 145.871875)rotate(-90)scale(0.1 -0.1)">
      <defs>
       <path id="DejaVuSans-69" d="M 603 3500 
L 1178 3500 
L 1178 0 
L 603 0 
L 603 3500 
z
M 603 4863 
L 1178 4863 
L 1178 4134 
L 603 4134 
L 603 4863 
z
" transform="scale(0.015625)"/>
       <path id="DejaVuSans-64" d="M 2906 2969 
L 2906 4863 
L 3481 4863 
L 3481 0 
L 2906 0 
L 2906 525 
Q 2725 213 2448 61 
Q 2172 -91 1784 -91 
Q 1150 -91 751 415 
Q 353 922 353 1747 
Q 353 2572 751 3078 
Q 1150 3584 1784 3584 
Q 2172 3584 2448 3432 
Q 2725 3281 2906 2969 
z
M 947 1747 
Q 947 1113 1208 752 
Q 1469 391 1925 391 
Q 2381 391 2643 752 
Q 2906 1113 2906 1747 
Q 2906 2381 2643 2742 
Q 2381 3103 1925 3103 
Q 1469 3103 1208 2742 
Q 947 2381 947 1747 
z
" transform="scale(0.015625)"/>
      </defs>
      <use xlink:href="#DejaVuSans-4e"/>
      <use xlink:href="#DejaVuSans-75" x="74.804688"/>
      <use xlink:href="#DejaVuSans-6d" x="138.183594"/>
      <use xlink:href="#DejaVuSans-62" x="235.595703"/>
      <use xlink:href="#DejaVuSans-65" x="299.072266"/>
      <use xlink:href="#DejaVuSans-72" x="360.595703"/>
      <use xlink:href="#DejaVuSans-20" x="401.708984"/>
      <use xlink:href="#DejaVuSans-6f" x="433.496094"/>
      <use xlink:href="#DejaVuSans-66" x="494.677734"/>
      <use xlink:href="#DejaVuSans-20" x="529.882812"/>
      <use xlink:href="#DejaVuSans-62" x="561.669922"/>
      <use xlink:href="#DejaVuSans-69" x="625.146484"/>
      <use xlink:href="#DejaVuSans-72" x="652.929688"/>
      <use xlink:href="#DejaVuSans-64" x="692.292969"/>
      <use xlink:href="#DejaVuSans-73" x="755.769531"/>
     </g>
    </g>
   </g>
   <g id="patch_4">
    <path d="M 250.690909 188.638125 
L 250.690909 22.318125 
" style="fill: none; stroke: #000000; stroke-width: 0.8; stroke-linejoin: miter; stroke-linecap: square"/>
   </g>
   <g id="patch_5">
    <path d="M 250.690909 188.638125 
L 453.6 188.638125 
" style="fill: none; stroke: #000000; stroke-width: 0.8; stroke-linejoin: miter; stroke-linecap: square"/>
   </g>
   <g id="text_15">
    <!-- Model of birds and trees -->
    <g transform="translate(279.46483 16.318125)scale(0.12 -0.12)">
     <defs>
      <path id="DejaVuSans-4d" d="M 628 4666 
L 1569 4666 
L 2759 1491 
L 3956 4666 
L 4897 4666 
L 4897 0 
L 4281 0 
L 4281 4097 
L 3078 897 
L 2444 897 
L 1241 4097 
L 1241 0 
L 628 0 
L 628 4666 
z
" transform="scale(0.015625)"/>
      <path id="DejaVuSans-6c" d="M 603 4863 
L 1178 4863 
L 1178 0 
L 603 0 
L 603 4863 
z
" transform="scale(0.015625)"/>
      <path id="DejaVuSans-61" d="M 2194 1759 
Q 1497 1759 1228 1600 
Q 959 1441 959 1056 
Q 959 750 1161 570 
Q 1363 391 1709 391 
Q 2188 391 2477 730 
Q 2766 1069 2766 1631 
L 2766 1759 
L 2194 1759 
z
M 3341 1997 
L 3341 0 
L 2766 0 
L 2766 531 
Q 2569 213 2275 61 
Q 1981 -91 1556 -91 
Q 1019 -91 701 211 
Q 384 513 384 1019 
Q 384 1609 779 1909 
Q 1175 2209 1959 2209 
L 2766 2209 
L 2766 2266 
Q 2766 2663 2505 2880 
Q 2244 3097 1772 3097 
Q 1472 3097 1187 3025 
Q 903 2953 641 2809 
L 641 3341 
Q 956 3463 1253 3523 
Q 1550 3584 1831 3584 
Q 2591 3584 2966 3190 
Q 3341 2797 3341 1997 
z
" transform="scale(0.015625)"/>
      <path id="DejaVuSans-6e" d="M 3513 2113 
L 3513 0 
L 2938 0 
L 2938 2094 
Q 2938 2591 2744 2837 
Q 2550 3084 2163 3084 
Q 1697 3084 1428 2787 
Q 1159 2491 1159 1978 
L 1159 0 
L 581 0 
L 581 3500 
L 1159 3500 
L 1159 2956 
Q 1366 3272 1645 3428 
Q 1925 3584 2291 3584 
Q 2894 3584 3203 3211 
Q 3513 2838 3513 2113 
z
" transform="scale(0.015625)"/>
     </defs>
     <use xlink:href="#DejaVuSans-4d"/>
     <use xlink:href="#DejaVuSans-6f" x="86.279297"/>
     <use xlink:href="#DejaVuSans-64" x="147.460938"/>
     <use xlink:href="#DejaVuSans-65" x="210.9375"/>
     <use xlink:href="#DejaVuSans-6c" x="272.460938"/>
     <use xlink:href="#DejaVuSans-20" x="300.244141"/>
     <use xlink:href="#DejaVuSans-6f" x="332.03125"/>
     <use xlink:href="#DejaVuSans-66" x="393.212891"/>
     <use xlink:href="#DejaVuSans-20" x="428.417969"/>
     <use xlink:href="#DejaVuSans-62" x="460.205078"/>
     <use xlink:href="#DejaVuSans-69" x="523.681641"/>
     <use xlink:href="#DejaVuSans-72" x="551.464844"/>
     <use xlink:href="#DejaVuSans-64" x="590.828125"/>
     <use xlink:href="#DejaVuSans-73" x="654.304688"/>
     <use xlink:href="#DejaVuSans-20" x="706.404297"/>
     <use xlink:href="#DejaVuSans-61" x="738.191406"/>
     <use xlink:href="#DejaVuSans-6e" x="799.470703"/>
     <use xlink:href="#DejaVuSans-64" x="862.849609"/>
     <use xlink:href="#DejaVuSans-20" x="926.326172"/>
     <use xlink:href="#DejaVuSans-74" x="958.113281"/>
     <use xlink:href="#DejaVuSans-72" x="997.322266"/>
     <use xlink:href="#DejaVuSans-65" x="1036.185547"/>
     <use xlink:href="#DejaVuSans-65" x="1097.708984"/>
     <use xlink:href="#DejaVuSans-73" x="1159.232422"/>
    </g>
   </g>
  </g>
 </g>
 <defs>
  <clipPath id="p20c5b8006f">
   <rect x="250.690909" y="22.318125" width="202.909091" height="166.32"/>
  </clipPath>
 </defs>
</svg>
