<?xml version="1.0" encoding="utf-8" standalone="no"?>
<!DOCTYPE svg PUBLIC "-//W3C//DTD SVG 1.1//EN"
  "http://www.w3.org/Graphics/SVG/1.1/DTD/svg11.dtd">
<svg xmlns:xlink="http://www.w3.org/1999/xlink" width="704.182812pt" height="252.754687pt" viewBox="0 0 704.182812 252.754687" xmlns="http://www.w3.org/2000/svg" version="1.1">
 <metadata>
  <rdf:RDF xmlns:dc="http://purl.org/dc/elements/1.1/" xmlns:cc="http://creativecommons.org/ns#" xmlns:rdf="http://www.w3.org/1999/02/22-rdf-syntax-ns#">
   <cc:Work>
    <dc:type rdf:resource="http://purl.org/dc/dcmitype/StillImage"/>
    <dc:date>2023-05-03T18:55:23.053777</dc:date>
    <dc:format>image/svg+xml</dc:format>
    <dc:creator>
     <cc:Agent>
      <dc:title>Matplotlib v3.5.3, https://matplotlib.org/</dc:title>
     </cc:Agent>
    </dc:creator>
   </cc:Work>
  </rdf:RDF>
 </metadata>
 <defs>
  <style type="text/css">*{stroke-linejoin: round; stroke-linecap: butt}</style>
 </defs>
 <g id="figure_1">
  <g id="patch_1">
   <path d="M -0 252.754687 
L 704.182812 252.754687 
L 704.182812 0 
L -0 0 
z
" style="fill: #ffffff"/>
  </g>
  <g id="axes_1">
   <g id="patch_2">
    <path d="M 336.982813 215.198437 
L 696.982813 215.198437 
L 696.982813 20.798438 
L 336.982813 20.798438 
z
" style="fill: #ffffff"/>
   </g>
   <g id="matplotlib.axis_1">
    <g id="xtick_1">
     <g id="line2d_1">
      <defs>
       <path id="m35d07ae6cc" d="M 0 0 
L 0 3.5 
" style="stroke: #000000; stroke-width: 0.8"/>
      </defs>
      <g>
       <use xlink:href="#m35d07ae6cc" x="336.982813" y="215.198437" style="stroke: #000000; stroke-width: 0.8"/>
      </g>
     </g>
     <g id="text_1">
      <!-- 0 -->
      <g transform="translate(333.801563 229.796875)scale(0.1 -0.1)">
       <defs>
        <path id="DejaVuSans-30" d="M 2034 4250 
Q 1547 4250 1301 3770 
Q 1056 3291 1056 2328 
Q 1056 1369 1301 889 
Q 1547 409 2034 409 
Q 2525 409 2770 889 
Q 3016 1369 3016 2328 
Q 3016 3291 2770 3770 
Q 2525 4250 2034 4250 
z
M 2034 4750 
Q 2819 4750 3233 4129 
Q 3647 3509 3647 2328 
Q 3647 1150 3233 529 
Q 2819 -91 2034 -91 
Q 1250 -91 836 529 
Q 422 1150 422 2328 
Q 422 3509 836 4129 
Q 1250 4750 2034 4750 
z
" transform="scale(0.015625)"/>
       </defs>
       <use xlink:href="#DejaVuSans-30"/>
      </g>
     </g>
    </g>
    <g id="xtick_2">
     <g id="line2d_2">
      <g>
       <use xlink:href="#m35d07ae6cc" x="394.278592" y="215.198437" style="stroke: #000000; stroke-width: 0.8"/>
      </g>
     </g>
     <g id="text_2">
      <!-- 1 -->
      <g transform="translate(391.097342 229.796875)scale(0.1 -0.1)">
       <defs>
        <path id="DejaVuSans-31" d="M 794 531 
L 1825 531 
L 1825 4091 
L 703 3866 
L 703 4441 
L 1819 4666 
L 2450 4666 
L 2450 531 
L 3481 531 
L 3481 0 
L 794 0 
L 794 531 
z
" transform="scale(0.015625)"/>
       </defs>
       <use xlink:href="#DejaVuSans-31"/>
      </g>
     </g>
    </g>
    <g id="xtick_3">
     <g id="line2d_3">
      <g>
       <use xlink:href="#m35d07ae6cc" x="451.574372" y="215.198437" style="stroke: #000000; stroke-width: 0.8"/>
      </g>
     </g>
     <g id="text_3">
      <!-- 2 -->
      <g transform="translate(448.393122 229.796875)scale(0.1 -0.1)">
       <defs>
        <path id="DejaVuSans-32" d="M 1228 531 
L 3431 531 
L 3431 0 
L 469 0 
L 469 531 
Q 828 903 1448 1529 
Q 2069 2156 2228 2338 
Q 2531 2678 2651 2914 
Q 2772 3150 2772 3378 
Q 2772 3750 2511 3984 
Q 2250 4219 1831 4219 
Q 1534 4219 1204 4116 
Q 875 4013 500 3803 
L 500 4441 
Q 881 4594 1212 4672 
Q 1544 4750 1819 4750 
Q 2544 4750 2975 4387 
Q 3406 4025 3406 3419 
Q 3406 3131 3298 2873 
Q 3191 2616 2906 2266 
Q 2828 2175 2409 1742 
Q 1991 1309 1228 531 
z
" transform="scale(0.015625)"/>
       </defs>
       <use xlink:href="#DejaVuSans-32"/>
      </g>
     </g>
    </g>
    <g id="xtick_4">
     <g id="line2d_4">
      <g>
       <use xlink:href="#m35d07ae6cc" x="508.870151" y="215.198437" style="stroke: #000000; stroke-width: 0.8"/>
      </g>
     </g>
     <g id="text_4">
      <!-- 3 -->
      <g transform="translate(505.688901 229.796875)scale(0.1 -0.1)">
       <defs>
        <path id="DejaVuSans-33" d="M 2597 2516 
Q 3050 2419 3304 2112 
Q 3559 1806 3559 1356 
Q 3559 666 3084 287 
Q 2609 -91 1734 -91 
Q 1441 -91 1130 -33 
Q 819 25 488 141 
L 488 750 
Q 750 597 1062 519 
Q 1375 441 1716 441 
Q 2309 441 2620 675 
Q 2931 909 2931 1356 
Q 2931 1769 2642 2001 
Q 2353 2234 1838 2234 
L 1294 2234 
L 1294 2753 
L 1863 2753 
Q 2328 2753 2575 2939 
Q 2822 3125 2822 3475 
Q 2822 3834 2567 4026 
Q 2313 4219 1838 4219 
Q 1578 4219 1281 4162 
Q 984 4106 628 3988 
L 628 4550 
Q 988 4650 1302 4700 
Q 1616 4750 1894 4750 
Q 2613 4750 3031 4423 
Q 3450 4097 3450 3541 
Q 3450 3153 3228 2886 
Q 3006 2619 2597 2516 
z
" transform="scale(0.015625)"/>
       </defs>
       <use xlink:href="#DejaVuSans-33"/>
      </g>
     </g>
    </g>
    <g id="xtick_5">
     <g id="line2d_5">
      <g>
       <use xlink:href="#m35d07ae6cc" x="566.165931" y="215.198437" style="stroke: #000000; stroke-width: 0.8"/>
      </g>
     </g>
     <g id="text_5">
      <!-- 4 -->
      <g transform="translate(562.984681 229.796875)scale(0.1 -0.1)">
       <defs>
        <path id="DejaVuSans-34" d="M 2419 4116 
L 825 1625 
L 2419 1625 
L 2419 4116 
z
M 2253 4666 
L 3047 4666 
L 3047 1625 
L 3713 1625 
L 3713 1100 
L 3047 1100 
L 3047 0 
L 2419 0 
L 2419 1100 
L 313 1100 
L 313 1709 
L 2253 4666 
z
" transform="scale(0.015625)"/>
       </defs>
       <use xlink:href="#DejaVuSans-34"/>
      </g>
     </g>
    </g>
    <g id="xtick_6">
     <g id="line2d_6">
      <g>
       <use xlink:href="#m35d07ae6cc" x="623.46171" y="215.198437" style="stroke: #000000; stroke-width: 0.8"/>
      </g>
     </g>
     <g id="text_6">
      <!-- 5 -->
      <g transform="translate(620.28046 229.796875)scale(0.1 -0.1)">
       <defs>
        <path id="DejaVuSans-35" d="M 691 4666 
L 3169 4666 
L 3169 4134 
L 1269 4134 
L 1269 2991 
Q 1406 3038 1543 3061 
Q 1681 3084 1819 3084 
Q 2600 3084 3056 2656 
Q 3513 2228 3513 1497 
Q 3513 744 3044 326 
Q 2575 -91 1722 -91 
Q 1428 -91 1123 -41 
Q 819 9 494 109 
L 494 744 
Q 775 591 1075 516 
Q 1375 441 1709 441 
Q 2250 441 2565 725 
Q 2881 1009 2881 1497 
Q 2881 1984 2565 2268 
Q 2250 2553 1709 2553 
Q 1456 2553 1204 2497 
Q 953 2441 691 2322 
L 691 4666 
z
" transform="scale(0.015625)"/>
       </defs>
       <use xlink:href="#DejaVuSans-35"/>
      </g>
     </g>
    </g>
    <g id="xtick_7">
     <g id="line2d_7">
      <g>
       <use xlink:href="#m35d07ae6cc" x="680.75749" y="215.198437" style="stroke: #000000; stroke-width: 0.8"/>
      </g>
     </g>
     <g id="text_7">
      <!-- 6 -->
      <g transform="translate(677.57624 229.796875)scale(0.1 -0.1)">
       <defs>
        <path id="DejaVuSans-36" d="M 2113 2584 
Q 1688 2584 1439 2293 
Q 1191 2003 1191 1497 
Q 1191 994 1439 701 
Q 1688 409 2113 409 
Q 2538 409 2786 701 
Q 3034 994 3034 1497 
Q 3034 2003 2786 2293 
Q 2538 2584 2113 2584 
z
M 3366 4563 
L 3366 3988 
Q 3128 4100 2886 4159 
Q 2644 4219 2406 4219 
Q 1781 4219 1451 3797 
Q 1122 3375 1075 2522 
Q 1259 2794 1537 2939 
Q 1816 3084 2150 3084 
Q 2853 3084 3261 2657 
Q 3669 2231 3669 1497 
Q 3669 778 3244 343 
Q 2819 -91 2113 -91 
Q 1303 -91 875 529 
Q 447 1150 447 2328 
Q 447 3434 972 4092 
Q 1497 4750 2381 4750 
Q 2619 4750 2861 4703 
Q 3103 4656 3366 4563 
z
" transform="scale(0.015625)"/>
       </defs>
       <use xlink:href="#DejaVuSans-36"/>
      </g>
     </g>
    </g>
    <g id="text_8">
     <!-- Time (s) -->
     <g transform="translate(496.653906 243.475)scale(0.1 -0.1)">
      <defs>
       <path id="DejaVuSans-54" d="M -19 4666 
L 3928 4666 
L 3928 4134 
L 2272 4134 
L 2272 0 
L 1638 0 
L 1638 4134 
L -19 4134 
L -19 4666 
z
" transform="scale(0.015625)"/>
       <path id="DejaVuSans-69" d="M 603 3500 
L 1178 3500 
L 1178 0 
L 603 0 
L 603 3500 
z
M 603 4863 
L 1178 4863 
L 1178 4134 
L 603 4134 
L 603 4863 
z
" transform="scale(0.015625)"/>
       <path id="DejaVuSans-6d" d="M 3328 2828 
Q 3544 3216 3844 3400 
Q 4144 3584 4550 3584 
Q 5097 3584 5394 3201 
Q 5691 2819 5691 2113 
L 5691 0 
L 5113 0 
L 5113 2094 
Q 5113 2597 4934 2840 
Q 4756 3084 4391 3084 
Q 3944 3084 3684 2787 
Q 3425 2491 3425 1978 
L 3425 0 
L 2847 0 
L 2847 2094 
Q 2847 2600 2669 2842 
Q 2491 3084 2119 3084 
Q 1678 3084 1418 2786 
Q 1159 2488 1159 1978 
L 1159 0 
L 581 0 
L 581 3500 
L 1159 3500 
L 1159 2956 
Q 1356 3278 1631 3431 
Q 1906 3584 2284 3584 
Q 2666 3584 2933 3390 
Q 3200 3197 3328 2828 
z
" transform="scale(0.015625)"/>
       <path id="DejaVuSans-65" d="M 3597 1894 
L 3597 1613 
L 953 1613 
Q 991 1019 1311 708 
Q 1631 397 2203 397 
Q 2534 397 2845 478 
Q 3156 559 3463 722 
L 3463 178 
Q 3153 47 2828 -22 
Q 2503 -91 2169 -91 
Q 1331 -91 842 396 
Q 353 884 353 1716 
Q 353 2575 817 3079 
Q 1281 3584 2069 3584 
Q 2775 3584 3186 3129 
Q 3597 2675 3597 1894 
z
M 3022 2063 
Q 3016 2534 2758 2815 
Q 2500 3097 2075 3097 
Q 1594 3097 1305 2825 
Q 1016 2553 972 2059 
L 3022 2063 
z
" transform="scale(0.015625)"/>
       <path id="DejaVuSans-20" transform="scale(0.015625)"/>
       <path id="DejaVuSans-28" d="M 1984 4856 
Q 1566 4138 1362 3434 
Q 1159 2731 1159 2009 
Q 1159 1288 1364 580 
Q 1569 -128 1984 -844 
L 1484 -844 
Q 1016 -109 783 600 
Q 550 1309 550 2009 
Q 550 2706 781 3412 
Q 1013 4119 1484 4856 
L 1984 4856 
z
" transform="scale(0.015625)"/>
       <path id="DejaVuSans-73" d="M 2834 3397 
L 2834 2853 
Q 2591 2978 2328 3040 
Q 2066 3103 1784 3103 
Q 1356 3103 1142 2972 
Q 928 2841 928 2578 
Q 928 2378 1081 2264 
Q 1234 2150 1697 2047 
L 1894 2003 
Q 2506 1872 2764 1633 
Q 3022 1394 3022 966 
Q 3022 478 2636 193 
Q 2250 -91 1575 -91 
Q 1294 -91 989 -36 
Q 684 19 347 128 
L 347 722 
Q 666 556 975 473 
Q 1284 391 1588 391 
Q 1994 391 2212 530 
Q 2431 669 2431 922 
Q 2431 1156 2273 1281 
Q 2116 1406 1581 1522 
L 1381 1569 
Q 847 1681 609 1914 
Q 372 2147 372 2553 
Q 372 3047 722 3315 
Q 1072 3584 1716 3584 
Q 2034 3584 2315 3537 
Q 2597 3491 2834 3397 
z
" transform="scale(0.015625)"/>
       <path id="DejaVuSans-29" d="M 513 4856 
L 1013 4856 
Q 1481 4119 1714 3412 
Q 1947 2706 1947 2009 
Q 1947 1309 1714 600 
Q 1481 -109 1013 -844 
L 513 -844 
Q 928 -128 1133 580 
Q 1338 1288 1338 2009 
Q 1338 2731 1133 3434 
Q 928 4138 513 4856 
z
" transform="scale(0.015625)"/>
      </defs>
      <use xlink:href="#DejaVuSans-54"/>
      <use xlink:href="#DejaVuSans-69" x="57.958984"/>
      <use xlink:href="#DejaVuSans-6d" x="85.742188"/>
      <use xlink:href="#DejaVuSans-65" x="183.154297"/>
      <use xlink:href="#DejaVuSans-20" x="244.677734"/>
      <use xlink:href="#DejaVuSans-28" x="276.464844"/>
      <use xlink:href="#DejaVuSans-73" x="315.478516"/>
      <use xlink:href="#DejaVuSans-29" x="367.578125"/>
     </g>
    </g>
   </g>
   <g id="matplotlib.axis_2">
    <g id="ytick_1">
     <g id="line2d_8">
      <defs>
       <path id="m4a248414c1" d="M 0 0 
L -3.5 0 
" style="stroke: #000000; stroke-width: 0.8"/>
      </defs>
      <g>
       <use xlink:href="#m4a248414c1" x="336.982813" y="206.362512" style="stroke: #000000; stroke-width: 0.8"/>
      </g>
     </g>
     <g id="text_9">
      <!-- −1.0 -->
      <g transform="translate(305.7 210.16173)scale(0.1 -0.1)">
       <defs>
        <path id="DejaVuSans-2212" d="M 678 2272 
L 4684 2272 
L 4684 1741 
L 678 1741 
L 678 2272 
z
" transform="scale(0.015625)"/>
        <path id="DejaVuSans-2e" d="M 684 794 
L 1344 794 
L 1344 0 
L 684 0 
L 684 794 
z
" transform="scale(0.015625)"/>
       </defs>
       <use xlink:href="#DejaVuSans-2212"/>
       <use xlink:href="#DejaVuSans-31" x="83.789062"/>
       <use xlink:href="#DejaVuSans-2e" x="147.412109"/>
       <use xlink:href="#DejaVuSans-30" x="179.199219"/>
      </g>
     </g>
    </g>
    <g id="ytick_2">
     <g id="line2d_9">
      <g>
       <use xlink:href="#m4a248414c1" x="336.982813" y="162.180584" style="stroke: #000000; stroke-width: 0.8"/>
      </g>
     </g>
     <g id="text_10">
      <!-- −0.5 -->
      <g transform="translate(305.7 165.979802)scale(0.1 -0.1)">
       <use xlink:href="#DejaVuSans-2212"/>
       <use xlink:href="#DejaVuSans-30" x="83.789062"/>
       <use xlink:href="#DejaVuSans-2e" x="147.412109"/>
       <use xlink:href="#DejaVuSans-35" x="179.199219"/>
      </g>
     </g>
    </g>
    <g id="ytick_3">
     <g id="line2d_10">
      <g>
       <use xlink:href="#m4a248414c1" x="336.982813" y="117.998655" style="stroke: #000000; stroke-width: 0.8"/>
      </g>
     </g>
     <g id="text_11">
      <!-- 0.0 -->
      <g transform="translate(314.079688 121.797874)scale(0.1 -0.1)">
       <use xlink:href="#DejaVuSans-30"/>
       <use xlink:href="#DejaVuSans-2e" x="63.623047"/>
       <use xlink:href="#DejaVuSans-30" x="95.410156"/>
      </g>
     </g>
    </g>
    <g id="ytick_4">
     <g id="line2d_11">
      <g>
       <use xlink:href="#m4a248414c1" x="336.982813" y="73.816727" style="stroke: #000000; stroke-width: 0.8"/>
      </g>
     </g>
     <g id="text_12">
      <!-- 0.5 -->
      <g transform="translate(314.079688 77.615946)scale(0.1 -0.1)">
       <use xlink:href="#DejaVuSans-30"/>
       <use xlink:href="#DejaVuSans-2e" x="63.623047"/>
       <use xlink:href="#DejaVuSans-35" x="95.410156"/>
      </g>
     </g>
    </g>
    <g id="ytick_5">
     <g id="line2d_12">
      <g>
       <use xlink:href="#m4a248414c1" x="336.982813" y="29.634799" style="stroke: #000000; stroke-width: 0.8"/>
      </g>
     </g>
     <g id="text_13">
      <!-- 1.0 -->
      <g transform="translate(314.079688 33.434018)scale(0.1 -0.1)">
       <use xlink:href="#DejaVuSans-31"/>
       <use xlink:href="#DejaVuSans-2e" x="63.623047"/>
       <use xlink:href="#DejaVuSans-30" x="95.410156"/>
      </g>
     </g>
    </g>
    <g id="text_14">
     <!-- Activation (a.u.) -->
     <g transform="translate(299.620313 157.932031)rotate(-90)scale(0.1 -0.1)">
      <defs>
       <path id="DejaVuSans-41" d="M 2188 4044 
L 1331 1722 
L 3047 1722 
L 2188 4044 
z
M 1831 4666 
L 2547 4666 
L 4325 0 
L 3669 0 
L 3244 1197 
L 1141 1197 
L 716 0 
L 50 0 
L 1831 4666 
z
" transform="scale(0.015625)"/>
       <path id="DejaVuSans-63" d="M 3122 3366 
L 3122 2828 
Q 2878 2963 2633 3030 
Q 2388 3097 2138 3097 
Q 1578 3097 1268 2742 
Q 959 2388 959 1747 
Q 959 1106 1268 751 
Q 1578 397 2138 397 
Q 2388 397 2633 464 
Q 2878 531 3122 666 
L 3122 134 
Q 2881 22 2623 -34 
Q 2366 -91 2075 -91 
Q 1284 -91 818 406 
Q 353 903 353 1747 
Q 353 2603 823 3093 
Q 1294 3584 2113 3584 
Q 2378 3584 2631 3529 
Q 2884 3475 3122 3366 
z
" transform="scale(0.015625)"/>
       <path id="DejaVuSans-74" d="M 1172 4494 
L 1172 3500 
L 2356 3500 
L 2356 3053 
L 1172 3053 
L 1172 1153 
Q 1172 725 1289 603 
Q 1406 481 1766 481 
L 2356 481 
L 2356 0 
L 1766 0 
Q 1100 0 847 248 
Q 594 497 594 1153 
L 594 3053 
L 172 3053 
L 172 3500 
L 594 3500 
L 594 4494 
L 1172 4494 
z
" transform="scale(0.015625)"/>
       <path id="DejaVuSans-76" d="M 191 3500 
L 800 3500 
L 1894 563 
L 2988 3500 
L 3597 3500 
L 2284 0 
L 1503 0 
L 191 3500 
z
" transform="scale(0.015625)"/>
       <path id="DejaVuSans-61" d="M 2194 1759 
Q 1497 1759 1228 1600 
Q 959 1441 959 1056 
Q 959 750 1161 570 
Q 1363 391 1709 391 
Q 2188 391 2477 730 
Q 2766 1069 2766 1631 
L 2766 1759 
L 2194 1759 
z
M 3341 1997 
L 3341 0 
L 2766 0 
L 2766 531 
Q 2569 213 2275 61 
Q 1981 -91 1556 -91 
Q 1019 -91 701 211 
Q 384 513 384 1019 
Q 384 1609 779 1909 
Q 1175 2209 1959 2209 
L 2766 2209 
L 2766 2266 
Q 2766 2663 2505 2880 
Q 2244 3097 1772 3097 
Q 1472 3097 1187 3025 
Q 903 2953 641 2809 
L 641 3341 
Q 956 3463 1253 3523 
Q 1550 3584 1831 3584 
Q 2591 3584 2966 3190 
Q 3341 2797 3341 1997 
z
" transform="scale(0.015625)"/>
       <path id="DejaVuSans-6f" d="M 1959 3097 
Q 1497 3097 1228 2736 
Q 959 2375 959 1747 
Q 959 1119 1226 758 
Q 1494 397 1959 397 
Q 2419 397 2687 759 
Q 2956 1122 2956 1747 
Q 2956 2369 2687 2733 
Q 2419 3097 1959 3097 
z
M 1959 3584 
Q 2709 3584 3137 3096 
Q 3566 2609 3566 1747 
Q 3566 888 3137 398 
Q 2709 -91 1959 -91 
Q 1206 -91 779 398 
Q 353 888 353 1747 
Q 353 2609 779 3096 
Q 1206 3584 1959 3584 
z
" transform="scale(0.015625)"/>
       <path id="DejaVuSans-6e" d="M 3513 2113 
L 3513 0 
L 2938 0 
L 2938 2094 
Q 2938 2591 2744 2837 
Q 2550 3084 2163 3084 
Q 1697 3084 1428 2787 
Q 1159 2491 1159 1978 
L 1159 0 
L 581 0 
L 581 3500 
L 1159 3500 
L 1159 2956 
Q 1366 3272 1645 3428 
Q 1925 3584 2291 3584 
Q 2894 3584 3203 3211 
Q 3513 2838 3513 2113 
z
" transform="scale(0.015625)"/>
       <path id="DejaVuSans-75" d="M 544 1381 
L 544 3500 
L 1119 3500 
L 1119 1403 
Q 1119 906 1312 657 
Q 1506 409 1894 409 
Q 2359 409 2629 706 
Q 2900 1003 2900 1516 
L 2900 3500 
L 3475 3500 
L 3475 0 
L 2900 0 
L 2900 538 
Q 2691 219 2414 64 
Q 2138 -91 1772 -91 
Q 1169 -91 856 284 
Q 544 659 544 1381 
z
M 1991 3584 
L 1991 3584 
z
" transform="scale(0.015625)"/>
      </defs>
      <use xlink:href="#DejaVuSans-41"/>
      <use xlink:href="#DejaVuSans-63" x="66.658203"/>
      <use xlink:href="#DejaVuSans-74" x="121.638672"/>
      <use xlink:href="#DejaVuSans-69" x="160.847656"/>
      <use xlink:href="#DejaVuSans-76" x="188.630859"/>
      <use xlink:href="#DejaVuSans-61" x="247.810547"/>
      <use xlink:href="#DejaVuSans-74" x="309.089844"/>
      <use xlink:href="#DejaVuSans-69" x="348.298828"/>
      <use xlink:href="#DejaVuSans-6f" x="376.082031"/>
      <use xlink:href="#DejaVuSans-6e" x="437.263672"/>
      <use xlink:href="#DejaVuSans-20" x="500.642578"/>
      <use xlink:href="#DejaVuSans-28" x="532.429688"/>
      <use xlink:href="#DejaVuSans-61" x="571.443359"/>
      <use xlink:href="#DejaVuSans-2e" x="632.722656"/>
      <use xlink:href="#DejaVuSans-75" x="664.509766"/>
      <use xlink:href="#DejaVuSans-2e" x="727.888672"/>
      <use xlink:href="#DejaVuSans-29" x="759.675781"/>
     </g>
    </g>
   </g>
   <g id="line2d_13">
    <path d="M 336.982813 117.998655 
L 350.690227 97.059614 
L 357.904656 86.444441 
L 363.676199 78.304208 
L 368.726299 71.508906 
L 373.7764 65.07454 
L 378.105057 59.884596 
L 382.433714 55.026192 
L 386.762372 50.527045 
L 390.369586 47.070771 
L 393.9768 43.89554 
L 397.584015 41.013933 
L 401.191229 38.437368 
L 404.798444 36.176054 
L 407.684215 34.600049 
L 410.569987 33.23556 
L 413.455758 32.086049 
L 416.34153 31.154432 
L 419.227301 30.44307 
L 422.113073 29.953769 
L 424.998845 29.687768 
L 427.884616 29.645744 
L 430.770388 29.827802 
L 433.656159 30.23348 
L 436.541931 30.861751 
L 439.427702 31.711019 
L 442.313474 32.779132 
L 445.199245 34.063381 
L 448.085017 35.560507 
L 450.970788 37.266715 
L 454.578003 39.686853 
L 458.185217 42.417292 
L 461.792432 45.447212 
L 465.399646 48.764608 
L 469.006861 52.356335 
L 473.335518 57.008413 
L 477.664175 62.008439 
L 481.992833 67.327889 
L 487.042933 73.897049 
L 492.814476 81.820822 
L 499.307462 91.16934 
L 507.243334 103.050272 
L 520.229305 123.002849 
L 531.050949 139.477753 
L 538.265378 150.071881 
L 544.036921 158.189341 
L 549.087021 164.960581 
L 554.137121 171.367219 
L 558.465778 176.53064 
L 562.794436 181.360137 
L 567.123093 185.828158 
L 570.730307 189.256926 
L 574.337522 192.403342 
L 577.944736 195.254939 
L 581.551951 197.800418 
L 585.159165 200.029693 
L 588.044937 201.579467 
L 590.930708 202.917261 
L 593.81648 204.039683 
L 596.702251 204.943887 
L 599.588023 205.627578 
L 602.473794 206.089023 
L 605.359566 206.327052 
L 608.245338 206.34106 
L 611.131109 206.131013 
L 614.016881 205.697442 
L 616.902652 205.041448 
L 619.788424 204.164695 
L 622.674195 203.069406 
L 625.559967 201.758358 
L 628.445738 200.234878 
L 631.33151 198.502828 
L 634.938724 196.051208 
L 638.545939 193.290314 
L 642.153153 190.231087 
L 645.760368 186.885648 
L 649.367582 183.267253 
L 653.696239 178.585138 
L 658.024897 173.557377 
L 662.353554 168.212655 
L 667.403654 161.617313 
L 673.175197 153.668219 
L 679.668183 144.297386 
L 687.604055 132.398445 
L 696.982813 117.998655 
L 696.982813 117.998655 
" clip-path="url(#pd193c5a826)" style="fill: none; stroke: #101820; stroke-width: 3; stroke-linecap: square"/>
   </g>
   <g id="line2d_14">
    <path d="M 336.982813 109.17699 
L 346.36157 94.967061 
L 353.575999 84.435966 
L 359.347542 76.385974 
L 364.397642 69.685622 
L 369.447742 63.360361 
L 373.7764 58.274564 
L 378.105057 53.529492 
L 382.433714 49.152215 
L 386.040929 45.803522 
L 389.648143 42.740894 
L 393.255358 39.976464 
L 396.862572 37.521187 
L 400.469786 35.384792 
L 403.355558 33.911003 
L 406.24133 32.650478 
L 409.127101 31.606415 
L 412.012873 30.781462 
L 414.898644 30.177711 
L 417.784416 29.796693 
L 420.670187 29.639374 
L 423.555959 29.706154 
L 426.44173 29.996863 
L 429.327502 30.510764 
L 432.213273 31.246554 
L 435.099045 32.202365 
L 437.984817 33.375775 
L 440.870588 34.763808 
L 443.75636 36.362942 
L 447.363574 38.652492 
L 450.970788 41.256442 
L 454.578003 44.164473 
L 458.185217 47.365062 
L 461.792432 50.845528 
L 466.121089 55.372031 
L 470.449746 60.255819 
L 474.778404 65.469028 
L 479.828504 71.927684 
L 484.878604 78.744026 
L 490.650147 86.904114 
L 497.864576 97.537532 
L 507.243334 111.819472 
L 526.000849 140.492707 
L 533.215277 151.046055 
L 538.986821 159.119745 
L 544.036921 165.844931 
L 549.087021 172.198649 
L 553.415678 177.311556 
L 557.744336 182.086084 
L 562.072993 186.494994 
L 565.680207 189.871582 
L 569.287422 192.963382 
L 572.894636 195.758144 
L 576.501851 198.244795 
L 580.109065 200.41348 
L 582.994837 201.913676 
L 585.880608 203.201044 
L 588.76638 204.272321 
L 591.652151 205.124789 
L 594.537923 205.756286 
L 597.423694 206.16521 
L 600.309466 206.350524 
L 603.195237 206.311759 
L 606.081009 206.049013 
L 608.96678 205.562951 
L 611.852552 204.854807 
L 614.738324 203.926377 
L 617.624095 202.780015 
L 620.509867 201.418629 
L 623.395638 199.845672 
L 627.002853 197.588081 
L 630.610067 195.015127 
L 634.217281 192.137006 
L 637.824496 188.96512 
L 641.43171 185.512039 
L 645.760368 181.016504 
L 650.089025 176.161453 
L 654.417682 170.974585 
L 659.467782 164.543432 
L 664.517883 157.750915 
L 670.289426 149.613315 
L 676.782412 140.07963 
L 685.439726 126.949106 
L 696.982813 109.17699 
L 696.982813 109.17699 
" clip-path="url(#pd193c5a826)" style="fill: none; stroke: #1b362c; stroke-width: 3; stroke-linecap: square"/>
   </g>
   <g id="line2d_15">
    <path d="M 336.982813 100.443467 
L 344.918684 88.65485 
L 351.41167 79.417795 
L 357.183213 71.619033 
L 362.233314 65.178252 
L 366.561971 59.982167 
L 370.890628 55.117065 
L 375.219285 50.610701 
L 378.8265 47.148047 
L 382.433714 43.966129 
L 386.040929 41.077556 
L 389.648143 38.493773 
L 393.255358 36.225017 
L 396.141129 34.642917 
L 399.026901 33.272225 
L 401.912672 32.116418 
L 404.798444 31.178427 
L 407.684215 30.460632 
L 410.569987 29.964851 
L 413.455758 29.692344 
L 416.34153 29.643802 
L 419.227301 29.819346 
L 422.113073 30.218532 
L 424.998845 30.840349 
L 427.884616 31.683217 
L 430.770388 32.745001 
L 433.656159 34.023007 
L 436.541931 35.513993 
L 439.427702 37.214178 
L 443.034917 39.626978 
L 446.642131 42.350315 
L 450.249346 45.373399 
L 453.85656 48.684251 
L 457.463774 52.269753 
L 461.792432 56.914815 
L 466.121089 61.90836 
L 470.449746 67.221899 
L 475.499847 73.78493 
L 481.27139 81.702766 
L 487.764376 91.046038 
L 495.700247 102.922713 
L 508.686219 122.87361 
L 519.507863 139.352172 
L 526.722291 149.951234 
L 532.493835 158.074021 
L 537.543935 164.850884 
L 542.594035 171.263996 
L 546.922692 176.433606 
L 551.25135 181.269847 
L 555.580007 185.745126 
L 559.187221 189.180306 
L 562.794436 192.333437 
L 566.40165 195.192027 
L 570.008865 197.744748 
L 573.616079 199.981485 
L 576.501851 201.537368 
L 579.387622 202.881378 
L 582.273394 204.010107 
L 585.159165 204.920693 
L 588.044937 205.610824 
L 590.930708 206.078752 
L 593.81648 206.32329 
L 596.702251 206.343817 
L 599.588023 206.140282 
L 602.473794 205.713199 
L 605.359566 205.063654 
L 608.245338 204.193292 
L 611.131109 203.104322 
L 614.016881 201.799506 
L 616.902652 200.282152 
L 619.788424 198.556109 
L 623.395638 196.111805 
L 627.002853 193.357988 
L 630.610067 190.305569 
L 634.217281 186.966643 
L 637.824496 183.35444 
L 642.153153 178.679297 
L 646.48181 173.657972 
L 650.810468 168.319111 
L 655.860568 161.729837 
L 661.632111 153.786607 
L 668.125097 144.420933 
L 676.060969 132.52614 
L 689.768384 111.458253 
L 696.982813 100.443467 
L 696.982813 100.443467 
" clip-path="url(#pd193c5a826)" style="fill: none; stroke: #2f553d; stroke-width: 3; stroke-linecap: square"/>
   </g>
   <g id="line2d_16">
    <path d="M 336.982813 91.88535 
L 343.475798 82.506816 
L 349.247342 74.54896 
L 354.297442 67.944542 
L 359.347542 61.728732 
L 363.676199 56.746867 
L 368.004857 52.114443 
L 371.612071 48.540153 
L 375.219285 45.241084 
L 378.8265 42.230307 
L 382.433714 39.519752 
L 386.040929 37.12016 
L 389.648143 35.041039 
L 392.533915 33.61406 
L 395.419686 32.401099 
L 398.305458 31.405232 
L 401.191229 30.628986 
L 404.077001 30.074328 
L 406.962772 29.742665 
L 409.848544 29.634839 
L 412.734316 29.751123 
L 415.620087 30.091222 
L 418.505859 30.654273 
L 421.39163 31.43885 
L 424.277402 32.44296 
L 427.163173 33.664059 
L 430.048945 35.099049 
L 432.934716 36.74429 
L 436.541931 39.090101 
L 440.149145 41.748578 
L 443.75636 44.709185 
L 447.363574 47.960193 
L 450.970788 51.488718 
L 455.299446 56.069514 
L 459.628103 61.003614 
L 463.95676 66.262871 
L 469.006861 72.769507 
L 474.056961 79.627293 
L 479.828504 87.826332 
L 487.042933 98.495255 
L 496.42169 112.800625 
L 513.73632 139.289364 
L 520.950748 149.890885 
L 526.722291 158.016329 
L 531.772392 164.795997 
L 536.822492 171.212341 
L 541.151149 176.385043 
L 545.479806 181.22465 
L 549.808464 185.703555 
L 553.415678 189.141938 
L 557.022893 192.298425 
L 560.630107 195.160509 
L 564.237322 197.716849 
L 567.844536 199.957315 
L 570.730307 201.516251 
L 573.616079 202.863368 
L 576.501851 203.99525 
L 579.387622 204.909025 
L 582.273394 205.602377 
L 585.159165 206.073546 
L 588.044937 206.321338 
L 590.930708 206.345125 
L 593.81648 206.144845 
L 596.702251 205.721007 
L 599.588023 205.074686 
L 602.473794 204.207522 
L 605.359566 203.121712 
L 608.245338 201.820012 
L 611.131109 200.305723 
L 614.016881 198.582684 
L 617.624095 196.142041 
L 621.231309 193.391764 
L 624.838524 190.342751 
L 628.445738 187.007084 
L 632.052953 183.397981 
L 636.38161 178.726328 
L 640.710267 173.708224 
L 645.038925 168.372298 
L 650.089025 161.786064 
L 655.860568 153.845772 
L 662.353554 144.482685 
L 670.289426 132.589976 
L 683.996841 111.522798 
L 694.097041 96.168443 
L 696.982813 91.88535 
L 696.982813 91.88535 
" clip-path="url(#pd193c5a826)" style="fill: none; stroke: #4f7553; stroke-width: 3; stroke-linecap: square"/>
   </g>
   <g id="line2d_17">
    <path d="M 336.982813 83.588149 
L 342.754356 75.57798 
L 347.804456 68.919209 
L 352.854556 62.64148 
L 357.183213 57.600881 
L 361.511871 52.904851 
L 365.840528 48.580179 
L 369.447742 45.277831 
L 373.054957 42.263629 
L 376.662171 39.549518 
L 380.269386 37.146251 
L 383.8766 35.063351 
L 386.762372 33.633286 
L 389.648143 32.417189 
L 392.533915 31.418146 
L 395.419686 30.63869 
L 398.305458 30.080799 
L 401.191229 29.745886 
L 404.077001 29.634801 
L 406.962772 29.747827 
L 409.848544 30.084676 
L 412.734316 30.644494 
L 415.620087 31.425862 
L 418.505859 32.426797 
L 421.39163 33.644761 
L 424.277402 35.076665 
L 427.163173 36.718878 
L 430.770388 39.060994 
L 434.377602 41.715891 
L 437.984817 44.673049 
L 441.592031 47.92075 
L 445.199245 51.446125 
L 449.527903 56.023365 
L 453.85656 60.954172 
L 458.185217 66.210417 
L 463.235318 72.713919 
L 468.285418 79.569003 
L 474.056961 87.76551 
L 481.27139 98.432136 
L 490.650147 112.736018 
L 507.964776 139.226544 
L 515.179205 149.830518 
L 520.950748 157.958615 
L 526.000849 164.741086 
L 531.050949 171.160658 
L 535.379606 176.336447 
L 539.708263 181.17942 
L 544.036921 185.661948 
L 547.644135 189.103532 
L 551.25135 192.263373 
L 554.858564 195.128949 
L 558.465778 197.688907 
L 562.072993 199.933102 
L 564.958764 201.49509 
L 567.844536 202.845313 
L 570.730307 203.980347 
L 573.616079 204.897312 
L 576.501851 205.593883 
L 579.387622 206.068293 
L 582.273394 206.319339 
L 585.159165 206.346385 
L 588.044937 206.149361 
L 590.930708 205.728768 
L 593.81648 205.085672 
L 596.702251 204.221705 
L 599.588023 203.139057 
L 602.473794 201.840474 
L 605.359566 200.329249 
L 608.245338 198.609217 
L 611.852552 196.172234 
L 615.459766 193.425499 
L 619.066981 190.379895 
L 622.674195 187.047489 
L 626.28141 183.441486 
L 630.610067 178.773326 
L 634.938724 173.758447 
L 639.267382 168.425459 
L 644.317482 161.842267 
L 650.089025 153.904918 
L 656.582011 144.544423 
L 664.517883 132.653804 
L 678.225297 111.587346 
L 688.325498 96.231163 
L 695.539927 85.648458 
L 696.982813 83.588149 
L 696.982813 83.588149 
" clip-path="url(#pd193c5a826)" style="fill: none; stroke: #79936f; stroke-width: 3; stroke-linecap: square"/>
   </g>
   <g id="line2d_18">
    <path d="M 336.982813 75.634766 
L 342.032913 68.973041 
L 347.083013 62.691941 
L 351.41167 57.648139 
L 355.740328 52.948636 
L 360.068985 48.620243 
L 363.676199 45.314617 
L 367.283414 42.296992 
L 370.890628 39.579325 
L 374.497843 37.172385 
L 378.105057 35.085708 
L 380.990829 33.652557 
L 383.8766 32.433325 
L 386.762372 31.431106 
L 389.648143 30.648442 
L 392.533915 30.087316 
L 395.419686 29.749154 
L 398.305458 29.634811 
L 401.191229 29.744578 
L 404.077001 30.078177 
L 406.962772 30.634762 
L 409.848544 31.41292 
L 412.734316 32.410679 
L 415.620087 33.625508 
L 418.505859 35.054326 
L 421.39163 36.693509 
L 424.998845 39.031929 
L 428.606059 41.683246 
L 432.213273 44.636952 
L 435.820488 47.881345 
L 439.427702 51.403568 
L 443.75636 55.977248 
L 448.085017 60.90476 
L 452.413674 66.157991 
L 457.463774 72.658356 
L 462.513875 79.510734 
L 468.285418 87.704704 
L 475.499847 98.369028 
L 484.878604 112.671414 
L 502.193233 139.163714 
L 509.407662 149.770134 
L 515.179205 157.90088 
L 520.229305 164.686149 
L 525.279406 171.108947 
L 529.608063 176.287821 
L 533.93672 181.134156 
L 538.265378 185.620304 
L 541.872592 189.065088 
L 545.479806 192.228281 
L 549.087021 195.097348 
L 552.694235 197.660922 
L 556.30145 199.908844 
L 559.187221 201.473884 
L 562.072993 202.827212 
L 564.958764 203.965397 
L 567.844536 204.885551 
L 570.730307 205.585341 
L 573.616079 206.062992 
L 576.501851 206.317293 
L 579.387622 206.347598 
L 582.273394 206.15383 
L 585.159165 205.736482 
L 588.044937 205.096612 
L 590.930708 204.235842 
L 593.81648 203.156355 
L 596.702251 201.86089 
L 599.588023 200.352732 
L 602.473794 198.635706 
L 606.081009 196.202386 
L 609.688223 193.459194 
L 613.295438 190.417 
L 616.902652 187.087857 
L 620.509867 183.484957 
L 624.838524 178.820291 
L 629.167181 173.808639 
L 633.495839 168.478592 
L 638.545939 161.898447 
L 644.317482 153.964045 
L 650.810468 144.606147 
L 658.74634 132.717624 
L 672.453754 111.651897 
L 683.275398 95.217093 
L 690.489827 84.67559 
L 696.26137 76.61453 
L 696.982813 75.634766 
L 696.982813 75.634766 
" clip-path="url(#pd193c5a826)" style="fill: none; stroke: #aeae92; stroke-width: 3; stroke-linecap: square"/>
   </g>
   <g id="patch_3">
    <path d="M 336.982813 215.198438 
L 336.982813 20.798437 
" style="fill: none; stroke: #000000; stroke-width: 0.8; stroke-linejoin: miter; stroke-linecap: square"/>
   </g>
   <g id="patch_4">
    <path d="M 696.982813 215.198438 
L 696.982813 20.798437 
" style="fill: none; stroke: #000000; stroke-width: 0.8; stroke-linejoin: miter; stroke-linecap: square"/>
   </g>
   <g id="patch_5">
    <path d="M 336.982813 215.198437 
L 696.982813 215.198437 
" style="fill: none; stroke: #000000; stroke-width: 0.8; stroke-linejoin: miter; stroke-linecap: square"/>
   </g>
   <g id="patch_6">
    <path d="M 336.982813 20.798438 
L 696.982813 20.798438 
" style="fill: none; stroke: #000000; stroke-width: 0.8; stroke-linejoin: miter; stroke-linecap: square"/>
   </g>
   <g id="text_15">
    <!-- e -->
    <g transform="translate(292.186875 17.886875)scale(0.14 -0.14)">
     <defs>
      <path id="DejaVuSans-Bold-65" d="M 4031 1759 
L 4031 1441 
L 1416 1441 
Q 1456 1047 1700 850 
Q 1944 653 2381 653 
Q 2734 653 3104 758 
Q 3475 863 3866 1075 
L 3866 213 
Q 3469 63 3072 -14 
Q 2675 -91 2278 -91 
Q 1328 -91 801 392 
Q 275 875 275 1747 
Q 275 2603 792 3093 
Q 1309 3584 2216 3584 
Q 3041 3584 3536 3087 
Q 4031 2591 4031 1759 
z
M 2881 2131 
Q 2881 2450 2695 2645 
Q 2509 2841 2209 2841 
Q 1884 2841 1681 2658 
Q 1478 2475 1428 2131 
L 2881 2131 
z
" transform="scale(0.015625)"/>
     </defs>
     <use xlink:href="#DejaVuSans-Bold-65"/>
    </g>
   </g>
   <g id="text_16">
    <!-- Some sine waves -->
    <g transform="translate(468.603125 14.798438)scale(0.1 -0.1)">
     <defs>
      <path id="DejaVuSans-Bold-53" d="M 3834 4519 
L 3834 3531 
Q 3450 3703 3084 3790 
Q 2719 3878 2394 3878 
Q 1963 3878 1756 3759 
Q 1550 3641 1550 3391 
Q 1550 3203 1689 3098 
Q 1828 2994 2194 2919 
L 2706 2816 
Q 3484 2659 3812 2340 
Q 4141 2022 4141 1434 
Q 4141 663 3683 286 
Q 3225 -91 2284 -91 
Q 1841 -91 1394 -6 
Q 947 78 500 244 
L 500 1259 
Q 947 1022 1364 901 
Q 1781 781 2169 781 
Q 2563 781 2772 912 
Q 2981 1044 2981 1288 
Q 2981 1506 2839 1625 
Q 2697 1744 2272 1838 
L 1806 1941 
Q 1106 2091 782 2419 
Q 459 2747 459 3303 
Q 459 4000 909 4375 
Q 1359 4750 2203 4750 
Q 2588 4750 2994 4692 
Q 3400 4634 3834 4519 
z
" transform="scale(0.015625)"/>
      <path id="DejaVuSans-Bold-6f" d="M 2203 2784 
Q 1831 2784 1636 2517 
Q 1441 2250 1441 1747 
Q 1441 1244 1636 976 
Q 1831 709 2203 709 
Q 2569 709 2762 976 
Q 2956 1244 2956 1747 
Q 2956 2250 2762 2517 
Q 2569 2784 2203 2784 
z
M 2203 3584 
Q 3106 3584 3614 3096 
Q 4122 2609 4122 1747 
Q 4122 884 3614 396 
Q 3106 -91 2203 -91 
Q 1297 -91 786 396 
Q 275 884 275 1747 
Q 275 2609 786 3096 
Q 1297 3584 2203 3584 
z
" transform="scale(0.015625)"/>
      <path id="DejaVuSans-Bold-6d" d="M 3781 2919 
Q 3994 3244 4286 3414 
Q 4578 3584 4928 3584 
Q 5531 3584 5847 3212 
Q 6163 2841 6163 2131 
L 6163 0 
L 5038 0 
L 5038 1825 
Q 5041 1866 5042 1909 
Q 5044 1953 5044 2034 
Q 5044 2406 4934 2573 
Q 4825 2741 4581 2741 
Q 4263 2741 4089 2478 
Q 3916 2216 3909 1719 
L 3909 0 
L 2784 0 
L 2784 1825 
Q 2784 2406 2684 2573 
Q 2584 2741 2328 2741 
Q 2006 2741 1831 2477 
Q 1656 2213 1656 1722 
L 1656 0 
L 531 0 
L 531 3500 
L 1656 3500 
L 1656 2988 
Q 1863 3284 2130 3434 
Q 2397 3584 2719 3584 
Q 3081 3584 3359 3409 
Q 3638 3234 3781 2919 
z
" transform="scale(0.015625)"/>
      <path id="DejaVuSans-Bold-20" transform="scale(0.015625)"/>
      <path id="DejaVuSans-Bold-73" d="M 3272 3391 
L 3272 2541 
Q 2913 2691 2578 2766 
Q 2244 2841 1947 2841 
Q 1628 2841 1473 2761 
Q 1319 2681 1319 2516 
Q 1319 2381 1436 2309 
Q 1553 2238 1856 2203 
L 2053 2175 
Q 2913 2066 3209 1816 
Q 3506 1566 3506 1031 
Q 3506 472 3093 190 
Q 2681 -91 1863 -91 
Q 1516 -91 1145 -36 
Q 775 19 384 128 
L 384 978 
Q 719 816 1070 734 
Q 1422 653 1784 653 
Q 2113 653 2278 743 
Q 2444 834 2444 1013 
Q 2444 1163 2330 1236 
Q 2216 1309 1875 1350 
L 1678 1375 
Q 931 1469 631 1722 
Q 331 1975 331 2491 
Q 331 3047 712 3315 
Q 1094 3584 1881 3584 
Q 2191 3584 2531 3537 
Q 2872 3491 3272 3391 
z
" transform="scale(0.015625)"/>
      <path id="DejaVuSans-Bold-69" d="M 538 3500 
L 1656 3500 
L 1656 0 
L 538 0 
L 538 3500 
z
M 538 4863 
L 1656 4863 
L 1656 3950 
L 538 3950 
L 538 4863 
z
" transform="scale(0.015625)"/>
      <path id="DejaVuSans-Bold-6e" d="M 4056 2131 
L 4056 0 
L 2931 0 
L 2931 347 
L 2931 1631 
Q 2931 2084 2911 2256 
Q 2891 2428 2841 2509 
Q 2775 2619 2662 2680 
Q 2550 2741 2406 2741 
Q 2056 2741 1856 2470 
Q 1656 2200 1656 1722 
L 1656 0 
L 538 0 
L 538 3500 
L 1656 3500 
L 1656 2988 
Q 1909 3294 2193 3439 
Q 2478 3584 2822 3584 
Q 3428 3584 3742 3212 
Q 4056 2841 4056 2131 
z
" transform="scale(0.015625)"/>
      <path id="DejaVuSans-Bold-77" d="M 225 3500 
L 1313 3500 
L 1900 1088 
L 2491 3500 
L 3425 3500 
L 4013 1113 
L 4603 3500 
L 5691 3500 
L 4769 0 
L 3547 0 
L 2956 2406 
L 2369 0 
L 1147 0 
L 225 3500 
z
" transform="scale(0.015625)"/>
      <path id="DejaVuSans-Bold-61" d="M 2106 1575 
Q 1756 1575 1579 1456 
Q 1403 1338 1403 1106 
Q 1403 894 1545 773 
Q 1688 653 1941 653 
Q 2256 653 2472 879 
Q 2688 1106 2688 1447 
L 2688 1575 
L 2106 1575 
z
M 3816 1997 
L 3816 0 
L 2688 0 
L 2688 519 
Q 2463 200 2181 54 
Q 1900 -91 1497 -91 
Q 953 -91 614 226 
Q 275 544 275 1050 
Q 275 1666 698 1953 
Q 1122 2241 2028 2241 
L 2688 2241 
L 2688 2328 
Q 2688 2594 2478 2717 
Q 2269 2841 1825 2841 
Q 1466 2841 1156 2769 
Q 847 2697 581 2553 
L 581 3406 
Q 941 3494 1303 3539 
Q 1666 3584 2028 3584 
Q 2975 3584 3395 3211 
Q 3816 2838 3816 1997 
z
" transform="scale(0.015625)"/>
      <path id="DejaVuSans-Bold-76" d="M 97 3500 
L 1216 3500 
L 2088 1081 
L 2956 3500 
L 4078 3500 
L 2700 0 
L 1472 0 
L 97 3500 
z
" transform="scale(0.015625)"/>
     </defs>
     <use xlink:href="#DejaVuSans-Bold-53"/>
     <use xlink:href="#DejaVuSans-Bold-6f" x="72.021484"/>
     <use xlink:href="#DejaVuSans-Bold-6d" x="140.722656"/>
     <use xlink:href="#DejaVuSans-Bold-65" x="244.921875"/>
     <use xlink:href="#DejaVuSans-Bold-20" x="312.744141"/>
     <use xlink:href="#DejaVuSans-Bold-73" x="347.558594"/>
     <use xlink:href="#DejaVuSans-Bold-69" x="407.080078"/>
     <use xlink:href="#DejaVuSans-Bold-6e" x="441.357422"/>
     <use xlink:href="#DejaVuSans-Bold-65" x="512.548828"/>
     <use xlink:href="#DejaVuSans-Bold-20" x="580.371094"/>
     <use xlink:href="#DejaVuSans-Bold-77" x="615.185547"/>
     <use xlink:href="#DejaVuSans-Bold-61" x="707.568359"/>
     <use xlink:href="#DejaVuSans-Bold-76" x="775.048828"/>
     <use xlink:href="#DejaVuSans-Bold-65" x="840.234375"/>
     <use xlink:href="#DejaVuSans-Bold-73" x="908.056641"/>
    </g>
   </g>
   <g id="patch_7">
    <path d="M 407.106164 66.958661 
L 393.851006 71.574741 
L 394.136063 67.178475 
L 279.544504 49.505703 
L 279.829562 45.109437 
L 394.421121 62.782208 
L 394.706178 58.385942 
z
" style="fill: #bf00bf; stroke: #000000; stroke-linejoin: miter"/>
   </g>
  </g>
  <g id="axes_2">
   <g id="patch_8">
    <path d="M 48.982813 95.567668 
L 147.164631 95.567668 
L 147.164631 20.798438 
L 48.982813 20.798438 
z
" style="fill: #ffffff"/>
   </g>
   <g id="matplotlib.axis_3">
    <g id="xtick_8">
     <g id="line2d_19">
      <g>
       <use xlink:href="#m35d07ae6cc" x="53.445622" y="95.567668" style="stroke: #000000; stroke-width: 0.8"/>
      </g>
     </g>
     <g id="text_17">
      <!-- 0 -->
      <g transform="translate(50.264372 110.166106)scale(0.1 -0.1)">
       <use xlink:href="#DejaVuSans-30"/>
      </g>
     </g>
    </g>
    <g id="xtick_9">
     <g id="line2d_20">
      <g>
       <use xlink:href="#m35d07ae6cc" x="89.21965" y="95.567668" style="stroke: #000000; stroke-width: 0.8"/>
      </g>
     </g>
     <g id="text_18">
      <!-- 200 -->
      <g transform="translate(79.6759 110.166106)scale(0.1 -0.1)">
       <use xlink:href="#DejaVuSans-32"/>
       <use xlink:href="#DejaVuSans-30" x="63.623047"/>
       <use xlink:href="#DejaVuSans-30" x="127.246094"/>
      </g>
     </g>
    </g>
    <g id="xtick_10">
     <g id="line2d_21">
      <g>
       <use xlink:href="#m35d07ae6cc" x="124.993677" y="95.567668" style="stroke: #000000; stroke-width: 0.8"/>
      </g>
     </g>
     <g id="text_19">
      <!-- 400 -->
      <g transform="translate(115.449927 110.166106)scale(0.1 -0.1)">
       <use xlink:href="#DejaVuSans-34"/>
       <use xlink:href="#DejaVuSans-30" x="63.623047"/>
       <use xlink:href="#DejaVuSans-30" x="127.246094"/>
      </g>
     </g>
    </g>
    <g id="text_20">
     <!-- Iteration -->
     <g transform="translate(76.865128 123.844231)scale(0.1 -0.1)">
      <defs>
       <path id="DejaVuSans-49" d="M 628 4666 
L 1259 4666 
L 1259 0 
L 628 0 
L 628 4666 
z
" transform="scale(0.015625)"/>
       <path id="DejaVuSans-72" d="M 2631 2963 
Q 2534 3019 2420 3045 
Q 2306 3072 2169 3072 
Q 1681 3072 1420 2755 
Q 1159 2438 1159 1844 
L 1159 0 
L 581 0 
L 581 3500 
L 1159 3500 
L 1159 2956 
Q 1341 3275 1631 3429 
Q 1922 3584 2338 3584 
Q 2397 3584 2469 3576 
Q 2541 3569 2628 3553 
L 2631 2963 
z
" transform="scale(0.015625)"/>
      </defs>
      <use xlink:href="#DejaVuSans-49"/>
      <use xlink:href="#DejaVuSans-74" x="29.492188"/>
      <use xlink:href="#DejaVuSans-65" x="68.701172"/>
      <use xlink:href="#DejaVuSans-72" x="130.224609"/>
      <use xlink:href="#DejaVuSans-61" x="171.337891"/>
      <use xlink:href="#DejaVuSans-74" x="232.617188"/>
      <use xlink:href="#DejaVuSans-69" x="271.826172"/>
      <use xlink:href="#DejaVuSans-6f" x="299.609375"/>
      <use xlink:href="#DejaVuSans-6e" x="360.791016"/>
     </g>
    </g>
   </g>
   <g id="matplotlib.axis_4">
    <g id="ytick_6">
     <g id="line2d_22">
      <g>
       <use xlink:href="#m4a248414c1" x="48.982813" y="69.024304" style="stroke: #000000; stroke-width: 0.8"/>
      </g>
     </g>
     <g id="text_21">
      <!-- −50 -->
      <g transform="translate(20.878125 72.823522)scale(0.1 -0.1)">
       <use xlink:href="#DejaVuSans-2212"/>
       <use xlink:href="#DejaVuSans-35" x="83.789062"/>
       <use xlink:href="#DejaVuSans-30" x="147.412109"/>
      </g>
     </g>
    </g>
    <g id="ytick_7">
     <g id="line2d_23">
      <g>
       <use xlink:href="#m4a248414c1" x="48.982813" y="29.056042" style="stroke: #000000; stroke-width: 0.8"/>
      </g>
     </g>
     <g id="text_22">
      <!-- 0 -->
      <g transform="translate(35.620313 32.855261)scale(0.1 -0.1)">
       <use xlink:href="#DejaVuSans-30"/>
      </g>
     </g>
    </g>
    <g id="text_23">
     <!-- Activity -->
     <g transform="translate(14.798438 76.882272)rotate(-90)scale(0.1 -0.1)">
      <defs>
       <path id="DejaVuSans-79" d="M 2059 -325 
Q 1816 -950 1584 -1140 
Q 1353 -1331 966 -1331 
L 506 -1331 
L 506 -850 
L 844 -850 
Q 1081 -850 1212 -737 
Q 1344 -625 1503 -206 
L 1606 56 
L 191 3500 
L 800 3500 
L 1894 763 
L 2988 3500 
L 3597 3500 
L 2059 -325 
z
" transform="scale(0.015625)"/>
      </defs>
      <use xlink:href="#DejaVuSans-41"/>
      <use xlink:href="#DejaVuSans-63" x="66.658203"/>
      <use xlink:href="#DejaVuSans-74" x="121.638672"/>
      <use xlink:href="#DejaVuSans-69" x="160.847656"/>
      <use xlink:href="#DejaVuSans-76" x="188.630859"/>
      <use xlink:href="#DejaVuSans-69" x="247.810547"/>
      <use xlink:href="#DejaVuSans-74" x="275.59375"/>
      <use xlink:href="#DejaVuSans-79" x="314.802734"/>
     </g>
    </g>
   </g>
   <g id="line2d_24">
    <path d="M 53.445622 29.389184 
L 53.624493 29.434162 
L 53.803363 31.141763 
L 53.982233 29.830587 
L 54.339973 31.937061 
L 54.518843 31.535075 
L 55.055454 34.102834 
L 55.234324 33.662021 
L 55.413194 31.82971 
L 55.592064 31.796504 
L 55.770934 32.690135 
L 55.949804 32.259231 
L 56.128674 32.73578 
L 56.307545 32.751072 
L 56.486415 31.811817 
L 56.665285 32.409639 
L 56.844155 32.402425 
L 57.023025 33.104354 
L 57.201895 33.229402 
L 57.380765 33.024308 
L 57.559636 33.814704 
L 58.096246 34.784063 
L 58.453986 36.86947 
L 58.811727 37.207244 
L 58.990597 35.423567 
L 59.169467 37.369835 
L 59.348337 37.279726 
L 59.527207 36.983605 
L 59.706077 35.896761 
L 59.884947 35.495594 
L 60.063817 36.170429 
L 60.242688 36.170421 
L 60.421558 35.736883 
L 60.600428 35.987491 
L 60.779298 35.371171 
L 60.958168 36.864458 
L 61.315908 34.307398 
L 61.494779 34.575727 
L 61.673649 34.087042 
L 61.852519 34.048696 
L 62.031389 34.711478 
L 62.210259 34.641366 
L 62.389129 33.841708 
L 62.74687 34.446637 
L 62.92574 34.506167 
L 63.10461 34.159645 
L 63.28348 33.137753 
L 63.46235 33.645093 
L 63.82009 33.065943 
L 63.99896 34.551654 
L 64.356701 34.99262 
L 64.535571 35.024251 
L 64.714441 34.763655 
L 64.893311 36.394618 
L 65.072181 36.357643 
L 65.251051 36.899354 
L 65.429922 38.049991 
L 65.787662 37.04313 
L 65.966532 37.565315 
L 66.145402 36.891885 
L 66.324272 37.196856 
L 66.503142 37.143707 
L 66.682013 38.022001 
L 66.860883 36.755417 
L 67.039753 38.881288 
L 67.218623 38.954392 
L 67.397493 38.398738 
L 67.576363 40.02422 
L 67.934104 40.237401 
L 68.291844 38.580385 
L 68.470714 38.903242 
L 68.649584 40.009978 
L 69.007324 37.943522 
L 69.186194 38.312833 
L 69.901675 37.111197 
L 70.080545 35.986733 
L 70.259415 37.375997 
L 70.617156 36.239863 
L 70.796026 36.413433 
L 70.974896 35.475353 
L 71.153766 37.348748 
L 71.332636 36.420268 
L 71.511506 36.11165 
L 71.690376 37.017438 
L 71.869247 36.671239 
L 72.048117 36.914315 
L 72.405857 33.380619 
L 72.584727 33.028347 
L 72.942467 34.069654 
L 73.300208 34.77732 
L 73.657948 35.970947 
L 73.836818 36.191715 
L 74.194558 37.163322 
L 74.373428 37.905846 
L 74.552299 35.867115 
L 74.910039 37.861202 
L 75.088909 37.51556 
L 75.267779 37.774218 
L 75.446649 37.435427 
L 75.98326 35.186207 
L 76.16213 35.980585 
L 76.341 35.093974 
L 76.51987 36.504788 
L 76.69874 36.596252 
L 76.87761 36.994476 
L 77.05648 37.842441 
L 77.235351 37.369484 
L 77.414221 37.515973 
L 77.593091 36.700736 
L 77.771961 37.885768 
L 78.129701 36.811219 
L 78.308571 36.710096 
L 78.487442 37.844244 
L 78.666312 38.045504 
L 79.024052 40.946661 
L 79.202922 38.324947 
L 79.381792 37.548874 
L 79.560662 36.115937 
L 79.739533 36.458876 
L 80.276143 34.864038 
L 80.455013 34.861113 
L 80.633883 35.043566 
L 80.812753 36.697942 
L 81.349364 34.978086 
L 81.528234 35.197305 
L 81.707104 33.804961 
L 81.885974 34.162678 
L 82.064844 35.166223 
L 82.243714 34.416287 
L 82.422585 34.790667 
L 82.601455 35.793647 
L 82.780325 35.693867 
L 82.959195 35.089146 
L 83.138065 34.896147 
L 83.316935 34.498522 
L 83.495805 31.214176 
L 83.674676 30.557801 
L 83.853546 29.333365 
L 84.032416 30.920781 
L 84.211286 30.62897 
L 84.390156 30.010196 
L 84.569026 30.301548 
L 84.747896 31.001775 
L 84.926767 30.684811 
L 85.105637 30.936305 
L 85.284507 31.410932 
L 85.821117 29.182545 
L 85.999987 29.545639 
L 86.357728 28.471429 
L 86.536598 27.967331 
L 86.715468 29.1291 
L 86.894338 29.3993 
L 87.073208 29.112221 
L 87.430948 27.846824 
L 87.609819 27.240609 
L 88.146429 29.6892 
L 88.325299 28.246764 
L 88.504169 28.102551 
L 88.683039 27.66037 
L 88.86191 26.834603 
L 89.04078 27.097596 
L 89.39852 28.358615 
L 89.57739 28.477039 
L 89.93513 26.581716 
L 90.114 27.450698 
L 90.471741 26.332301 
L 90.650611 27.18072 
L 90.829481 27.267465 
L 91.008351 28.746613 
L 91.187221 28.482433 
L 91.366091 28.734787 
L 91.723832 30.372025 
L 91.902702 30.180217 
L 92.081572 30.622225 
L 92.260442 30.382794 
L 92.439312 29.941014 
L 92.797053 30.862453 
L 92.975923 29.148072 
L 93.154793 29.051264 
L 93.333663 29.72819 
L 93.512533 29.679858 
L 93.691403 30.749879 
L 93.870273 29.844402 
L 94.049144 29.548393 
L 94.406884 27.959266 
L 94.585754 27.647277 
L 94.764624 26.867488 
L 94.943494 26.714351 
L 95.480105 28.420116 
L 95.658975 30.422892 
L 95.837845 28.963255 
L 96.016715 30.333421 
L 96.195585 30.394684 
L 96.732196 33.132835 
L 97.089936 33.504053 
L 97.268806 33.065244 
L 97.447676 33.559552 
L 97.805416 32.846481 
L 98.163157 33.34078 
L 98.342027 32.910382 
L 98.699767 32.737448 
L 98.878637 34.635463 
L 99.057507 34.588684 
L 99.236377 34.287686 
L 99.415248 34.395984 
L 99.594118 34.12747 
L 99.772988 32.605179 
L 99.951858 32.536941 
L 100.130728 32.005096 
L 100.846209 34.564641 
L 101.025079 34.570717 
L 101.203949 35.317189 
L 101.382819 35.457075 
L 101.91943 38.46669 
L 102.27717 39.841596 
L 102.63491 40.611671 
L 103.17152 38.101786 
L 103.350391 38.389137 
L 103.529261 37.192526 
L 103.887001 40.03385 
L 104.065871 39.819642 
L 104.602482 39.906719 
L 104.960222 42.142751 
L 105.317962 40.334411 
L 105.496832 40.911457 
L 105.675702 39.366158 
L 106.033443 40.678858 
L 106.212313 40.445098 
L 106.570053 41.790374 
L 106.748923 41.928721 
L 106.927793 42.244748 
L 107.285534 41.074759 
L 107.643274 42.498291 
L 107.822144 42.354351 
L 108.001014 42.407854 
L 108.179884 43.037553 
L 108.358754 42.69802 
L 108.537625 42.042632 
L 108.716495 42.547127 
L 108.895365 41.91638 
L 109.253105 44.500067 
L 109.431975 44.100432 
L 109.968586 45.774993 
L 110.147456 46.316451 
L 110.326326 46.055005 
L 110.505196 47.218369 
L 110.684066 47.515348 
L 110.862936 44.988582 
L 111.041807 44.900691 
L 111.220677 46.430295 
L 111.578417 45.511661 
L 111.757287 44.405514 
L 111.936157 44.286929 
L 112.115027 44.809347 
L 112.472768 43.113977 
L 112.651638 44.553407 
L 112.830508 43.955803 
L 113.009378 44.141972 
L 113.188248 43.254161 
L 113.367118 43.552595 
L 113.545988 42.924177 
L 113.724859 42.768966 
L 113.903729 42.300374 
L 114.082599 42.316671 
L 114.261469 42.647935 
L 114.440339 42.594127 
L 114.798079 41.75528 
L 114.97695 40.464164 
L 115.33469 39.616062 
L 115.51356 37.935613 
L 115.69243 37.882754 
L 115.8713 37.454647 
L 116.05017 37.936777 
L 116.22904 37.903237 
L 116.407911 36.590748 
L 116.586781 36.341587 
L 116.765651 35.181573 
L 117.123391 37.152626 
L 117.302261 36.906801 
L 117.481131 38.001642 
L 117.838872 34.8691 
L 118.017742 35.86489 
L 118.196612 35.998519 
L 118.375482 36.459442 
L 118.554352 36.126889 
L 118.733222 36.17313 
L 119.090963 34.254478 
L 119.269833 34.431394 
L 119.448703 35.369174 
L 119.627573 34.919396 
L 119.806443 35.050903 
L 119.985313 34.135746 
L 120.164184 34.257343 
L 120.521924 33.325399 
L 120.700794 33.476515 
L 120.879664 33.835692 
L 121.058534 33.265326 
L 121.237404 31.243144 
L 121.416274 30.573583 
L 121.595145 30.678845 
L 121.774015 30.11322 
L 121.952885 30.022049 
L 122.131755 31.045952 
L 122.310625 30.798272 
L 122.489495 29.560622 
L 122.668365 29.813084 
L 122.847236 30.713092 
L 123.026106 30.322605 
L 123.383846 28.107466 
L 123.562716 27.293139 
L 123.920456 24.156853 
L 124.099327 23.587158 
L 124.278197 23.753989 
L 124.457067 23.643982 
L 124.635937 23.726598 
L 124.814807 23.048456 
L 124.993677 23.754396 
L 125.172547 22.519067 
L 125.351417 22.402488 
L 125.530288 22.722319 
L 125.709158 22.070671 
L 126.066898 24.396312 
L 126.245768 24.92207 
L 126.424638 24.266139 
L 126.603508 24.657154 
L 126.782379 23.518085 
L 126.961249 23.875288 
L 127.140119 23.458731 
L 127.318989 24.024837 
L 127.497859 23.101146 
L 127.676729 23.304609 
L 127.855599 22.889798 
L 128.03447 23.283881 
L 128.21334 24.15243 
L 128.39221 24.337017 
L 128.57108 23.459306 
L 129.10769 25.7417 
L 129.28656 25.117592 
L 129.644301 26.396355 
L 129.823171 26.24903 
L 130.002041 26.513361 
L 130.180911 26.283777 
L 130.359781 25.332909 
L 130.717522 25.368248 
L 130.896392 24.755841 
L 131.075262 24.80511 
L 131.611872 27.269253 
L 131.790742 25.740386 
L 131.969613 25.776568 
L 132.327353 24.741618 
L 132.506223 25.492221 
L 132.685093 24.989599 
L 132.863963 25.440836 
L 133.042833 27.109757 
L 133.221704 27.28166 
L 133.400574 28.141001 
L 133.579444 28.411164 
L 133.758314 28.136811 
L 133.937184 26.312229 
L 134.294924 26.839603 
L 134.652665 26.393443 
L 134.831535 26.520085 
L 135.189275 28.150435 
L 135.368145 28.29702 
L 135.904756 30.750291 
L 136.083626 29.851418 
L 136.262496 31.048739 
L 136.441366 29.528333 
L 136.620236 29.992271 
L 136.977976 31.780989 
L 137.335717 30.337273 
L 137.514587 31.015667 
L 137.693457 30.750646 
L 138.051197 31.064022 
L 138.230067 30.94316 
L 138.408937 30.331591 
L 138.766678 33.644137 
L 138.945548 33.478917 
L 139.124418 33.535573 
L 139.303288 32.9882 
L 139.661028 35.141776 
L 139.839899 33.907927 
L 140.018769 34.955312 
L 140.197639 34.664795 
L 140.734249 36.725492 
L 140.913119 35.777406 
L 141.27086 38.257006 
L 141.44973 38.984481 
L 141.6286 38.044065 
L 141.80747 37.804886 
L 141.98634 37.261903 
L 142.16521 37.276021 
L 142.34408 37.087338 
L 142.522951 36.692423 
L 142.701821 35.456382 
L 142.701821 35.456382 
" clip-path="url(#pafbd508873)" style="fill: none; stroke: #101820; stroke-width: 2; stroke-linecap: square"/>
   </g>
   <g id="patch_9">
    <path d="M 48.982813 95.567668 
L 48.982813 20.798438 
" style="fill: none; stroke: #000000; stroke-width: 0.8; stroke-linejoin: miter; stroke-linecap: square"/>
   </g>
   <g id="patch_10">
    <path d="M 48.982813 95.567668 
L 147.164631 95.567668 
" style="fill: none; stroke: #000000; stroke-width: 0.8; stroke-linejoin: miter; stroke-linecap: square"/>
   </g>
   <g id="text_24">
    <!-- a -->
    <g transform="translate(7.385 17.886875)scale(0.14 -0.14)">
     <use xlink:href="#DejaVuSans-Bold-61"/>
    </g>
   </g>
   <g id="text_25">
    <!-- Var = 1 -->
    <g style="fill: #101820" transform="translate(79.372159 14.798438)scale(0.1 -0.1)">
     <defs>
      <path id="DejaVuSans-56" d="M 1831 0 
L 50 4666 
L 709 4666 
L 2188 738 
L 3669 4666 
L 4325 4666 
L 2547 0 
L 1831 0 
z
" transform="scale(0.015625)"/>
      <path id="DejaVuSans-3d" d="M 678 2906 
L 4684 2906 
L 4684 2381 
L 678 2381 
L 678 2906 
z
M 678 1631 
L 4684 1631 
L 4684 1100 
L 678 1100 
L 678 1631 
z
" transform="scale(0.015625)"/>
     </defs>
     <use xlink:href="#DejaVuSans-56"/>
     <use xlink:href="#DejaVuSans-61" x="60.658203"/>
     <use xlink:href="#DejaVuSans-72" x="121.9375"/>
     <use xlink:href="#DejaVuSans-20" x="163.050781"/>
     <use xlink:href="#DejaVuSans-3d" x="194.837891"/>
     <use xlink:href="#DejaVuSans-20" x="278.626953"/>
     <use xlink:href="#DejaVuSans-31" x="310.414062"/>
    </g>
   </g>
  </g>
  <g id="axes_3">
   <g id="patch_11">
    <path d="M 166.800994 95.567668 
L 264.982812 95.567668 
L 264.982812 20.798438 
L 166.800994 20.798438 
z
" style="fill: #ffffff"/>
   </g>
   <g id="matplotlib.axis_5">
    <g id="xtick_11">
     <g id="line2d_25">
      <g>
       <use xlink:href="#m35d07ae6cc" x="171.263804" y="95.567668" style="stroke: #000000; stroke-width: 0.8"/>
      </g>
     </g>
     <g id="text_26">
      <!-- 0 -->
      <g transform="translate(168.082554 110.166106)scale(0.1 -0.1)">
       <use xlink:href="#DejaVuSans-30"/>
      </g>
     </g>
    </g>
    <g id="xtick_12">
     <g id="line2d_26">
      <g>
       <use xlink:href="#m35d07ae6cc" x="207.037832" y="95.567668" style="stroke: #000000; stroke-width: 0.8"/>
      </g>
     </g>
     <g id="text_27">
      <!-- 200 -->
      <g transform="translate(197.494082 110.166106)scale(0.1 -0.1)">
       <use xlink:href="#DejaVuSans-32"/>
       <use xlink:href="#DejaVuSans-30" x="63.623047"/>
       <use xlink:href="#DejaVuSans-30" x="127.246094"/>
      </g>
     </g>
    </g>
    <g id="xtick_13">
     <g id="line2d_27">
      <g>
       <use xlink:href="#m35d07ae6cc" x="242.811859" y="95.567668" style="stroke: #000000; stroke-width: 0.8"/>
      </g>
     </g>
     <g id="text_28">
      <!-- 400 -->
      <g transform="translate(233.268109 110.166106)scale(0.1 -0.1)">
       <use xlink:href="#DejaVuSans-34"/>
       <use xlink:href="#DejaVuSans-30" x="63.623047"/>
       <use xlink:href="#DejaVuSans-30" x="127.246094"/>
      </g>
     </g>
    </g>
    <g id="text_29">
     <!-- Iteration -->
     <g transform="translate(194.68331 123.844231)scale(0.1 -0.1)">
      <use xlink:href="#DejaVuSans-49"/>
      <use xlink:href="#DejaVuSans-74" x="29.492188"/>
      <use xlink:href="#DejaVuSans-65" x="68.701172"/>
      <use xlink:href="#DejaVuSans-72" x="130.224609"/>
      <use xlink:href="#DejaVuSans-61" x="171.337891"/>
      <use xlink:href="#DejaVuSans-74" x="232.617188"/>
      <use xlink:href="#DejaVuSans-69" x="271.826172"/>
      <use xlink:href="#DejaVuSans-6f" x="299.609375"/>
      <use xlink:href="#DejaVuSans-6e" x="360.791016"/>
     </g>
    </g>
   </g>
   <g id="matplotlib.axis_6">
    <g id="ytick_8">
     <g id="line2d_28">
      <g>
       <use xlink:href="#m4a248414c1" x="166.800994" y="69.024304" style="stroke: #000000; stroke-width: 0.8"/>
      </g>
     </g>
    </g>
    <g id="ytick_9">
     <g id="line2d_29">
      <g>
       <use xlink:href="#m4a248414c1" x="166.800994" y="29.056042" style="stroke: #000000; stroke-width: 0.8"/>
      </g>
     </g>
    </g>
   </g>
   <g id="line2d_30">
    <path d="M 171.263804 28.714258 
L 171.442674 30.747838 
L 171.621545 29.159631 
L 171.800415 29.027329 
L 171.979285 30.560623 
L 172.158155 30.804699 
L 172.337025 32.165364 
L 172.515895 29.276266 
L 172.694765 29.753412 
L 172.873635 32.525373 
L 173.052506 32.105532 
L 173.231376 33.254528 
L 173.410246 31.470174 
L 173.589116 31.283364 
L 173.767986 33.74591 
L 173.946856 34.439276 
L 174.304597 36.995163 
L 174.483467 37.886455 
L 174.662337 40.667699 
L 174.841207 40.395965 
L 175.198947 42.845919 
L 175.377817 41.804879 
L 175.556688 39.178498 
L 175.735558 40.049484 
L 175.914428 37.540577 
L 176.093298 40.387562 
L 176.272168 39.608474 
L 176.451038 40.414375 
L 176.629908 40.516835 
L 176.987649 42.706097 
L 177.345389 43.622321 
L 177.524259 43.05266 
L 177.703129 39.831676 
L 177.881999 40.709549 
L 178.060869 40.923336 
L 178.41861 46.83376 
L 178.59748 44.907638 
L 178.95522 47.780482 
L 179.13409 47.751045 
L 179.31296 46.489842 
L 179.491831 46.05333 
L 179.670701 43.469488 
L 179.849571 43.722163 
L 180.028441 46.253473 
L 180.386181 45.8957 
L 180.743921 47.490052 
L 180.922792 48.30193 
L 181.101662 45.900421 
L 181.280532 46.748801 
L 181.459402 48.678079 
L 181.638272 48.291191 
L 181.817142 50.814145 
L 182.174883 49.659431 
L 182.711493 52.434949 
L 182.890363 50.199091 
L 183.069233 49.652262 
L 183.426974 53.046168 
L 183.784714 53.172004 
L 183.963584 54.235779 
L 184.142454 53.832553 
L 184.321324 54.105766 
L 184.679065 52.009239 
L 184.857935 52.138275 
L 185.036805 51.950488 
L 185.215675 53.172634 
L 185.573415 51.417107 
L 185.752285 51.994453 
L 185.931155 51.831359 
L 186.110026 52.574422 
L 186.288896 49.130812 
L 186.467766 49.75574 
L 186.825506 48.532797 
L 187.004376 49.638144 
L 187.183246 49.63031 
L 187.362117 50.074657 
L 187.719857 49.374326 
L 188.077597 47.227394 
L 188.435337 48.517724 
L 188.793078 50.528548 
L 188.971948 52.941627 
L 189.150818 52.105819 
L 189.329688 52.216047 
L 189.508558 52.508563 
L 190.224039 60.5073 
L 190.581779 58.75788 
L 190.760649 58.866022 
L 190.939519 60.359582 
L 191.29726 60.368751 
L 191.655 58.331232 
L 191.83387 58.699848 
L 192.01274 58.747871 
L 192.37048 57.150966 
L 192.549351 57.387309 
L 192.728221 60.389851 
L 192.907091 61.31082 
L 193.085961 60.149587 
L 193.264831 59.942144 
L 193.443701 58.622431 
L 193.622571 59.100433 
L 193.801441 58.989295 
L 194.159182 56.938306 
L 194.338052 56.396005 
L 194.874662 51.114651 
L 195.053532 53.401469 
L 195.590143 55.034538 
L 195.769013 57.301883 
L 195.947883 55.500428 
L 196.126753 56.886776 
L 196.305623 56.749015 
L 196.484494 60.077765 
L 197.021104 62.432859 
L 197.199974 61.414653 
L 197.378844 58.118774 
L 197.736585 60.528971 
L 197.915455 58.103507 
L 198.094325 57.325338 
L 198.273195 57.762983 
L 198.452065 59.534582 
L 198.630935 58.520198 
L 198.809805 58.225071 
L 198.988675 56.075552 
L 199.167546 57.281421 
L 199.525286 57.948074 
L 199.704156 58.248285 
L 200.061896 55.617652 
L 200.240766 56.504338 
L 200.419637 56.632164 
L 200.598507 56.951734 
L 200.777377 55.720707 
L 200.956247 55.964727 
L 201.135117 57.512591 
L 201.313987 57.990685 
L 201.492857 58.056834 
L 201.850598 55.02047 
L 202.029468 53.233348 
L 202.208338 52.729225 
L 202.387208 53.446326 
L 202.566078 52.641512 
L 202.744948 52.905855 
L 202.923818 53.771544 
L 203.281559 52.816833 
L 203.460429 51.621238 
L 203.639299 52.874084 
L 203.818169 55.191302 
L 203.997039 54.500161 
L 204.175909 55.84501 
L 204.35478 54.474103 
L 204.89139 59.343112 
L 205.07026 56.523286 
L 205.24913 57.175137 
L 205.428 57.308011 
L 205.785741 58.408247 
L 205.964611 57.281678 
L 206.143481 57.159657 
L 206.322351 57.19972 
L 206.501221 55.576093 
L 206.680091 57.473501 
L 207.037832 53.748504 
L 207.216702 55.696137 
L 207.395572 55.345923 
L 207.574442 57.15335 
L 207.932182 61.302812 
L 208.289923 59.58042 
L 208.468793 60.115719 
L 208.826533 61.973616 
L 209.184273 63.890992 
L 209.363143 67.253009 
L 209.720884 67.798661 
L 209.899754 64.804643 
L 210.078624 63.894236 
L 210.257494 64.116126 
L 210.436364 64.042709 
L 210.615234 63.615777 
L 210.794105 64.615815 
L 210.972975 67.528278 
L 211.151845 68.568587 
L 211.330715 68.912152 
L 211.509585 68.782598 
L 212.046195 71.514384 
L 212.225066 71.472765 
L 212.403936 70.715058 
L 212.582806 71.083786 
L 212.761676 70.510443 
L 212.940546 71.926812 
L 213.119416 70.833685 
L 213.298286 70.945484 
L 213.477157 72.866078 
L 213.656027 73.249133 
L 213.834897 73.134462 
L 214.013767 74.640005 
L 214.192637 73.668039 
L 214.371507 74.161123 
L 214.550377 73.563017 
L 214.729248 74.97229 
L 214.908118 74.573892 
L 215.086988 73.598551 
L 215.623598 75.357313 
L 215.802468 74.925885 
L 215.981338 74.911992 
L 216.160209 74.249067 
L 216.339079 74.360253 
L 216.875689 78.646057 
L 217.054559 78.036572 
L 217.4123 73.756284 
L 217.59117 74.63306 
L 217.77004 77.465647 
L 217.94891 76.781 
L 218.12778 76.783704 
L 218.30665 78.488994 
L 218.48552 77.276567 
L 218.664391 77.291486 
L 218.843261 77.887303 
L 219.022131 80.587542 
L 219.201001 79.273444 
L 219.379871 79.202961 
L 219.558741 79.571278 
L 219.916481 81.458049 
L 220.631962 74.857524 
L 220.810832 74.396801 
L 220.989702 73.17237 
L 221.168572 72.96623 
L 221.526313 75.845415 
L 221.705183 75.400513 
L 222.241793 79.188331 
L 222.420663 76.865702 
L 222.957274 81.411181 
L 223.315014 78.53463 
L 223.493884 79.317061 
L 223.672754 78.534627 
L 223.851625 79.785367 
L 224.030495 79.795948 
L 224.209365 76.191019 
L 224.388235 74.895204 
L 224.567105 74.965631 
L 224.745975 76.81318 
L 224.924845 77.239622 
L 225.103715 79.07956 
L 225.282586 82.115813 
L 225.640326 80.487951 
L 225.819196 80.21945 
L 225.998066 78.8439 
L 226.176936 81.166558 
L 226.355806 79.239097 
L 226.534677 80.746519 
L 226.892417 79.60327 
L 227.071287 78.115772 
L 227.250157 75.352075 
L 227.429027 74.873786 
L 227.607897 75.403793 
L 227.786768 76.945204 
L 227.965638 76.587988 
L 228.502248 79.92433 
L 228.681118 78.9951 
L 228.859988 79.424284 
L 229.038858 80.882666 
L 229.217729 80.686557 
L 229.575469 84.51132 
L 229.754339 82.491315 
L 229.933209 82.155045 
L 230.112079 79.413349 
L 230.290949 81.455032 
L 230.46982 80.019377 
L 230.64869 80.264241 
L 230.82756 76.554163 
L 231.00643 76.852427 
L 231.1853 77.467793 
L 231.54304 76.619371 
L 231.721911 77.255062 
L 232.258521 73.810849 
L 232.437391 73.256453 
L 232.795131 75.208562 
L 232.974001 74.387539 
L 233.152872 75.687703 
L 233.331742 73.33669 
L 233.510612 73.2917 
L 233.689482 74.391272 
L 233.868352 72.954721 
L 234.047222 72.982679 
L 234.226092 71.325134 
L 234.404963 71.031906 
L 234.583833 68.583626 
L 234.762703 69.114577 
L 235.299313 76.500088 
L 235.478183 75.683355 
L 235.657054 73.178519 
L 235.835924 73.448557 
L 236.014794 75.296031 
L 236.372534 73.72233 
L 236.551404 74.250068 
L 236.730274 73.685247 
L 236.909145 73.676371 
L 237.088015 75.268895 
L 237.266885 74.319629 
L 237.445755 75.018502 
L 237.624625 76.333385 
L 237.803495 76.660585 
L 238.340106 69.834088 
L 238.518976 70.51944 
L 238.697846 71.941598 
L 238.876716 71.465395 
L 239.055586 71.689695 
L 239.234456 71.497199 
L 239.771067 75.778914 
L 240.128807 73.238249 
L 240.307677 74.183369 
L 240.665417 72.488478 
L 240.844288 73.512944 
L 241.023158 73.49927 
L 241.202028 72.373038 
L 241.380898 73.77788 
L 241.559768 72.052352 
L 241.738638 72.337803 
L 241.917508 72.255606 
L 242.096378 72.593917 
L 242.275249 74.645491 
L 242.454119 74.17608 
L 242.632989 74.185533 
L 242.990729 75.057903 
L 243.169599 74.480121 
L 243.348469 74.684226 
L 243.52734 75.418369 
L 243.70621 75.30701 
L 243.88508 74.262843 
L 244.06395 74.213103 
L 244.24282 75.315449 
L 244.42169 74.165063 
L 244.60056 74.575453 
L 244.779431 73.764998 
L 244.958301 73.967092 
L 245.673781 78.610915 
L 245.852651 81.729851 
L 246.031521 81.19956 
L 246.210392 79.677106 
L 246.389262 80.012389 
L 246.747002 83.856547 
L 246.925872 83.544586 
L 247.104742 82.974188 
L 247.283612 82.894459 
L 247.462483 81.930318 
L 247.820223 83.210972 
L 247.999093 82.829183 
L 248.177963 83.142133 
L 248.535703 81.781422 
L 248.714574 82.157769 
L 249.072314 84.495349 
L 249.251184 82.978526 
L 249.430054 84.645746 
L 249.608924 84.563046 
L 249.787794 85.942499 
L 249.966665 82.748203 
L 250.145535 83.626751 
L 250.324405 82.749353 
L 250.503275 84.090281 
L 250.682145 79.670962 
L 250.861015 81.521023 
L 251.039885 81.027523 
L 251.218755 82.762443 
L 251.397626 81.628217 
L 251.576496 83.366941 
L 251.755366 83.981001 
L 251.934236 86.18953 
L 252.113106 86.74017 
L 252.291976 86.739299 
L 252.470846 84.328502 
L 252.649717 87.517146 
L 252.828587 86.762693 
L 253.007457 86.704638 
L 253.186327 87.547705 
L 253.365197 87.841496 
L 253.544067 87.300558 
L 253.901808 87.413498 
L 254.259548 89.049531 
L 254.438418 88.379438 
L 254.796158 90.375141 
L 254.975028 90.273476 
L 255.332769 89.287729 
L 255.511639 89.567391 
L 255.690509 92.384173 
L 256.048249 89.943287 
L 256.227119 88.289438 
L 256.405989 87.819442 
L 256.58486 86.65173 
L 256.76373 87.063181 
L 256.9426 88.605991 
L 257.30034 89.194453 
L 257.65808 86.72353 
L 258.015821 88.041153 
L 258.194691 88.114346 
L 258.373561 88.02713 
L 258.552431 86.082501 
L 258.731301 86.776866 
L 258.910171 85.015391 
L 259.267912 87.916113 
L 259.446782 85.634562 
L 259.625652 85.117814 
L 259.804522 85.004376 
L 259.983392 84.216952 
L 260.162262 84.541603 
L 260.341132 84.492992 
L 260.520003 84.220534 
L 260.520003 84.220534 
" clip-path="url(#p7570599844)" style="fill: none; stroke: #1b362c; stroke-width: 2; stroke-linecap: square"/>
   </g>
   <g id="patch_12">
    <path d="M 166.800994 95.567668 
L 166.800994 20.798438 
" style="fill: none; stroke: #000000; stroke-width: 0.8; stroke-linejoin: miter; stroke-linecap: square"/>
   </g>
   <g id="patch_13">
    <path d="M 166.800994 95.567668 
L 264.982812 95.567668 
" style="fill: none; stroke: #000000; stroke-width: 0.8; stroke-linejoin: miter; stroke-linecap: square"/>
   </g>
   <g id="text_30">
    <!-- b -->
    <g transform="translate(150.689148 17.886875)scale(0.14 -0.14)">
     <defs>
      <path id="DejaVuSans-Bold-62" d="M 2400 722 
Q 2759 722 2948 984 
Q 3138 1247 3138 1747 
Q 3138 2247 2948 2509 
Q 2759 2772 2400 2772 
Q 2041 2772 1848 2508 
Q 1656 2244 1656 1747 
Q 1656 1250 1848 986 
Q 2041 722 2400 722 
z
M 1656 2988 
Q 1888 3294 2169 3439 
Q 2450 3584 2816 3584 
Q 3463 3584 3878 3070 
Q 4294 2556 4294 1747 
Q 4294 938 3878 423 
Q 3463 -91 2816 -91 
Q 2450 -91 2169 54 
Q 1888 200 1656 506 
L 1656 0 
L 538 0 
L 538 4863 
L 1656 4863 
L 1656 2988 
z
" transform="scale(0.015625)"/>
     </defs>
     <use xlink:href="#DejaVuSans-Bold-62"/>
    </g>
   </g>
   <g id="text_31">
    <!-- Var = 3 -->
    <g style="fill: #1b362c" transform="translate(197.190341 14.798438)scale(0.1 -0.1)">
     <use xlink:href="#DejaVuSans-56"/>
     <use xlink:href="#DejaVuSans-61" x="60.658203"/>
     <use xlink:href="#DejaVuSans-72" x="121.9375"/>
     <use xlink:href="#DejaVuSans-20" x="163.050781"/>
     <use xlink:href="#DejaVuSans-3d" x="194.837891"/>
     <use xlink:href="#DejaVuSans-20" x="278.626953"/>
     <use xlink:href="#DejaVuSans-33" x="310.414062"/>
    </g>
   </g>
  </g>
  <g id="axes_4">
   <g id="patch_14">
    <path d="M 48.982813 215.198437 
L 147.164631 215.198437 
L 147.164631 140.429207 
L 48.982813 140.429207 
z
" style="fill: #ffffff"/>
   </g>
   <g id="patch_15">
    <path d="M 53.445622 215.198437 
L 56.523422 215.198437 
L 56.523422 215.198437 
L 53.445622 215.198437 
z
" clip-path="url(#p2a2c3341fb)" style="fill: #101820; stroke: #000000; stroke-linejoin: miter"/>
   </g>
   <g id="patch_16">
    <path d="M 56.523422 215.198437 
L 59.601222 215.198437 
L 59.601222 215.198437 
L 56.523422 215.198437 
z
" clip-path="url(#p2a2c3341fb)" style="fill: #101820; stroke: #000000; stroke-linejoin: miter"/>
   </g>
   <g id="patch_17">
    <path d="M 59.601222 215.198437 
L 62.679022 215.198437 
L 62.679022 215.198437 
L 59.601222 215.198437 
z
" clip-path="url(#p2a2c3341fb)" style="fill: #101820; stroke: #000000; stroke-linejoin: miter"/>
   </g>
   <g id="patch_18">
    <path d="M 62.679022 215.198437 
L 65.756822 215.198437 
L 65.756822 215.198437 
L 62.679022 215.198437 
z
" clip-path="url(#p2a2c3341fb)" style="fill: #101820; stroke: #000000; stroke-linejoin: miter"/>
   </g>
   <g id="patch_19">
    <path d="M 65.756822 215.198437 
L 68.834622 215.198437 
L 68.834622 215.198437 
L 65.756822 215.198437 
z
" clip-path="url(#p2a2c3341fb)" style="fill: #101820; stroke: #000000; stroke-linejoin: miter"/>
   </g>
   <g id="patch_20">
    <path d="M 68.834622 215.198437 
L 71.912422 215.198437 
L 71.912422 215.198437 
L 68.834622 215.198437 
z
" clip-path="url(#p2a2c3341fb)" style="fill: #101820; stroke: #000000; stroke-linejoin: miter"/>
   </g>
   <g id="patch_21">
    <path d="M 71.912422 215.198437 
L 74.990222 215.198437 
L 74.990222 215.198437 
L 71.912422 215.198437 
z
" clip-path="url(#p2a2c3341fb)" style="fill: #101820; stroke: #000000; stroke-linejoin: miter"/>
   </g>
   <g id="patch_22">
    <path d="M 74.990222 215.198437 
L 78.068022 215.198437 
L 78.068022 215.198437 
L 74.990222 215.198437 
z
" clip-path="url(#p2a2c3341fb)" style="fill: #101820; stroke: #000000; stroke-linejoin: miter"/>
   </g>
   <g id="patch_23">
    <path d="M 78.068022 215.198437 
L 81.145822 215.198437 
L 81.145822 215.198437 
L 78.068022 215.198437 
z
" clip-path="url(#p2a2c3341fb)" style="fill: #101820; stroke: #000000; stroke-linejoin: miter"/>
   </g>
   <g id="patch_24">
    <path d="M 81.145822 215.198437 
L 84.223622 215.198437 
L 84.223622 215.198437 
L 81.145822 215.198437 
z
" clip-path="url(#p2a2c3341fb)" style="fill: #101820; stroke: #000000; stroke-linejoin: miter"/>
   </g>
   <g id="patch_25">
    <path d="M 84.223622 215.198437 
L 87.301422 215.198437 
L 87.301422 215.198437 
L 84.223622 215.198437 
z
" clip-path="url(#p2a2c3341fb)" style="fill: #101820; stroke: #000000; stroke-linejoin: miter"/>
   </g>
   <g id="patch_26">
    <path d="M 87.301422 215.198437 
L 90.379222 215.198437 
L 90.379222 205.536943 
L 87.301422 205.536943 
z
" clip-path="url(#p2a2c3341fb)" style="fill: #101820; stroke: #000000; stroke-linejoin: miter"/>
   </g>
   <g id="patch_27">
    <path d="M 90.379222 215.198437 
L 93.457022 215.198437 
L 93.457022 180.846458 
L 90.379222 180.846458 
z
" clip-path="url(#p2a2c3341fb)" style="fill: #101820; stroke: #000000; stroke-linejoin: miter"/>
   </g>
   <g id="patch_28">
    <path d="M 93.457022 215.198437 
L 96.534822 215.198437 
L 96.534822 143.989646 
L 93.457022 143.989646 
z
" clip-path="url(#p2a2c3341fb)" style="fill: #101820; stroke: #000000; stroke-linejoin: miter"/>
   </g>
   <g id="patch_29">
    <path d="M 96.534822 215.198437 
L 99.612622 215.198437 
L 99.612622 168.680132 
L 96.534822 168.680132 
z
" clip-path="url(#p2a2c3341fb)" style="fill: #101820; stroke: #000000; stroke-linejoin: miter"/>
   </g>
   <g id="patch_30">
    <path d="M 99.612622 215.198437 
L 102.690422 215.198437 
L 102.690422 198.022448 
L 99.612622 198.022448 
z
" clip-path="url(#p2a2c3341fb)" style="fill: #101820; stroke: #000000; stroke-linejoin: miter"/>
   </g>
   <g id="patch_31">
    <path d="M 102.690422 215.198437 
L 105.768221 215.198437 
L 105.768221 215.198437 
L 102.690422 215.198437 
z
" clip-path="url(#p2a2c3341fb)" style="fill: #101820; stroke: #000000; stroke-linejoin: miter"/>
   </g>
   <g id="patch_32">
    <path d="M 105.768221 215.198437 
L 108.846021 215.198437 
L 108.846021 215.198437 
L 105.768221 215.198437 
z
" clip-path="url(#p2a2c3341fb)" style="fill: #101820; stroke: #000000; stroke-linejoin: miter"/>
   </g>
   <g id="patch_33">
    <path d="M 108.846021 215.198437 
L 111.923821 215.198437 
L 111.923821 215.198437 
L 108.846021 215.198437 
z
" clip-path="url(#p2a2c3341fb)" style="fill: #101820; stroke: #000000; stroke-linejoin: miter"/>
   </g>
   <g id="patch_34">
    <path d="M 111.923821 215.198437 
L 115.001621 215.198437 
L 115.001621 215.198437 
L 111.923821 215.198437 
z
" clip-path="url(#p2a2c3341fb)" style="fill: #101820; stroke: #000000; stroke-linejoin: miter"/>
   </g>
   <g id="patch_35">
    <path d="M 115.001621 215.198437 
L 118.079421 215.198437 
L 118.079421 215.198437 
L 115.001621 215.198437 
z
" clip-path="url(#p2a2c3341fb)" style="fill: #101820; stroke: #000000; stroke-linejoin: miter"/>
   </g>
   <g id="patch_36">
    <path d="M 118.079421 215.198437 
L 121.157221 215.198437 
L 121.157221 215.198437 
L 118.079421 215.198437 
z
" clip-path="url(#p2a2c3341fb)" style="fill: #101820; stroke: #000000; stroke-linejoin: miter"/>
   </g>
   <g id="patch_37">
    <path d="M 121.157221 215.198437 
L 124.235021 215.198437 
L 124.235021 215.198437 
L 121.157221 215.198437 
z
" clip-path="url(#p2a2c3341fb)" style="fill: #101820; stroke: #000000; stroke-linejoin: miter"/>
   </g>
   <g id="patch_38">
    <path d="M 124.235021 215.198437 
L 127.312821 215.198437 
L 127.312821 215.198437 
L 124.235021 215.198437 
z
" clip-path="url(#p2a2c3341fb)" style="fill: #101820; stroke: #000000; stroke-linejoin: miter"/>
   </g>
   <g id="patch_39">
    <path d="M 127.312821 215.198437 
L 130.390621 215.198437 
L 130.390621 215.198437 
L 127.312821 215.198437 
z
" clip-path="url(#p2a2c3341fb)" style="fill: #101820; stroke: #000000; stroke-linejoin: miter"/>
   </g>
   <g id="patch_40">
    <path d="M 130.390621 215.198437 
L 133.468421 215.198437 
L 133.468421 215.198437 
L 130.390621 215.198437 
z
" clip-path="url(#p2a2c3341fb)" style="fill: #101820; stroke: #000000; stroke-linejoin: miter"/>
   </g>
   <g id="patch_41">
    <path d="M 133.468421 215.198437 
L 136.546221 215.198437 
L 136.546221 215.198437 
L 133.468421 215.198437 
z
" clip-path="url(#p2a2c3341fb)" style="fill: #101820; stroke: #000000; stroke-linejoin: miter"/>
   </g>
   <g id="patch_42">
    <path d="M 136.546221 215.198437 
L 139.624021 215.198437 
L 139.624021 215.198437 
L 136.546221 215.198437 
z
" clip-path="url(#p2a2c3341fb)" style="fill: #101820; stroke: #000000; stroke-linejoin: miter"/>
   </g>
   <g id="patch_43">
    <path d="M 139.624021 215.198437 
L 142.701821 215.198437 
L 142.701821 215.198437 
L 139.624021 215.198437 
z
" clip-path="url(#p2a2c3341fb)" style="fill: #101820; stroke: #000000; stroke-linejoin: miter"/>
   </g>
   <g id="matplotlib.axis_7">
    <g id="xtick_14">
     <g id="line2d_31">
      <g>
       <use xlink:href="#m35d07ae6cc" x="53.445622" y="215.198437" style="stroke: #000000; stroke-width: 0.8"/>
      </g>
     </g>
     <g id="text_32">
      <!-- −100 -->
      <g transform="translate(39.712029 229.796875)scale(0.1 -0.1)">
       <use xlink:href="#DejaVuSans-2212"/>
       <use xlink:href="#DejaVuSans-31" x="83.789062"/>
       <use xlink:href="#DejaVuSans-30" x="147.412109"/>
       <use xlink:href="#DejaVuSans-30" x="211.035156"/>
      </g>
     </g>
    </g>
    <g id="xtick_15">
     <g id="line2d_32">
      <g>
       <use xlink:href="#m35d07ae6cc" x="98.073722" y="215.198437" style="stroke: #000000; stroke-width: 0.8"/>
      </g>
     </g>
     <g id="text_33">
      <!-- 0 -->
      <g transform="translate(94.892472 229.796875)scale(0.1 -0.1)">
       <use xlink:href="#DejaVuSans-30"/>
      </g>
     </g>
    </g>
    <g id="xtick_16">
     <g id="line2d_33">
      <g>
       <use xlink:href="#m35d07ae6cc" x="142.701821" y="215.198437" style="stroke: #000000; stroke-width: 0.8"/>
      </g>
     </g>
     <g id="text_34">
      <!-- 100 -->
      <g transform="translate(133.158071 229.796875)scale(0.1 -0.1)">
       <use xlink:href="#DejaVuSans-31"/>
       <use xlink:href="#DejaVuSans-30" x="63.623047"/>
       <use xlink:href="#DejaVuSans-30" x="127.246094"/>
      </g>
     </g>
    </g>
    <g id="text_35">
     <!-- Activity -->
     <g transform="translate(79.374503 243.475)scale(0.1 -0.1)">
      <use xlink:href="#DejaVuSans-41"/>
      <use xlink:href="#DejaVuSans-63" x="66.658203"/>
      <use xlink:href="#DejaVuSans-74" x="121.638672"/>
      <use xlink:href="#DejaVuSans-69" x="160.847656"/>
      <use xlink:href="#DejaVuSans-76" x="188.630859"/>
      <use xlink:href="#DejaVuSans-69" x="247.810547"/>
      <use xlink:href="#DejaVuSans-74" x="275.59375"/>
      <use xlink:href="#DejaVuSans-79" x="314.802734"/>
     </g>
    </g>
   </g>
   <g id="matplotlib.axis_8">
    <g id="ytick_10">
     <g id="line2d_34">
      <g>
       <use xlink:href="#m4a248414c1" x="48.982813" y="215.198437" style="stroke: #000000; stroke-width: 0.8"/>
      </g>
     </g>
     <g id="text_36">
      <!-- 0 -->
      <g transform="translate(35.620313 218.997656)scale(0.1 -0.1)">
       <use xlink:href="#DejaVuSans-30"/>
      </g>
     </g>
    </g>
    <g id="ytick_11">
     <g id="line2d_35">
      <g>
       <use xlink:href="#m4a248414c1" x="48.982813" y="179.415125" style="stroke: #000000; stroke-width: 0.8"/>
      </g>
     </g>
     <g id="text_37">
      <!-- 100 -->
      <g transform="translate(22.895313 183.214344)scale(0.1 -0.1)">
       <use xlink:href="#DejaVuSans-31"/>
       <use xlink:href="#DejaVuSans-30" x="63.623047"/>
       <use xlink:href="#DejaVuSans-30" x="127.246094"/>
      </g>
     </g>
    </g>
    <g id="ytick_12">
     <g id="line2d_36">
      <g>
       <use xlink:href="#m4a248414c1" x="48.982813" y="143.631813" style="stroke: #000000; stroke-width: 0.8"/>
      </g>
     </g>
     <g id="text_38">
      <!-- 200 -->
      <g transform="translate(22.895313 147.431032)scale(0.1 -0.1)">
       <use xlink:href="#DejaVuSans-32"/>
       <use xlink:href="#DejaVuSans-30" x="63.623047"/>
       <use xlink:href="#DejaVuSans-30" x="127.246094"/>
      </g>
     </g>
    </g>
    <g id="text_39">
     <!-- Frequency -->
     <g transform="translate(14.798438 203.64351)rotate(-90)scale(0.1 -0.1)">
      <defs>
       <path id="DejaVuSans-46" d="M 628 4666 
L 3309 4666 
L 3309 4134 
L 1259 4134 
L 1259 2759 
L 3109 2759 
L 3109 2228 
L 1259 2228 
L 1259 0 
L 628 0 
L 628 4666 
z
" transform="scale(0.015625)"/>
       <path id="DejaVuSans-71" d="M 947 1747 
Q 947 1113 1208 752 
Q 1469 391 1925 391 
Q 2381 391 2643 752 
Q 2906 1113 2906 1747 
Q 2906 2381 2643 2742 
Q 2381 3103 1925 3103 
Q 1469 3103 1208 2742 
Q 947 2381 947 1747 
z
M 2906 525 
Q 2725 213 2448 61 
Q 2172 -91 1784 -91 
Q 1150 -91 751 415 
Q 353 922 353 1747 
Q 353 2572 751 3078 
Q 1150 3584 1784 3584 
Q 2172 3584 2448 3432 
Q 2725 3281 2906 2969 
L 2906 3500 
L 3481 3500 
L 3481 -1331 
L 2906 -1331 
L 2906 525 
z
" transform="scale(0.015625)"/>
      </defs>
      <use xlink:href="#DejaVuSans-46"/>
      <use xlink:href="#DejaVuSans-72" x="50.269531"/>
      <use xlink:href="#DejaVuSans-65" x="89.132812"/>
      <use xlink:href="#DejaVuSans-71" x="150.65625"/>
      <use xlink:href="#DejaVuSans-75" x="214.132812"/>
      <use xlink:href="#DejaVuSans-65" x="277.511719"/>
      <use xlink:href="#DejaVuSans-6e" x="339.035156"/>
      <use xlink:href="#DejaVuSans-63" x="402.414062"/>
      <use xlink:href="#DejaVuSans-79" x="457.394531"/>
     </g>
    </g>
   </g>
   <g id="patch_44">
    <path d="M 48.982813 215.198437 
L 48.982813 140.429207 
" style="fill: none; stroke: #000000; stroke-width: 0.8; stroke-linejoin: miter; stroke-linecap: square"/>
   </g>
   <g id="patch_45">
    <path d="M 48.982813 215.198437 
L 147.164631 215.198437 
" style="fill: none; stroke: #000000; stroke-width: 0.8; stroke-linejoin: miter; stroke-linecap: square"/>
   </g>
   <g id="text_40">
    <!-- c -->
    <g transform="translate(8.533438 137.517644)scale(0.14 -0.14)">
     <defs>
      <path id="DejaVuSans-Bold-63" d="M 3366 3391 
L 3366 2478 
Q 3138 2634 2908 2709 
Q 2678 2784 2431 2784 
Q 1963 2784 1702 2511 
Q 1441 2238 1441 1747 
Q 1441 1256 1702 982 
Q 1963 709 2431 709 
Q 2694 709 2930 787 
Q 3166 866 3366 1019 
L 3366 103 
Q 3103 6 2833 -42 
Q 2563 -91 2291 -91 
Q 1344 -91 809 395 
Q 275 881 275 1747 
Q 275 2613 809 3098 
Q 1344 3584 2291 3584 
Q 2566 3584 2833 3536 
Q 3100 3488 3366 3391 
z
" transform="scale(0.015625)"/>
     </defs>
     <use xlink:href="#DejaVuSans-Bold-63"/>
    </g>
   </g>
  </g>
  <g id="axes_5">
   <g id="patch_46">
    <path d="M 166.800994 215.198437 
L 264.982812 215.198437 
L 264.982812 140.429207 
L 166.800994 140.429207 
z
" style="fill: #ffffff"/>
   </g>
   <g id="patch_47">
    <path d="M 171.263804 215.198437 
L 174.341604 215.198437 
L 174.341604 215.198437 
L 171.263804 215.198437 
z
" clip-path="url(#p720f7215d9)" style="fill: #1b362c; stroke: #000000; stroke-linejoin: miter"/>
   </g>
   <g id="patch_48">
    <path d="M 174.341604 215.198437 
L 177.419404 215.198437 
L 177.419404 215.198437 
L 174.341604 215.198437 
z
" clip-path="url(#p720f7215d9)" style="fill: #1b362c; stroke: #000000; stroke-linejoin: miter"/>
   </g>
   <g id="patch_49">
    <path d="M 177.419404 215.198437 
L 180.497204 215.198437 
L 180.497204 215.198437 
L 177.419404 215.198437 
z
" clip-path="url(#p720f7215d9)" style="fill: #1b362c; stroke: #000000; stroke-linejoin: miter"/>
   </g>
   <g id="patch_50">
    <path d="M 180.497204 215.198437 
L 183.575004 215.198437 
L 183.575004 204.105611 
L 180.497204 204.105611 
z
" clip-path="url(#p720f7215d9)" style="fill: #1b362c; stroke: #000000; stroke-linejoin: miter"/>
   </g>
   <g id="patch_51">
    <path d="M 183.575004 215.198437 
L 186.652804 215.198437 
L 186.652804 195.875449 
L 183.575004 195.875449 
z
" clip-path="url(#p720f7215d9)" style="fill: #1b362c; stroke: #000000; stroke-linejoin: miter"/>
   </g>
   <g id="patch_52">
    <path d="M 186.652804 215.198437 
L 189.730604 215.198437 
L 189.730604 188.00312 
L 186.652804 188.00312 
z
" clip-path="url(#p720f7215d9)" style="fill: #1b362c; stroke: #000000; stroke-linejoin: miter"/>
   </g>
   <g id="patch_53">
    <path d="M 189.730604 215.198437 
L 192.808404 215.198437 
L 192.808404 176.194627 
L 189.730604 176.194627 
z
" clip-path="url(#p720f7215d9)" style="fill: #1b362c; stroke: #000000; stroke-linejoin: miter"/>
   </g>
   <g id="patch_54">
    <path d="M 192.808404 215.198437 
L 195.886204 215.198437 
L 195.886204 211.262273 
L 192.808404 211.262273 
z
" clip-path="url(#p720f7215d9)" style="fill: #1b362c; stroke: #000000; stroke-linejoin: miter"/>
   </g>
   <g id="patch_55">
    <path d="M 195.886204 215.198437 
L 198.964004 215.198437 
L 198.964004 203.389944 
L 195.886204 203.389944 
z
" clip-path="url(#p720f7215d9)" style="fill: #1b362c; stroke: #000000; stroke-linejoin: miter"/>
   </g>
   <g id="patch_56">
    <path d="M 198.964004 215.198437 
L 202.041804 215.198437 
L 202.041804 189.792286 
L 198.964004 189.792286 
z
" clip-path="url(#p720f7215d9)" style="fill: #1b362c; stroke: #000000; stroke-linejoin: miter"/>
   </g>
   <g id="patch_57">
    <path d="M 202.041804 215.198437 
L 205.119604 215.198437 
L 205.119604 195.875449 
L 202.041804 195.875449 
z
" clip-path="url(#p720f7215d9)" style="fill: #1b362c; stroke: #000000; stroke-linejoin: miter"/>
   </g>
   <g id="patch_58">
    <path d="M 205.119604 215.198437 
L 208.197404 215.198437 
L 208.197404 205.894776 
L 205.119604 205.894776 
z
" clip-path="url(#p720f7215d9)" style="fill: #1b362c; stroke: #000000; stroke-linejoin: miter"/>
   </g>
   <g id="patch_59">
    <path d="M 208.197404 215.198437 
L 211.275203 215.198437 
L 211.275203 209.115274 
L 208.197404 209.115274 
z
" clip-path="url(#p720f7215d9)" style="fill: #1b362c; stroke: #000000; stroke-linejoin: miter"/>
   </g>
   <g id="patch_60">
    <path d="M 211.275203 215.198437 
L 214.353003 215.198437 
L 214.353003 212.335773 
L 211.275203 212.335773 
z
" clip-path="url(#p720f7215d9)" style="fill: #1b362c; stroke: #000000; stroke-linejoin: miter"/>
   </g>
   <g id="patch_61">
    <path d="M 214.353003 215.198437 
L 217.430803 215.198437 
L 217.430803 211.620106 
L 214.353003 211.620106 
z
" clip-path="url(#p720f7215d9)" style="fill: #1b362c; stroke: #000000; stroke-linejoin: miter"/>
   </g>
   <g id="patch_62">
    <path d="M 217.430803 215.198437 
L 220.508603 215.198437 
L 220.508603 215.198437 
L 217.430803 215.198437 
z
" clip-path="url(#p720f7215d9)" style="fill: #1b362c; stroke: #000000; stroke-linejoin: miter"/>
   </g>
   <g id="patch_63">
    <path d="M 220.508603 215.198437 
L 223.586403 215.198437 
L 223.586403 215.198437 
L 220.508603 215.198437 
z
" clip-path="url(#p720f7215d9)" style="fill: #1b362c; stroke: #000000; stroke-linejoin: miter"/>
   </g>
   <g id="patch_64">
    <path d="M 223.586403 215.198437 
L 226.664203 215.198437 
L 226.664203 215.198437 
L 223.586403 215.198437 
z
" clip-path="url(#p720f7215d9)" style="fill: #1b362c; stroke: #000000; stroke-linejoin: miter"/>
   </g>
   <g id="patch_65">
    <path d="M 226.664203 215.198437 
L 229.742003 215.198437 
L 229.742003 215.198437 
L 226.664203 215.198437 
z
" clip-path="url(#p720f7215d9)" style="fill: #1b362c; stroke: #000000; stroke-linejoin: miter"/>
   </g>
   <g id="patch_66">
    <path d="M 229.742003 215.198437 
L 232.819803 215.198437 
L 232.819803 215.198437 
L 229.742003 215.198437 
z
" clip-path="url(#p720f7215d9)" style="fill: #1b362c; stroke: #000000; stroke-linejoin: miter"/>
   </g>
   <g id="patch_67">
    <path d="M 232.819803 215.198437 
L 235.897603 215.198437 
L 235.897603 215.198437 
L 232.819803 215.198437 
z
" clip-path="url(#p720f7215d9)" style="fill: #1b362c; stroke: #000000; stroke-linejoin: miter"/>
   </g>
   <g id="patch_68">
    <path d="M 235.897603 215.198437 
L 238.975403 215.198437 
L 238.975403 215.198437 
L 235.897603 215.198437 
z
" clip-path="url(#p720f7215d9)" style="fill: #1b362c; stroke: #000000; stroke-linejoin: miter"/>
   </g>
   <g id="patch_69">
    <path d="M 238.975403 215.198437 
L 242.053203 215.198437 
L 242.053203 215.198437 
L 238.975403 215.198437 
z
" clip-path="url(#p720f7215d9)" style="fill: #1b362c; stroke: #000000; stroke-linejoin: miter"/>
   </g>
   <g id="patch_70">
    <path d="M 242.053203 215.198437 
L 245.131003 215.198437 
L 245.131003 215.198437 
L 242.053203 215.198437 
z
" clip-path="url(#p720f7215d9)" style="fill: #1b362c; stroke: #000000; stroke-linejoin: miter"/>
   </g>
   <g id="patch_71">
    <path d="M 245.131003 215.198437 
L 248.208803 215.198437 
L 248.208803 215.198437 
L 245.131003 215.198437 
z
" clip-path="url(#p720f7215d9)" style="fill: #1b362c; stroke: #000000; stroke-linejoin: miter"/>
   </g>
   <g id="patch_72">
    <path d="M 248.208803 215.198437 
L 251.286603 215.198437 
L 251.286603 215.198437 
L 248.208803 215.198437 
z
" clip-path="url(#p720f7215d9)" style="fill: #1b362c; stroke: #000000; stroke-linejoin: miter"/>
   </g>
   <g id="patch_73">
    <path d="M 251.286603 215.198437 
L 254.364403 215.198437 
L 254.364403 215.198437 
L 251.286603 215.198437 
z
" clip-path="url(#p720f7215d9)" style="fill: #1b362c; stroke: #000000; stroke-linejoin: miter"/>
   </g>
   <g id="patch_74">
    <path d="M 254.364403 215.198437 
L 257.442203 215.198437 
L 257.442203 215.198437 
L 254.364403 215.198437 
z
" clip-path="url(#p720f7215d9)" style="fill: #1b362c; stroke: #000000; stroke-linejoin: miter"/>
   </g>
   <g id="patch_75">
    <path d="M 257.442203 215.198437 
L 260.520003 215.198437 
L 260.520003 215.198437 
L 257.442203 215.198437 
z
" clip-path="url(#p720f7215d9)" style="fill: #1b362c; stroke: #000000; stroke-linejoin: miter"/>
   </g>
   <g id="matplotlib.axis_9">
    <g id="xtick_17">
     <g id="line2d_37">
      <g>
       <use xlink:href="#m35d07ae6cc" x="171.263804" y="215.198437" style="stroke: #000000; stroke-width: 0.8"/>
      </g>
     </g>
     <g id="text_41">
      <!-- −100 -->
      <g transform="translate(157.53021 229.796875)scale(0.1 -0.1)">
       <use xlink:href="#DejaVuSans-2212"/>
       <use xlink:href="#DejaVuSans-31" x="83.789062"/>
       <use xlink:href="#DejaVuSans-30" x="147.412109"/>
       <use xlink:href="#DejaVuSans-30" x="211.035156"/>
      </g>
     </g>
    </g>
    <g id="xtick_18">
     <g id="line2d_38">
      <g>
       <use xlink:href="#m35d07ae6cc" x="215.891903" y="215.198437" style="stroke: #000000; stroke-width: 0.8"/>
      </g>
     </g>
     <g id="text_42">
      <!-- 0 -->
      <g transform="translate(212.710653 229.796875)scale(0.1 -0.1)">
       <use xlink:href="#DejaVuSans-30"/>
      </g>
     </g>
    </g>
    <g id="xtick_19">
     <g id="line2d_39">
      <g>
       <use xlink:href="#m35d07ae6cc" x="260.520003" y="215.198437" style="stroke: #000000; stroke-width: 0.8"/>
      </g>
     </g>
     <g id="text_43">
      <!-- 100 -->
      <g transform="translate(250.976253 229.796875)scale(0.1 -0.1)">
       <use xlink:href="#DejaVuSans-31"/>
       <use xlink:href="#DejaVuSans-30" x="63.623047"/>
       <use xlink:href="#DejaVuSans-30" x="127.246094"/>
      </g>
     </g>
    </g>
    <g id="text_44">
     <!-- Activity -->
     <g transform="translate(197.192685 243.475)scale(0.1 -0.1)">
      <use xlink:href="#DejaVuSans-41"/>
      <use xlink:href="#DejaVuSans-63" x="66.658203"/>
      <use xlink:href="#DejaVuSans-74" x="121.638672"/>
      <use xlink:href="#DejaVuSans-69" x="160.847656"/>
      <use xlink:href="#DejaVuSans-76" x="188.630859"/>
      <use xlink:href="#DejaVuSans-69" x="247.810547"/>
      <use xlink:href="#DejaVuSans-74" x="275.59375"/>
      <use xlink:href="#DejaVuSans-79" x="314.802734"/>
     </g>
    </g>
   </g>
   <g id="matplotlib.axis_10">
    <g id="ytick_13">
     <g id="line2d_40">
      <g>
       <use xlink:href="#m4a248414c1" x="166.800994" y="215.198437" style="stroke: #000000; stroke-width: 0.8"/>
      </g>
     </g>
    </g>
    <g id="ytick_14">
     <g id="line2d_41">
      <g>
       <use xlink:href="#m4a248414c1" x="166.800994" y="179.415125" style="stroke: #000000; stroke-width: 0.8"/>
      </g>
     </g>
    </g>
    <g id="ytick_15">
     <g id="line2d_42">
      <g>
       <use xlink:href="#m4a248414c1" x="166.800994" y="143.631813" style="stroke: #000000; stroke-width: 0.8"/>
      </g>
     </g>
    </g>
   </g>
   <g id="patch_76">
    <path d="M 166.800994 215.198437 
L 166.800994 140.429207 
" style="fill: none; stroke: #000000; stroke-width: 0.8; stroke-linejoin: miter; stroke-linecap: square"/>
   </g>
   <g id="patch_77">
    <path d="M 166.800994 215.198437 
L 264.982812 215.198437 
" style="fill: none; stroke: #000000; stroke-width: 0.8; stroke-linejoin: miter; stroke-linecap: square"/>
   </g>
   <g id="text_45">
    <!-- d -->
    <g transform="translate(150.689148 137.517644)scale(0.14 -0.14)">
     <defs>
      <path id="DejaVuSans-Bold-64" d="M 2919 2988 
L 2919 4863 
L 4044 4863 
L 4044 0 
L 2919 0 
L 2919 506 
Q 2688 197 2409 53 
Q 2131 -91 1766 -91 
Q 1119 -91 703 423 
Q 288 938 288 1747 
Q 288 2556 703 3070 
Q 1119 3584 1766 3584 
Q 2128 3584 2408 3439 
Q 2688 3294 2919 2988 
z
M 2181 722 
Q 2541 722 2730 984 
Q 2919 1247 2919 1747 
Q 2919 2247 2730 2509 
Q 2541 2772 2181 2772 
Q 1825 2772 1636 2509 
Q 1447 2247 1447 1747 
Q 1447 1247 1636 984 
Q 1825 722 2181 722 
z
" transform="scale(0.015625)"/>
     </defs>
     <use xlink:href="#DejaVuSans-Bold-64"/>
    </g>
   </g>
  </g>
 </g>
 <defs>
  <clipPath id="pd193c5a826">
   <rect x="336.982813" y="20.798438" width="360" height="194.4"/>
  </clipPath>
  <clipPath id="pafbd508873">
   <rect x="48.982813" y="20.798438" width="98.181818" height="74.769231"/>
  </clipPath>
  <clipPath id="p7570599844">
   <rect x="166.800994" y="20.798438" width="98.181818" height="74.769231"/>
  </clipPath>
  <clipPath id="p2a2c3341fb">
   <rect x="48.982813" y="140.429207" width="98.181818" height="74.769231"/>
  </clipPath>
  <clipPath id="p720f7215d9">
   <rect x="166.800994" y="140.429207" width="98.181818" height="74.769231"/>
  </clipPath>
 </defs>
</svg>
