<?xml version="1.0" encoding="utf-8" standalone="no"?>
<!DOCTYPE svg PUBLIC "-//W3C//DTD SVG 1.1//EN"
  "http://www.w3.org/Graphics/SVG/1.1/DTD/svg11.dtd">
<svg xmlns:xlink="http://www.w3.org/1999/xlink" width="690.504688pt" height="225.513864pt" viewBox="0 0 690.504688 225.513864" xmlns="http://www.w3.org/2000/svg" version="1.1">
 <metadata>
  <rdf:RDF xmlns:dc="http://purl.org/dc/elements/1.1/" xmlns:cc="http://creativecommons.org/ns#" xmlns:rdf="http://www.w3.org/1999/02/22-rdf-syntax-ns#">
   <cc:Work>
    <dc:type rdf:resource="http://purl.org/dc/dcmitype/StillImage"/>
    <dc:date>2023-05-03T18:55:33.311546</dc:date>
    <dc:format>image/svg+xml</dc:format>
    <dc:creator>
     <cc:Agent>
      <dc:title>Matplotlib v3.5.3, https://matplotlib.org/</dc:title>
     </cc:Agent>
    </dc:creator>
   </cc:Work>
  </rdf:RDF>
 </metadata>
 <defs>
  <style type="text/css">*{stroke-linejoin: round; stroke-linecap: butt}</style>
 </defs>
 <g id="figure_1">
  <g id="patch_1">
   <path d="M 0 225.513864 
L 690.504688 225.513864 
L 690.504688 -0 
L 0 -0 
z
" style="fill: #ffffff"/>
  </g>
  <g id="axes_1">
   <g id="patch_2">
    <path d="M 323.304688 201.635739 
L 683.304688 201.635739 
L 683.304688 7.235739 
L 323.304688 7.235739 
z
" style="fill: #ffffff"/>
   </g>
   <g id="matplotlib.axis_1">
    <g id="xtick_1">
     <g id="line2d_1">
      <defs>
       <path id="me62614e6f5" d="M 0 0 
L 0 3.5 
" style="stroke: #000000; stroke-width: 0.8"/>
      </defs>
      <g>
       <use xlink:href="#me62614e6f5" x="339.668324" y="201.635739" style="stroke: #000000; stroke-width: 0.8"/>
      </g>
     </g>
     <g id="text_1">
      <!-- 0 -->
      <g transform="translate(336.487074 216.234176)scale(0.1 -0.1)">
       <defs>
        <path id="DejaVuSans-30" d="M 2034 4250 
Q 1547 4250 1301 3770 
Q 1056 3291 1056 2328 
Q 1056 1369 1301 889 
Q 1547 409 2034 409 
Q 2525 409 2770 889 
Q 3016 1369 3016 2328 
Q 3016 3291 2770 3770 
Q 2525 4250 2034 4250 
z
M 2034 4750 
Q 2819 4750 3233 4129 
Q 3647 3509 3647 2328 
Q 3647 1150 3233 529 
Q 2819 -91 2034 -91 
Q 1250 -91 836 529 
Q 422 1150 422 2328 
Q 422 3509 836 4129 
Q 1250 4750 2034 4750 
z
" transform="scale(0.015625)"/>
       </defs>
       <use xlink:href="#DejaVuSans-30"/>
      </g>
     </g>
    </g>
    <g id="xtick_2">
     <g id="line2d_2">
      <g>
       <use xlink:href="#me62614e6f5" x="391.755396" y="201.635739" style="stroke: #000000; stroke-width: 0.8"/>
      </g>
     </g>
     <g id="text_2">
      <!-- 1 -->
      <g transform="translate(388.574146 216.234176)scale(0.1 -0.1)">
       <defs>
        <path id="DejaVuSans-31" d="M 794 531 
L 1825 531 
L 1825 4091 
L 703 3866 
L 703 4441 
L 1819 4666 
L 2450 4666 
L 2450 531 
L 3481 531 
L 3481 0 
L 794 0 
L 794 531 
z
" transform="scale(0.015625)"/>
       </defs>
       <use xlink:href="#DejaVuSans-31"/>
      </g>
     </g>
    </g>
    <g id="xtick_3">
     <g id="line2d_3">
      <g>
       <use xlink:href="#me62614e6f5" x="443.842468" y="201.635739" style="stroke: #000000; stroke-width: 0.8"/>
      </g>
     </g>
     <g id="text_3">
      <!-- 2 -->
      <g transform="translate(440.661218 216.234176)scale(0.1 -0.1)">
       <defs>
        <path id="DejaVuSans-32" d="M 1228 531 
L 3431 531 
L 3431 0 
L 469 0 
L 469 531 
Q 828 903 1448 1529 
Q 2069 2156 2228 2338 
Q 2531 2678 2651 2914 
Q 2772 3150 2772 3378 
Q 2772 3750 2511 3984 
Q 2250 4219 1831 4219 
Q 1534 4219 1204 4116 
Q 875 4013 500 3803 
L 500 4441 
Q 881 4594 1212 4672 
Q 1544 4750 1819 4750 
Q 2544 4750 2975 4387 
Q 3406 4025 3406 3419 
Q 3406 3131 3298 2873 
Q 3191 2616 2906 2266 
Q 2828 2175 2409 1742 
Q 1991 1309 1228 531 
z
" transform="scale(0.015625)"/>
       </defs>
       <use xlink:href="#DejaVuSans-32"/>
      </g>
     </g>
    </g>
    <g id="xtick_4">
     <g id="line2d_4">
      <g>
       <use xlink:href="#me62614e6f5" x="495.929541" y="201.635739" style="stroke: #000000; stroke-width: 0.8"/>
      </g>
     </g>
     <g id="text_4">
      <!-- 3 -->
      <g transform="translate(492.748291 216.234176)scale(0.1 -0.1)">
       <defs>
        <path id="DejaVuSans-33" d="M 2597 2516 
Q 3050 2419 3304 2112 
Q 3559 1806 3559 1356 
Q 3559 666 3084 287 
Q 2609 -91 1734 -91 
Q 1441 -91 1130 -33 
Q 819 25 488 141 
L 488 750 
Q 750 597 1062 519 
Q 1375 441 1716 441 
Q 2309 441 2620 675 
Q 2931 909 2931 1356 
Q 2931 1769 2642 2001 
Q 2353 2234 1838 2234 
L 1294 2234 
L 1294 2753 
L 1863 2753 
Q 2328 2753 2575 2939 
Q 2822 3125 2822 3475 
Q 2822 3834 2567 4026 
Q 2313 4219 1838 4219 
Q 1578 4219 1281 4162 
Q 984 4106 628 3988 
L 628 4550 
Q 988 4650 1302 4700 
Q 1616 4750 1894 4750 
Q 2613 4750 3031 4423 
Q 3450 4097 3450 3541 
Q 3450 3153 3228 2886 
Q 3006 2619 2597 2516 
z
" transform="scale(0.015625)"/>
       </defs>
       <use xlink:href="#DejaVuSans-33"/>
      </g>
     </g>
    </g>
    <g id="xtick_5">
     <g id="line2d_5">
      <g>
       <use xlink:href="#me62614e6f5" x="548.016613" y="201.635739" style="stroke: #000000; stroke-width: 0.8"/>
      </g>
     </g>
     <g id="text_5">
      <!-- 4 -->
      <g transform="translate(544.835363 216.234176)scale(0.1 -0.1)">
       <defs>
        <path id="DejaVuSans-34" d="M 2419 4116 
L 825 1625 
L 2419 1625 
L 2419 4116 
z
M 2253 4666 
L 3047 4666 
L 3047 1625 
L 3713 1625 
L 3713 1100 
L 3047 1100 
L 3047 0 
L 2419 0 
L 2419 1100 
L 313 1100 
L 313 1709 
L 2253 4666 
z
" transform="scale(0.015625)"/>
       </defs>
       <use xlink:href="#DejaVuSans-34"/>
      </g>
     </g>
    </g>
    <g id="xtick_6">
     <g id="line2d_6">
      <g>
       <use xlink:href="#me62614e6f5" x="600.103685" y="201.635739" style="stroke: #000000; stroke-width: 0.8"/>
      </g>
     </g>
     <g id="text_6">
      <!-- 5 -->
      <g transform="translate(596.922435 216.234176)scale(0.1 -0.1)">
       <defs>
        <path id="DejaVuSans-35" d="M 691 4666 
L 3169 4666 
L 3169 4134 
L 1269 4134 
L 1269 2991 
Q 1406 3038 1543 3061 
Q 1681 3084 1819 3084 
Q 2600 3084 3056 2656 
Q 3513 2228 3513 1497 
Q 3513 744 3044 326 
Q 2575 -91 1722 -91 
Q 1428 -91 1123 -41 
Q 819 9 494 109 
L 494 744 
Q 775 591 1075 516 
Q 1375 441 1709 441 
Q 2250 441 2565 725 
Q 2881 1009 2881 1497 
Q 2881 1984 2565 2268 
Q 2250 2553 1709 2553 
Q 1456 2553 1204 2497 
Q 953 2441 691 2322 
L 691 4666 
z
" transform="scale(0.015625)"/>
       </defs>
       <use xlink:href="#DejaVuSans-35"/>
      </g>
     </g>
    </g>
    <g id="xtick_7">
     <g id="line2d_7">
      <g>
       <use xlink:href="#me62614e6f5" x="652.190758" y="201.635739" style="stroke: #000000; stroke-width: 0.8"/>
      </g>
     </g>
     <g id="text_7">
      <!-- 6 -->
      <g transform="translate(649.009508 216.234176)scale(0.1 -0.1)">
       <defs>
        <path id="DejaVuSans-36" d="M 2113 2584 
Q 1688 2584 1439 2293 
Q 1191 2003 1191 1497 
Q 1191 994 1439 701 
Q 1688 409 2113 409 
Q 2538 409 2786 701 
Q 3034 994 3034 1497 
Q 3034 2003 2786 2293 
Q 2538 2584 2113 2584 
z
M 3366 4563 
L 3366 3988 
Q 3128 4100 2886 4159 
Q 2644 4219 2406 4219 
Q 1781 4219 1451 3797 
Q 1122 3375 1075 2522 
Q 1259 2794 1537 2939 
Q 1816 3084 2150 3084 
Q 2853 3084 3261 2657 
Q 3669 2231 3669 1497 
Q 3669 778 3244 343 
Q 2819 -91 2113 -91 
Q 1303 -91 875 529 
Q 447 1150 447 2328 
Q 447 3434 972 4092 
Q 1497 4750 2381 4750 
Q 2619 4750 2861 4703 
Q 3103 4656 3366 4563 
z
" transform="scale(0.015625)"/>
       </defs>
       <use xlink:href="#DejaVuSans-36"/>
      </g>
     </g>
    </g>
   </g>
   <g id="matplotlib.axis_2">
    <g id="ytick_1">
     <g id="line2d_8">
      <defs>
       <path id="m318044a7ea" d="M 0 0 
L -3.5 0 
" style="stroke: #000000; stroke-width: 0.8"/>
      </defs>
      <g>
       <use xlink:href="#m318044a7ea" x="323.304688" y="192.799813" style="stroke: #000000; stroke-width: 0.8"/>
      </g>
     </g>
     <g id="text_8">
      <!-- −1.00 -->
      <g transform="translate(285.659375 196.599032)scale(0.1 -0.1)">
       <defs>
        <path id="DejaVuSans-2212" d="M 678 2272 
L 4684 2272 
L 4684 1741 
L 678 1741 
L 678 2272 
z
" transform="scale(0.015625)"/>
        <path id="DejaVuSans-2e" d="M 684 794 
L 1344 794 
L 1344 0 
L 684 0 
L 684 794 
z
" transform="scale(0.015625)"/>
       </defs>
       <use xlink:href="#DejaVuSans-2212"/>
       <use xlink:href="#DejaVuSans-31" x="83.789062"/>
       <use xlink:href="#DejaVuSans-2e" x="147.412109"/>
       <use xlink:href="#DejaVuSans-30" x="179.199219"/>
       <use xlink:href="#DejaVuSans-30" x="242.822266"/>
      </g>
     </g>
    </g>
    <g id="ytick_2">
     <g id="line2d_9">
      <g>
       <use xlink:href="#m318044a7ea" x="323.304688" y="170.708849" style="stroke: #000000; stroke-width: 0.8"/>
      </g>
     </g>
     <g id="text_9">
      <!-- −0.75 -->
      <g transform="translate(285.659375 174.508068)scale(0.1 -0.1)">
       <defs>
        <path id="DejaVuSans-37" d="M 525 4666 
L 3525 4666 
L 3525 4397 
L 1831 0 
L 1172 0 
L 2766 4134 
L 525 4134 
L 525 4666 
z
" transform="scale(0.015625)"/>
       </defs>
       <use xlink:href="#DejaVuSans-2212"/>
       <use xlink:href="#DejaVuSans-30" x="83.789062"/>
       <use xlink:href="#DejaVuSans-2e" x="147.412109"/>
       <use xlink:href="#DejaVuSans-37" x="179.199219"/>
       <use xlink:href="#DejaVuSans-35" x="242.822266"/>
      </g>
     </g>
    </g>
    <g id="ytick_3">
     <g id="line2d_10">
      <g>
       <use xlink:href="#m318044a7ea" x="323.304688" y="148.617885" style="stroke: #000000; stroke-width: 0.8"/>
      </g>
     </g>
     <g id="text_10">
      <!-- −0.50 -->
      <g transform="translate(285.659375 152.417104)scale(0.1 -0.1)">
       <use xlink:href="#DejaVuSans-2212"/>
       <use xlink:href="#DejaVuSans-30" x="83.789062"/>
       <use xlink:href="#DejaVuSans-2e" x="147.412109"/>
       <use xlink:href="#DejaVuSans-35" x="179.199219"/>
       <use xlink:href="#DejaVuSans-30" x="242.822266"/>
      </g>
     </g>
    </g>
    <g id="ytick_4">
     <g id="line2d_11">
      <g>
       <use xlink:href="#m318044a7ea" x="323.304688" y="126.526921" style="stroke: #000000; stroke-width: 0.8"/>
      </g>
     </g>
     <g id="text_11">
      <!-- −0.25 -->
      <g transform="translate(285.659375 130.32614)scale(0.1 -0.1)">
       <use xlink:href="#DejaVuSans-2212"/>
       <use xlink:href="#DejaVuSans-30" x="83.789062"/>
       <use xlink:href="#DejaVuSans-2e" x="147.412109"/>
       <use xlink:href="#DejaVuSans-32" x="179.199219"/>
       <use xlink:href="#DejaVuSans-35" x="242.822266"/>
      </g>
     </g>
    </g>
    <g id="ytick_5">
     <g id="line2d_12">
      <g>
       <use xlink:href="#m318044a7ea" x="323.304688" y="104.435957" style="stroke: #000000; stroke-width: 0.8"/>
      </g>
     </g>
     <g id="text_12">
      <!-- 0.00 -->
      <g transform="translate(294.039062 108.235176)scale(0.1 -0.1)">
       <use xlink:href="#DejaVuSans-30"/>
       <use xlink:href="#DejaVuSans-2e" x="63.623047"/>
       <use xlink:href="#DejaVuSans-30" x="95.410156"/>
       <use xlink:href="#DejaVuSans-30" x="159.033203"/>
      </g>
     </g>
    </g>
    <g id="ytick_6">
     <g id="line2d_13">
      <g>
       <use xlink:href="#m318044a7ea" x="323.304688" y="82.344993" style="stroke: #000000; stroke-width: 0.8"/>
      </g>
     </g>
     <g id="text_13">
      <!-- 0.25 -->
      <g transform="translate(294.039062 86.144211)scale(0.1 -0.1)">
       <use xlink:href="#DejaVuSans-30"/>
       <use xlink:href="#DejaVuSans-2e" x="63.623047"/>
       <use xlink:href="#DejaVuSans-32" x="95.410156"/>
       <use xlink:href="#DejaVuSans-35" x="159.033203"/>
      </g>
     </g>
    </g>
    <g id="ytick_7">
     <g id="line2d_14">
      <g>
       <use xlink:href="#m318044a7ea" x="323.304688" y="60.254029" style="stroke: #000000; stroke-width: 0.8"/>
      </g>
     </g>
     <g id="text_14">
      <!-- 0.50 -->
      <g transform="translate(294.039062 64.053247)scale(0.1 -0.1)">
       <use xlink:href="#DejaVuSans-30"/>
       <use xlink:href="#DejaVuSans-2e" x="63.623047"/>
       <use xlink:href="#DejaVuSans-35" x="95.410156"/>
       <use xlink:href="#DejaVuSans-30" x="159.033203"/>
      </g>
     </g>
    </g>
    <g id="ytick_8">
     <g id="line2d_15">
      <g>
       <use xlink:href="#m318044a7ea" x="323.304688" y="38.163065" style="stroke: #000000; stroke-width: 0.8"/>
      </g>
     </g>
     <g id="text_15">
      <!-- 0.75 -->
      <g transform="translate(294.039062 41.962283)scale(0.1 -0.1)">
       <use xlink:href="#DejaVuSans-30"/>
       <use xlink:href="#DejaVuSans-2e" x="63.623047"/>
       <use xlink:href="#DejaVuSans-37" x="95.410156"/>
       <use xlink:href="#DejaVuSans-35" x="159.033203"/>
      </g>
     </g>
    </g>
    <g id="ytick_9">
     <g id="line2d_16">
      <g>
       <use xlink:href="#m318044a7ea" x="323.304688" y="16.0721" style="stroke: #000000; stroke-width: 0.8"/>
      </g>
     </g>
     <g id="text_16">
      <!-- 1.00 -->
      <g transform="translate(294.039062 19.871319)scale(0.1 -0.1)">
       <use xlink:href="#DejaVuSans-31"/>
       <use xlink:href="#DejaVuSans-2e" x="63.623047"/>
       <use xlink:href="#DejaVuSans-30" x="95.410156"/>
       <use xlink:href="#DejaVuSans-30" x="159.033203"/>
      </g>
     </g>
    </g>
   </g>
   <g id="line2d_17">
    <path d="M 339.668324 104.435957 
L 352.12961 83.496915 
L 358.688182 72.881742 
L 364.590896 63.750625 
L 369.837754 56.068746 
L 374.428754 49.746813 
L 378.363897 44.664182 
L 382.29904 39.922549 
L 386.234183 35.548964 
L 389.513469 32.203525 
L 392.792755 29.144298 
L 396.07204 26.383404 
L 399.351326 23.931784 
L 402.630612 21.799151 
L 405.254041 20.328437 
L 407.877469 19.071039 
L 410.500898 18.030145 
L 413.124327 17.208394 
L 415.747755 16.607873 
L 418.371184 16.230102 
L 420.994613 16.076041 
L 423.618041 16.14608 
L 426.24147 16.440041 
L 428.864899 16.957179 
L 431.488328 17.696183 
L 434.111756 18.655178 
L 436.735185 19.831732 
L 439.358614 21.22286 
L 441.982042 22.825036 
L 445.261328 25.118298 
L 448.540614 27.725847 
L 451.8199 30.63735 
L 455.099186 33.841271 
L 458.378471 37.324913 
L 462.313614 41.855008 
L 466.248757 46.742126 
L 470.1839 51.958387 
L 474.774901 58.420226 
L 480.021758 66.239586 
L 485.924473 75.495146 
L 492.483044 86.209214 
L 502.320902 102.767099 
L 516.093902 125.915054 
L 522.652474 136.509183 
L 528.555189 145.614321 
L 533.802046 153.267786 
L 538.393046 159.560982 
L 542.328189 164.616278 
L 546.263332 169.328246 
L 550.198475 173.670004 
L 553.477761 176.9874 
L 556.757047 180.01732 
L 560.036333 182.747759 
L 563.315618 185.167897 
L 566.594904 187.268145 
L 569.218333 188.712388 
L 571.841762 189.942886 
L 574.46519 190.95652 
L 577.088619 191.750719 
L 579.712048 192.323469 
L 582.335476 192.673317 
L 584.958905 192.799375 
L 587.582334 192.701325 
L 590.205762 192.379414 
L 592.829191 191.834459 
L 595.45262 191.067842 
L 598.076048 190.081508 
L 600.699477 188.877958 
L 603.322906 187.460245 
L 605.946334 185.831963 
L 609.22562 183.506842 
L 612.504906 180.868413 
L 615.784192 177.92713 
L 619.063478 174.694647 
L 622.342764 171.183773 
L 626.277907 166.622911 
L 630.21305 161.707272 
L 634.148193 156.464901 
L 638.739193 149.975845 
L 643.98605 142.129914 
L 649.888765 132.850562 
L 656.447336 122.117987 
L 666.285194 105.548566 
L 666.941051 104.435957 
L 666.941051 104.435957 
" clip-path="url(#pfccf51bf94)" style="fill: none; stroke: #101820; stroke-width: 3; stroke-linecap: square"/>
   </g>
   <g id="line2d_18">
    <path d="M 339.668324 95.614291 
L 348.850324 80.332037 
L 355.408896 69.846699 
L 360.655753 61.84506 
L 365.246753 55.195171 
L 369.837754 48.927577 
L 373.772897 43.896603 
L 377.70804 39.211005 
L 381.643183 34.897514 
L 384.922469 31.605008 
L 388.201754 28.601085 
L 391.48104 25.897649 
L 394.760326 23.50541 
L 398.039612 21.433848 
L 400.663041 20.013045 
L 403.286469 18.806358 
L 405.909898 17.816846 
L 408.533327 17.047019 
L 411.156755 16.498829 
L 413.780184 16.173667 
L 416.403613 16.072358 
L 419.027041 16.195159 
L 421.65047 16.541757 
L 424.273899 17.111274 
L 426.897327 17.902266 
L 429.520756 18.912726 
L 432.144185 20.140092 
L 434.767613 21.581251 
L 437.391042 23.232548 
L 440.670328 25.585744 
L 443.949614 28.251375 
L 447.2289 31.218877 
L 450.508185 34.476492 
L 453.787471 38.011313 
L 457.722614 42.599214 
L 461.657757 47.539893 
L 466.248757 53.712182 
L 470.839758 60.278279 
L 476.086615 68.199086 
L 481.98933 77.544983 
L 489.203758 89.42379 
L 501.665045 110.48601 
L 511.502902 126.930008 
L 518.061474 137.483356 
L 523.308331 145.557047 
L 528.555189 153.213833 
L 533.146189 159.510385 
L 537.081332 164.568871 
L 541.016475 169.2843 
L 544.951618 173.62977 
L 548.230904 176.950435 
L 551.510189 179.983771 
L 554.789475 182.717758 
L 558.068761 185.141564 
L 561.348047 187.245584 
L 563.971476 188.692909 
L 566.594904 189.926539 
L 569.218333 190.943347 
L 571.841762 191.740753 
L 574.46519 192.316735 
L 577.088619 192.669831 
L 579.712048 192.799148 
L 582.335476 192.704356 
L 584.958905 192.385696 
L 587.582334 191.843976 
L 590.205762 191.08057 
L 592.829191 190.097415 
L 595.45262 188.897003 
L 598.076048 187.482379 
L 600.699477 185.857132 
L 603.978763 183.535712 
L 607.258049 180.90087 
L 610.537335 177.963045 
L 613.81662 174.733879 
L 617.095906 171.226166 
L 621.031049 166.668874 
L 624.966192 161.756543 
L 628.901335 156.517199 
L 633.492336 150.031296 
L 638.739193 142.188441 
L 644.641907 132.911837 
L 651.200479 122.181393 
L 661.038337 105.613281 
L 666.941051 95.614291 
L 666.941051 95.614291 
" clip-path="url(#pfccf51bf94)" style="fill: none; stroke: #1b362c; stroke-width: 3; stroke-linecap: square"/>
   </g>
   <g id="line2d_19">
    <path d="M 339.668324 86.880769 
L 346.882753 75.092152 
L 352.785467 65.855096 
L 358.032325 58.056335 
L 362.623325 51.615554 
L 367.214325 45.584859 
L 371.149468 40.777673 
L 375.084611 36.333656 
L 378.363897 32.926086 
L 381.643183 29.801865 
L 384.922469 26.973372 
L 388.201754 24.451815 
L 391.48104 22.247185 
L 394.104469 20.717581 
L 396.727898 19.400306 
L 399.351326 18.298699 
L 401.974755 17.415556 
L 404.598184 16.753115 
L 407.221612 16.313058 
L 409.845041 16.096499 
L 412.46847 16.103989 
L 415.091898 16.335507 
L 417.715327 16.790468 
L 420.338756 17.467718 
L 422.962184 18.365537 
L 425.585613 19.48165 
L 428.209042 20.813226 
L 430.83247 22.356888 
L 434.111756 24.578695 
L 437.391042 27.116927 
L 440.670328 29.961525 
L 443.949614 33.101219 
L 447.2289 36.523567 
L 451.164043 40.98432 
L 455.099186 45.807064 
L 459.034329 50.964285 
L 463.625329 57.364435 
L 468.216329 64.130037 
L 473.463186 72.242152 
L 480.021758 82.831324 
L 488.547901 97.08288 
L 506.911902 127.941799 
L 513.470474 138.452882 
L 518.717331 146.481668 
L 523.308331 153.159854 
L 527.899331 159.459759 
L 531.834474 164.521432 
L 535.769617 169.240319 
L 539.70476 173.589498 
L 542.984046 176.913431 
L 546.263332 179.950181 
L 549.542618 182.687715 
L 552.821904 185.115187 
L 556.10119 187.222978 
L 558.724618 188.673384 
L 561.348047 189.910146 
L 563.971476 190.930127 
L 566.594904 191.730739 
L 569.218333 192.309953 
L 571.841762 192.666299 
L 574.46519 192.798873 
L 577.088619 192.70734 
L 579.712048 192.391931 
L 582.335476 191.853446 
L 584.958905 191.093252 
L 587.582334 190.113275 
L 590.205762 188.916002 
L 592.829191 187.504469 
L 595.45262 185.882257 
L 598.731906 183.56454 
L 602.011191 180.933286 
L 605.290477 177.998922 
L 608.569763 174.773073 
L 611.849049 171.268523 
L 615.784192 166.714803 
L 619.719335 161.805783 
L 623.654478 156.569469 
L 628.245478 150.086723 
L 633.492336 142.246947 
L 639.39505 132.973097 
L 645.953622 122.24479 
L 655.791479 105.677995 
L 666.941051 86.880769 
L 666.941051 86.880769 
" clip-path="url(#pfccf51bf94)" style="fill: none; stroke: #2f553d; stroke-width: 3; stroke-linecap: square"/>
   </g>
   <g id="line2d_20">
    <path d="M 339.668324 78.322652 
L 345.571038 68.944118 
L 350.817896 60.986262 
L 355.408896 54.381843 
L 359.999896 48.166034 
L 363.935039 43.184169 
L 367.870182 38.551745 
L 371.805325 34.295189 
L 375.084611 31.052768 
L 378.363897 28.101118 
L 381.643183 25.451936 
L 384.922469 23.115717 
L 388.201754 21.10172 
L 390.825183 19.727927 
L 393.448612 18.568973 
L 396.07204 17.627796 
L 398.695469 16.906784 
L 401.318898 16.407765 
L 403.942326 16.132005 
L 406.565755 16.080203 
L 409.189184 16.25249 
L 411.812612 16.648431 
L 414.436041 17.267019 
L 417.05947 18.106687 
L 419.682898 19.165305 
L 422.306327 20.440189 
L 424.929756 21.928103 
L 428.209042 24.081773 
L 431.488328 26.553836 
L 434.767613 29.334497 
L 438.046899 32.412738 
L 441.326185 35.776361 
L 445.261328 40.170572 
L 449.196471 44.931416 
L 453.131614 50.031733 
L 457.722614 56.37224 
L 462.313614 63.085902 
L 467.560472 71.148605 
L 473.463186 80.618331 
L 481.333472 93.698335 
L 503.632616 131.080213 
L 509.535331 140.436561 
L 514.782188 148.369206 
L 519.373188 154.947534 
L 523.964188 161.133701 
L 527.899331 166.087505 
L 531.834474 170.689588 
L 535.769617 174.913694 
L 539.048903 178.127598 
L 542.328189 181.049507 
L 545.607475 183.667846 
L 548.886761 185.972238 
L 552.166047 187.953553 
L 554.789475 189.30067 
L 557.412904 190.432551 
L 560.036333 191.346327 
L 562.659761 192.039678 
L 565.28319 192.510848 
L 567.906619 192.75864 
L 570.530047 192.782426 
L 573.153476 192.582147 
L 575.776905 192.158309 
L 578.400333 191.511988 
L 581.023762 190.644823 
L 583.647191 189.559014 
L 586.270619 188.257314 
L 588.894048 186.743024 
L 592.173334 184.55711 
L 595.45262 182.053726 
L 598.731906 179.242792 
L 602.011191 176.135445 
L 605.290477 172.743998 
L 609.22562 168.318247 
L 613.160763 163.528048 
L 617.095906 158.400729 
L 621.686906 152.0319 
L 626.277907 145.293546 
L 631.524764 137.207316 
L 638.083336 126.642242 
L 646.609479 112.407732 
L 665.629337 80.456595 
L 666.941051 78.322652 
L 666.941051 78.322652 
" clip-path="url(#pfccf51bf94)" style="fill: none; stroke: #4f7553; stroke-width: 3; stroke-linecap: square"/>
   </g>
   <g id="line2d_21">
    <path d="M 339.668324 70.02545 
L 344.915181 62.015281 
L 349.506181 55.35651 
L 354.097182 49.078781 
L 358.032325 44.038182 
L 361.967468 39.342152 
L 365.902611 35.017481 
L 369.181896 31.715132 
L 372.461182 28.70093 
L 375.740468 25.986819 
L 379.019754 23.583552 
L 382.29904 21.500653 
L 384.922469 20.070587 
L 387.545897 18.854491 
L 390.169326 17.855448 
L 392.792755 17.075992 
L 395.416183 16.5181 
L 398.039612 16.183187 
L 400.663041 16.072103 
L 403.286469 16.185128 
L 405.909898 16.521977 
L 408.533327 17.081796 
L 411.156755 17.863163 
L 413.780184 18.864098 
L 416.403613 20.082062 
L 419.027041 21.513966 
L 421.65047 23.156179 
L 424.929756 25.498296 
L 428.209042 28.153193 
L 431.488328 31.11035 
L 434.767613 34.358051 
L 438.046899 37.883427 
L 441.982042 42.460666 
L 445.917185 47.391473 
L 450.508185 53.553319 
L 455.099186 60.110207 
L 460.346043 68.022089 
L 466.248757 77.360097 
L 473.463186 89.232488 
L 485.924473 110.29229 
L 495.76233 126.742189 
L 502.320902 137.303206 
L 507.567759 145.385092 
L 512.814616 153.051817 
L 517.405617 159.358417 
L 521.34076 164.426458 
L 525.275903 169.152254 
L 529.211046 173.508844 
L 532.490332 176.839306 
L 535.769617 179.882879 
L 539.048903 182.627503 
L 542.328189 185.062304 
L 545.607475 187.177633 
L 548.230904 188.6342 
L 550.854332 189.877223 
L 553.477761 190.903548 
L 556.10119 191.710571 
L 558.724618 192.296248 
L 561.348047 192.659091 
L 563.971476 192.798181 
L 566.594904 192.713165 
L 569.218333 192.404259 
L 571.841762 191.872246 
L 574.46519 191.118475 
L 577.088619 190.144858 
L 579.712048 188.953865 
L 582.335476 187.548516 
L 584.958905 185.932375 
L 588.238191 183.622068 
L 591.517477 180.997995 
L 594.796763 178.070556 
L 598.076048 174.851349 
L 601.355334 171.35313 
L 605.290477 166.806562 
L 609.22562 161.904172 
L 613.160763 156.673925 
L 617.751763 150.197503 
L 622.998621 142.363898 
L 628.901335 133.095571 
L 635.459907 122.371556 
L 645.297765 105.807421 
L 658.414908 83.748512 
L 664.97348 73.12369 
L 666.941051 70.02545 
L 666.941051 70.02545 
" clip-path="url(#pfccf51bf94)" style="fill: none; stroke: #79936f; stroke-width: 3; stroke-linecap: square"/>
   </g>
   <g id="line2d_22">
    <path d="M 339.668324 62.072067 
L 344.259324 55.410343 
L 348.850324 49.129242 
L 352.785467 44.085441 
L 356.72061 39.385938 
L 360.655753 35.057544 
L 363.935039 31.751918 
L 367.214325 28.734293 
L 370.493611 26.016627 
L 373.772897 23.609686 
L 377.052182 21.52301 
L 379.675611 20.089858 
L 382.29904 18.870627 
L 384.922469 17.868408 
L 387.545897 17.085743 
L 390.169326 16.524618 
L 392.792755 16.186455 
L 395.416183 16.072112 
L 398.039612 16.181879 
L 400.663041 16.515478 
L 403.286469 17.072063 
L 405.909898 17.850222 
L 408.533327 18.847981 
L 411.156755 20.06281 
L 413.780184 21.491627 
L 416.403613 23.13081 
L 419.682898 25.469231 
L 422.962184 28.120547 
L 426.24147 31.074253 
L 429.520756 34.318646 
L 432.800042 37.84087 
L 436.735185 42.41455 
L 440.670328 47.342061 
L 444.605471 52.595292 
L 449.196471 59.095658 
L 454.443328 66.952611 
L 460.346043 76.241807 
L 467.560472 88.074071 
L 478.710044 106.893634 
L 489.859616 125.601015 
L 496.418187 136.207436 
L 502.320902 145.327729 
L 507.567759 152.99776 
L 512.158759 159.307702 
L 516.093902 164.378922 
L 520.029045 169.108169 
L 523.964188 173.468461 
L 527.243474 176.802185 
L 530.52276 179.849168 
L 533.802046 182.597335 
L 537.081332 185.035797 
L 540.360618 187.154894 
L 542.984046 188.614541 
L 545.607475 189.860692 
L 548.230904 190.890188 
L 550.854332 191.700417 
L 553.477761 192.289324 
L 556.10119 192.655416 
L 558.724618 192.797764 
L 561.348047 192.716007 
L 563.971476 192.410352 
L 566.594904 191.881575 
L 569.218333 191.131017 
L 571.841762 190.160581 
L 574.46519 188.972729 
L 577.088619 187.570472 
L 579.712048 185.957369 
L 582.991334 183.650768 
L 586.270619 181.030289 
L 589.549905 178.106314 
L 592.829191 174.89043 
L 596.108477 171.395379 
L 600.04362 166.852392 
L 603.978763 161.95332 
L 607.913906 156.726111 
L 612.504906 150.252856 
L 617.751763 142.422343 
L 623.654478 133.156785 
L 630.21305 122.434924 
L 640.050907 105.872133 
L 653.168051 83.81144 
L 659.726622 73.184219 
L 665.629337 64.038157 
L 666.941051 62.072067 
L 666.941051 62.072067 
" clip-path="url(#pfccf51bf94)" style="fill: none; stroke: #aeae92; stroke-width: 3; stroke-linecap: square"/>
   </g>
   <g id="patch_3">
    <path d="M 323.304688 201.635739 
L 323.304688 7.235739 
" style="fill: none; stroke: #000000; stroke-width: 0.8; stroke-linejoin: miter; stroke-linecap: square"/>
   </g>
   <g id="patch_4">
    <path d="M 683.304688 201.635739 
L 683.304688 7.235739 
" style="fill: none; stroke: #000000; stroke-width: 0.8; stroke-linejoin: miter; stroke-linecap: square"/>
   </g>
   <g id="patch_5">
    <path d="M 323.304688 201.635739 
L 683.304688 201.635739 
" style="fill: none; stroke: #000000; stroke-width: 0.8; stroke-linejoin: miter; stroke-linecap: square"/>
   </g>
   <g id="patch_6">
    <path d="M 323.304688 7.235739 
L 683.304688 7.235739 
" style="fill: none; stroke: #000000; stroke-width: 0.8; stroke-linejoin: miter; stroke-linecap: square"/>
   </g>
  </g>
  <g id="axes_2">
   <g id="patch_7">
    <path d="M 35.304688 82.00497 
L 133.486506 82.00497 
L 133.486506 7.235739 
L 35.304688 7.235739 
z
" style="fill: #ffffff"/>
   </g>
   <g id="matplotlib.axis_3">
    <g id="xtick_8">
     <g id="line2d_23">
      <g>
       <use xlink:href="#me62614e6f5" x="39.767497" y="82.00497" style="stroke: #000000; stroke-width: 0.8"/>
      </g>
     </g>
     <g id="text_17">
      <!-- 0 -->
      <g transform="translate(36.586247 96.603407)scale(0.1 -0.1)">
       <use xlink:href="#DejaVuSans-30"/>
      </g>
     </g>
    </g>
    <g id="xtick_9">
     <g id="line2d_24">
      <g>
       <use xlink:href="#me62614e6f5" x="75.541525" y="82.00497" style="stroke: #000000; stroke-width: 0.8"/>
      </g>
     </g>
     <g id="text_18">
      <!-- 200 -->
      <g transform="translate(65.997775 96.603407)scale(0.1 -0.1)">
       <use xlink:href="#DejaVuSans-32"/>
       <use xlink:href="#DejaVuSans-30" x="63.623047"/>
       <use xlink:href="#DejaVuSans-30" x="127.246094"/>
      </g>
     </g>
    </g>
    <g id="xtick_10">
     <g id="line2d_25">
      <g>
       <use xlink:href="#me62614e6f5" x="111.315552" y="82.00497" style="stroke: #000000; stroke-width: 0.8"/>
      </g>
     </g>
     <g id="text_19">
      <!-- 400 -->
      <g transform="translate(101.771802 96.603407)scale(0.1 -0.1)">
       <use xlink:href="#DejaVuSans-34"/>
       <use xlink:href="#DejaVuSans-30" x="63.623047"/>
       <use xlink:href="#DejaVuSans-30" x="127.246094"/>
      </g>
     </g>
    </g>
   </g>
   <g id="matplotlib.axis_4">
    <g id="ytick_10">
     <g id="line2d_26">
      <g>
       <use xlink:href="#m318044a7ea" x="35.304688" y="72.002749" style="stroke: #000000; stroke-width: 0.8"/>
      </g>
     </g>
     <g id="text_20">
      <!-- −20 -->
      <g transform="translate(7.2 75.801967)scale(0.1 -0.1)">
       <use xlink:href="#DejaVuSans-2212"/>
       <use xlink:href="#DejaVuSans-32" x="83.789062"/>
       <use xlink:href="#DejaVuSans-30" x="147.412109"/>
      </g>
     </g>
    </g>
    <g id="ytick_11">
     <g id="line2d_27">
      <g>
       <use xlink:href="#m318044a7ea" x="35.304688" y="29.294818" style="stroke: #000000; stroke-width: 0.8"/>
      </g>
     </g>
     <g id="text_21">
      <!-- 0 -->
      <g transform="translate(21.942187 33.094036)scale(0.1 -0.1)">
       <use xlink:href="#DejaVuSans-30"/>
      </g>
     </g>
    </g>
   </g>
   <g id="line2d_28">
    <path d="M 39.767497 30.184761 
L 39.946368 30.304913 
L 40.125238 34.866539 
L 40.304108 31.36391 
L 40.661848 36.991071 
L 40.840718 35.917219 
L 41.377329 42.776643 
L 41.556199 41.599069 
L 41.735069 36.704296 
L 41.913939 36.615593 
L 42.092809 39.002807 
L 42.271679 37.851704 
L 42.450549 39.124742 
L 42.62942 39.165593 
L 42.80829 36.656499 
L 42.98716 38.2535 
L 43.16603 38.234228 
L 43.3449 40.109336 
L 43.52377 40.443385 
L 43.70264 39.895506 
L 43.881511 42.006941 
L 44.418121 44.596453 
L 44.775861 50.167339 
L 44.954731 50.495112 
L 45.133602 51.069655 
L 45.312472 46.304802 
L 45.491342 51.503996 
L 45.670212 51.263281 
L 45.849082 50.472235 
L 46.027952 47.568877 
L 46.206822 46.497213 
L 46.385692 48.299944 
L 46.564563 48.299923 
L 46.743433 47.141785 
L 46.922303 47.81125 
L 47.101173 46.164834 
L 47.280043 50.153948 
L 47.637783 43.323108 
L 47.816654 44.039912 
L 47.995524 42.734457 
L 48.174394 42.632021 
L 48.353264 44.402554 
L 48.532134 44.215258 
L 48.711004 42.07908 
L 49.068745 43.695066 
L 49.247615 43.854091 
L 49.426485 42.928405 
L 49.605355 40.198558 
L 49.784225 41.55385 
L 50.141965 40.006729 
L 50.320835 43.975603 
L 50.499706 44.87101 
L 50.857446 45.238083 
L 51.036316 44.541937 
L 51.215186 48.898835 
L 51.394056 48.800062 
L 51.572926 50.247168 
L 51.751797 53.320941 
L 52.109537 50.631247 
L 52.288407 52.026195 
L 52.467277 50.227217 
L 52.646147 51.041906 
L 52.825017 50.899925 
L 53.003888 53.246169 
L 53.182758 49.86266 
L 53.361628 55.54164 
L 53.540498 55.736927 
L 53.719368 54.252571 
L 53.898238 58.594829 
L 54.255979 59.164313 
L 54.613719 54.737816 
L 54.792589 55.600286 
L 54.971459 58.556782 
L 55.329199 53.036524 
L 55.508069 54.023088 
L 55.86581 52.458366 
L 56.04468 51.249144 
L 56.22355 50.813079 
L 56.40242 47.809224 
L 56.58129 51.520457 
L 56.76016 49.297885 
L 56.939031 48.485427 
L 57.117901 48.949097 
L 57.296771 46.443141 
L 57.475641 51.447664 
L 57.654511 48.967355 
L 57.833381 48.142925 
L 58.012251 50.562614 
L 58.191122 49.637789 
L 58.369992 50.287135 
L 58.727732 40.847342 
L 58.906602 39.906294 
L 59.264342 42.688008 
L 59.443212 43.382118 
L 59.800953 46.505094 
L 60.158693 48.356806 
L 60.516433 50.952325 
L 60.695303 52.935878 
L 60.874174 47.489681 
L 61.231914 52.816615 
L 61.410784 51.893279 
L 61.589654 52.584251 
L 61.768524 51.679217 
L 62.305135 45.670727 
L 62.484005 47.7928 
L 62.662875 45.42434 
L 62.841745 49.193139 
L 63.020615 49.437474 
L 63.199485 50.501273 
L 63.378355 52.7665 
L 63.557226 51.503057 
L 63.736096 51.894383 
L 63.914966 49.716588 
L 64.093836 52.88224 
L 64.451576 50.011729 
L 64.630446 49.741592 
L 64.809317 52.771315 
L 64.988187 53.308953 
L 65.345927 61.059004 
L 65.524797 54.055447 
L 65.703667 51.982274 
L 65.882537 48.154377 
L 66.061408 49.07049 
L 66.598018 44.810097 
L 66.776888 44.802282 
L 66.955758 45.289681 
L 67.134628 49.709124 
L 67.671239 45.114759 
L 67.850109 45.700375 
L 68.028979 41.980915 
L 68.207849 42.936507 
L 68.386719 45.617342 
L 68.565589 43.61399 
L 68.74446 44.614095 
L 68.92333 47.293421 
L 69.1022 47.026873 
L 69.28107 45.411441 
L 69.45994 44.895871 
L 69.63881 43.83367 
L 69.81768 35.059982 
L 69.996551 33.306564 
L 70.175421 30.035648 
L 70.354291 34.276216 
L 70.533161 33.496682 
L 70.712031 31.84371 
L 70.890901 32.622017 
L 71.069771 34.492581 
L 71.248642 33.645853 
L 71.427512 34.317686 
L 71.606382 35.58559 
L 72.142992 29.632753 
L 72.321862 30.60271 
L 72.679603 27.733102 
L 72.858473 26.386474 
L 73.037343 29.489983 
L 73.216213 30.211785 
L 73.395083 29.444893 
L 73.752823 26.064555 
L 73.931694 24.445134 
L 74.468304 30.986213 
L 74.647174 27.13294 
L 74.826044 26.747694 
L 75.004914 25.566468 
L 75.183785 23.360542 
L 75.362655 24.063092 
L 75.541525 26.52094 
L 75.720395 27.431735 
L 75.899265 27.748088 
L 76.257005 22.684988 
L 76.435875 25.006357 
L 76.793616 22.018711 
L 76.972486 24.285147 
L 77.151356 24.516874 
L 77.330226 28.46822 
L 77.509096 27.762497 
L 77.687966 28.436627 
L 78.045707 32.810289 
L 78.224577 32.297898 
L 78.403447 33.478664 
L 78.582317 32.839056 
L 78.761187 31.6589 
L 78.940057 33.453579 
L 79.118928 34.120401 
L 79.297798 29.540662 
L 79.476668 29.282054 
L 79.655538 31.090369 
L 79.834408 30.961258 
L 80.013278 33.819676 
L 80.192148 31.400814 
L 80.371019 30.610066 
L 80.728759 26.364928 
L 80.907629 25.53149 
L 81.086499 23.448391 
L 81.265369 23.039305 
L 81.80198 27.596025 
L 81.98085 32.946172 
L 82.15972 29.04695 
L 82.33859 32.707163 
L 82.51746 32.870819 
L 83.054071 40.18542 
L 83.411811 41.177078 
L 83.590681 40.00486 
L 83.769551 41.325337 
L 84.127291 39.420465 
L 84.485032 40.740916 
L 84.663902 39.591167 
L 84.842772 39.468914 
L 85.021642 39.129197 
L 85.200512 44.199488 
L 85.379382 44.074525 
L 85.558252 43.27045 
L 85.737123 43.559753 
L 85.915993 42.842455 
L 86.094863 38.775858 
L 86.273733 38.593571 
L 86.452603 37.172818 
L 87.168084 44.010297 
L 87.346954 44.026528 
L 87.525824 46.020627 
L 87.704694 46.394315 
L 88.241305 54.434095 
L 88.599045 58.106973 
L 88.956785 60.164123 
L 89.493395 53.459304 
L 89.672266 54.226924 
L 89.851136 51.030339 
L 90.208876 58.620552 
L 90.387746 58.048325 
L 90.566616 58.053036 
L 90.745486 58.35048 
L 90.924357 58.280939 
L 91.282097 64.254197 
L 91.639837 59.423462 
L 91.818707 60.964961 
L 91.997577 56.836904 
L 92.355318 60.343605 
L 92.534188 59.719147 
L 92.891928 63.312871 
L 93.070798 63.682446 
L 93.249668 64.526668 
L 93.607409 61.4012 
L 93.965149 65.203974 
L 94.144019 64.81946 
L 94.322889 64.962384 
L 94.501759 66.644542 
L 94.680629 65.737524 
L 94.8595 63.986745 
L 95.03837 65.334433 
L 95.21724 63.649478 
L 95.57498 70.551449 
L 95.75385 69.483879 
L 96.290461 73.957243 
L 96.469331 75.403676 
L 96.648201 74.705258 
L 96.827071 77.813028 
L 97.005941 78.606368 
L 97.184811 71.856452 
L 97.363682 71.621663 
L 97.542552 75.707794 
L 97.900292 73.253786 
L 98.079162 70.298865 
L 98.258032 69.98208 
L 98.436902 71.377651 
L 98.794643 66.848698 
L 98.973513 70.693941 
L 99.152383 69.097521 
L 99.331253 69.594848 
L 99.510123 67.22318 
L 99.688993 68.020407 
L 99.867863 66.341673 
L 100.046734 65.927046 
L 100.225604 64.675268 
L 100.404474 64.718803 
L 100.583344 65.603729 
L 100.762214 65.459988 
L 101.119954 63.219121 
L 101.298825 59.770079 
L 101.656565 57.504488 
L 101.835435 53.015395 
L 102.014305 52.874188 
L 102.193175 51.730559 
L 102.372045 53.018504 
L 102.550915 52.928908 
L 102.729786 49.422769 
L 102.908656 48.757171 
L 103.087526 45.658347 
L 103.445266 50.923751 
L 103.624136 50.267062 
L 103.803006 53.191784 
L 104.160747 44.823619 
L 104.339617 47.483739 
L 104.518487 47.84071 
L 104.697357 49.072003 
L 104.876227 48.183632 
L 105.055097 48.307159 
L 105.412838 43.181738 
L 105.591708 43.654346 
L 105.770578 46.159499 
L 105.949448 44.957977 
L 106.128318 45.309282 
L 106.307188 42.864562 
L 106.486059 43.189393 
L 106.843799 40.699831 
L 107.022669 41.103515 
L 107.201539 42.063009 
L 107.380409 40.539352 
L 107.559279 35.137365 
L 107.738149 33.348723 
L 107.91702 33.629917 
L 108.09589 32.118926 
L 108.27476 31.875375 
L 108.45363 34.610594 
L 108.6325 33.94895 
L 108.81137 30.642735 
L 108.99024 31.317153 
L 109.169111 33.721404 
L 109.347981 32.67827 
L 109.705721 26.760825 
L 109.884591 24.58546 
L 110.242331 16.207293 
L 110.421202 14.685431 
L 110.600072 15.131096 
L 110.778942 14.837227 
L 110.957812 15.057925 
L 111.136682 13.24636 
L 111.315552 15.132183 
L 111.494422 11.83217 
L 111.673292 11.520743 
L 111.852163 12.375128 
L 112.031033 10.63434 
L 112.388773 16.846977 
L 112.567643 18.251467 
L 112.746513 16.499237 
L 112.925383 17.543781 
L 113.104254 14.500911 
L 113.283124 15.45513 
L 113.461994 14.342355 
L 113.640864 15.85463 
L 113.819734 13.387114 
L 113.998604 13.930638 
L 114.177474 12.822527 
L 114.356345 13.875267 
L 114.535215 16.195478 
L 114.714085 16.688579 
L 114.892955 14.343892 
L 115.429565 20.440998 
L 115.608435 18.773778 
L 115.966176 22.189821 
L 116.145046 21.796264 
L 116.323916 22.502388 
L 116.502786 21.889084 
L 116.681656 19.34897 
L 116.860526 19.303696 
L 117.039397 19.443372 
L 117.218267 17.807411 
L 117.397137 17.939026 
L 117.933747 24.521651 
L 118.112617 20.43749 
L 118.291488 20.534145 
L 118.649228 17.769414 
L 118.828098 19.774549 
L 119.006968 18.431864 
L 119.185838 19.637281 
L 119.364708 24.095578 
L 119.543579 24.554795 
L 119.722449 26.850407 
L 119.901319 27.572112 
L 120.080189 26.839217 
L 120.259059 21.965089 
L 120.437929 23.023774 
L 120.616799 23.3739 
L 120.97454 22.182041 
L 121.15341 22.520351 
L 121.51115 26.87561 
L 121.69002 27.267192 
L 122.226631 33.820774 
L 122.405501 31.419557 
L 122.584371 34.618039 
L 122.763241 30.556478 
L 122.942111 31.795826 
L 123.299851 36.574145 
L 123.657592 32.717452 
L 123.836462 34.529691 
L 124.015332 33.821722 
L 124.373072 34.658866 
L 124.551942 34.336 
L 124.730812 32.702273 
L 125.088553 41.551296 
L 125.267423 41.109932 
L 125.446293 41.261281 
L 125.625163 39.799047 
L 125.982903 45.552037 
L 126.161774 42.255975 
L 126.340644 45.053922 
L 126.519514 44.277846 
L 127.056124 49.782721 
L 127.234994 47.250036 
L 127.592735 53.873954 
L 127.771605 55.817305 
L 127.950475 53.305109 
L 128.129345 52.666176 
L 128.308215 51.215671 
L 128.487085 51.253384 
L 128.665955 50.749343 
L 128.844826 49.69438 
L 129.023696 46.392464 
L 129.023696 46.392464 
" clip-path="url(#p82e0e33eee)" style="fill: none; stroke: #101820; stroke-width: 2; stroke-linecap: square"/>
   </g>
   <g id="patch_8">
    <path d="M 35.304688 82.00497 
L 35.304688 7.235739 
" style="fill: none; stroke: #000000; stroke-width: 0.8; stroke-linejoin: miter; stroke-linecap: square"/>
   </g>
   <g id="patch_9">
    <path d="M 133.486506 82.00497 
L 133.486506 7.235739 
" style="fill: none; stroke: #000000; stroke-width: 0.8; stroke-linejoin: miter; stroke-linecap: square"/>
   </g>
   <g id="patch_10">
    <path d="M 35.304688 82.00497 
L 133.486506 82.00497 
" style="fill: none; stroke: #000000; stroke-width: 0.8; stroke-linejoin: miter; stroke-linecap: square"/>
   </g>
   <g id="patch_11">
    <path d="M 35.304688 7.235739 
L 133.486506 7.235739 
" style="fill: none; stroke: #000000; stroke-width: 0.8; stroke-linejoin: miter; stroke-linecap: square"/>
   </g>
  </g>
  <g id="axes_3">
   <g id="patch_12">
    <path d="M 153.122869 82.00497 
L 251.304687 82.00497 
L 251.304687 7.235739 
L 153.122869 7.235739 
z
" style="fill: #ffffff"/>
   </g>
   <g id="matplotlib.axis_5">
    <g id="xtick_11">
     <g id="line2d_29">
      <g>
       <use xlink:href="#me62614e6f5" x="157.585679" y="82.00497" style="stroke: #000000; stroke-width: 0.8"/>
      </g>
     </g>
     <g id="text_22">
      <!-- 0 -->
      <g transform="translate(154.404429 96.603407)scale(0.1 -0.1)">
       <use xlink:href="#DejaVuSans-30"/>
      </g>
     </g>
    </g>
    <g id="xtick_12">
     <g id="line2d_30">
      <g>
       <use xlink:href="#me62614e6f5" x="193.359707" y="82.00497" style="stroke: #000000; stroke-width: 0.8"/>
      </g>
     </g>
     <g id="text_23">
      <!-- 200 -->
      <g transform="translate(183.815957 96.603407)scale(0.1 -0.1)">
       <use xlink:href="#DejaVuSans-32"/>
       <use xlink:href="#DejaVuSans-30" x="63.623047"/>
       <use xlink:href="#DejaVuSans-30" x="127.246094"/>
      </g>
     </g>
    </g>
    <g id="xtick_13">
     <g id="line2d_31">
      <g>
       <use xlink:href="#me62614e6f5" x="229.133734" y="82.00497" style="stroke: #000000; stroke-width: 0.8"/>
      </g>
     </g>
     <g id="text_24">
      <!-- 400 -->
      <g transform="translate(219.589984 96.603407)scale(0.1 -0.1)">
       <use xlink:href="#DejaVuSans-34"/>
       <use xlink:href="#DejaVuSans-30" x="63.623047"/>
       <use xlink:href="#DejaVuSans-30" x="127.246094"/>
      </g>
     </g>
    </g>
   </g>
   <g id="matplotlib.axis_6">
    <g id="ytick_12">
     <g id="line2d_32">
      <g>
       <use xlink:href="#m318044a7ea" x="153.122869" y="53.668096" style="stroke: #000000; stroke-width: 0.8"/>
      </g>
     </g>
     <g id="text_25">
      <!-- −50 -->
      <g transform="translate(125.018182 57.467315)scale(0.1 -0.1)">
       <use xlink:href="#DejaVuSans-2212"/>
       <use xlink:href="#DejaVuSans-35" x="83.789062"/>
       <use xlink:href="#DejaVuSans-30" x="147.412109"/>
      </g>
     </g>
    </g>
    <g id="ytick_13">
     <g id="line2d_33">
      <g>
       <use xlink:href="#m318044a7ea" x="153.122869" y="10.999219" style="stroke: #000000; stroke-width: 0.8"/>
      </g>
     </g>
     <g id="text_26">
      <!-- 0 -->
      <g transform="translate(139.760369 14.798437)scale(0.1 -0.1)">
       <use xlink:href="#DejaVuSans-30"/>
      </g>
     </g>
    </g>
   </g>
   <g id="line2d_34">
    <path d="M 157.585679 10.63434 
L 157.764549 12.805328 
L 157.94342 11.109807 
L 158.12229 10.968565 
L 158.30116 12.605463 
L 158.48003 12.86603 
L 158.6589 14.318635 
L 158.83777 11.234323 
L 159.01664 11.743709 
L 159.19551 14.702969 
L 159.374381 14.25476 
L 159.553251 15.481392 
L 159.732121 13.576471 
L 159.910991 13.377039 
L 160.089861 16.005976 
L 160.268731 16.746193 
L 160.626472 19.474778 
L 160.805342 20.426293 
L 160.984212 23.395464 
L 161.163082 23.105369 
L 161.520822 25.720864 
L 161.699692 24.609482 
L 161.878563 21.805639 
L 162.057433 22.735477 
L 162.236303 20.057045 
L 162.415173 23.096398 
L 162.594043 22.264668 
L 162.772913 23.125022 
L 162.951783 23.234406 
L 163.309524 25.571595 
L 163.667264 26.549726 
L 163.846134 25.941575 
L 164.025004 22.502952 
L 164.203874 23.440141 
L 164.382744 23.668374 
L 164.740485 29.978159 
L 164.919355 27.921891 
L 165.277095 30.98885 
L 165.455965 30.957425 
L 165.634835 29.611004 
L 165.813706 29.144996 
L 165.992576 26.386566 
L 166.171446 26.656315 
L 166.350316 29.358663 
L 166.708056 28.976715 
L 167.065796 30.678796 
L 167.244667 31.545532 
L 167.423537 28.981756 
L 167.602407 29.887459 
L 167.781277 31.947097 
L 167.960147 31.534068 
L 168.139017 34.227495 
L 168.496758 32.994758 
L 169.033368 35.957816 
L 169.212238 33.570882 
L 169.391108 32.987105 
L 169.748849 36.610334 
L 170.106589 36.744672 
L 170.285459 37.880325 
L 170.464329 37.449854 
L 170.643199 37.741528 
L 171.00094 35.50334 
L 171.17981 35.641095 
L 171.35868 35.440619 
L 171.53755 36.745345 
L 171.89529 34.871199 
L 172.07416 35.487555 
L 172.25303 35.313441 
L 172.431901 36.106712 
L 172.610771 32.430421 
L 172.789641 33.097575 
L 173.147381 31.791998 
L 173.326251 32.972032 
L 173.505121 32.96367 
L 173.683992 33.438041 
L 174.041732 32.690389 
L 174.399472 30.398391 
L 174.757212 31.775907 
L 175.114953 33.9226 
L 175.293823 36.498729 
L 175.472693 35.606446 
L 175.651563 35.724123 
L 175.830433 36.036403 
L 176.545914 44.575607 
L 176.903654 42.70798 
L 177.082524 42.82343 
L 177.261394 44.417907 
L 177.619135 44.427696 
L 177.976875 42.252504 
L 178.155745 42.646027 
L 178.334615 42.697295 
L 178.692355 40.992489 
L 178.871226 41.244801 
L 179.050096 44.450222 
L 179.228966 45.43342 
L 179.407836 44.193724 
L 179.586706 43.972264 
L 179.765576 42.563379 
L 179.944446 43.073679 
L 180.123316 42.955032 
L 180.481057 40.76546 
L 180.659927 40.186516 
L 181.196537 34.548306 
L 181.375407 36.989642 
L 181.912018 38.733056 
L 182.090888 41.153603 
L 182.269758 39.230426 
L 182.448628 40.710448 
L 182.627498 40.563379 
L 182.806369 44.117049 
L 183.342979 46.631274 
L 183.521849 45.544269 
L 183.700719 42.025691 
L 184.05846 44.598743 
L 184.23733 42.009392 
L 184.4162 41.178643 
L 184.59507 41.645859 
L 184.77394 43.537164 
L 184.95281 42.454239 
L 185.13168 42.13917 
L 185.31055 39.844411 
L 185.489421 41.131759 
L 185.668291 41.388299 
L 186.026031 42.163953 
L 186.383771 39.35557 
L 186.562641 40.302169 
L 186.741512 40.438631 
L 186.920382 40.779795 
L 187.099252 39.465589 
L 187.278122 39.726097 
L 187.456992 41.378549 
L 187.635862 41.888947 
L 187.814732 41.959566 
L 188.172473 38.718037 
L 188.351343 36.810162 
L 188.530213 36.271975 
L 188.709083 37.03753 
L 188.887953 36.178335 
L 189.066823 36.460539 
L 189.245693 37.384722 
L 189.603434 36.365503 
L 189.782304 35.089122 
L 189.961174 36.426622 
L 190.140044 38.900412 
L 190.318914 38.162571 
L 190.497784 39.598291 
L 190.676655 38.134753 
L 191.213265 43.332755 
L 191.392135 40.322397 
L 191.571005 41.018293 
L 191.749875 41.160145 
L 192.107616 42.334723 
L 192.286486 41.132033 
L 192.465356 41.001767 
L 192.644226 41.044537 
L 192.823096 39.311203 
L 193.001966 41.336817 
L 193.359707 37.360126 
L 193.538577 39.439359 
L 193.717447 39.065481 
L 193.896317 40.995033 
L 194.254057 45.424871 
L 194.611798 43.586098 
L 194.790668 44.157567 
L 195.148408 46.141001 
L 195.506148 48.187932 
L 195.685018 51.777117 
L 196.042759 52.359638 
L 196.221629 49.163317 
L 196.400499 48.191395 
L 196.579369 48.428278 
L 196.758239 48.3499 
L 196.937109 47.894121 
L 197.11598 48.96173 
L 197.29485 52.070985 
L 197.47372 53.181587 
L 197.65259 53.548366 
L 197.83146 53.410059 
L 198.36807 56.326429 
L 198.546941 56.281997 
L 198.725811 55.473093 
L 198.904681 55.866736 
L 199.083551 55.254652 
L 199.262421 56.766724 
L 199.441291 55.599736 
L 199.620161 55.719089 
L 199.799032 57.769455 
L 199.977902 58.178394 
L 200.156772 58.055974 
L 200.335642 59.663245 
L 200.514512 58.625604 
L 200.693382 59.152006 
L 200.872252 58.513486 
L 201.051123 60.017982 
L 201.229993 59.592665 
L 201.408863 58.551421 
L 201.945473 60.429021 
L 202.124343 59.968441 
L 202.303213 59.953609 
L 202.482084 59.245891 
L 202.660954 59.364591 
L 203.197564 63.939982 
L 203.376434 63.289315 
L 203.734175 58.719812 
L 203.913045 59.655831 
L 204.091915 62.679813 
L 204.270785 61.948905 
L 204.449655 61.951791 
L 204.628525 63.772306 
L 204.807395 62.477956 
L 204.986266 62.493884 
L 205.165136 63.12996 
L 205.344006 66.012651 
L 205.522876 64.609761 
L 205.701746 64.534516 
L 205.880616 64.92772 
L 206.238356 66.941977 
L 206.953837 59.895462 
L 207.132707 59.403608 
L 207.311577 58.096443 
L 207.490447 57.876375 
L 207.848188 60.950104 
L 208.027058 60.475139 
L 208.563668 64.518897 
L 208.742538 62.039331 
L 209.279149 66.891942 
L 209.636889 63.821026 
L 209.815759 64.656325 
L 209.994629 63.821022 
L 210.1735 65.156274 
L 210.35237 65.16757 
L 210.53124 61.319059 
L 210.71011 59.935688 
L 210.88898 60.010873 
L 211.06785 61.983259 
L 211.24672 62.438516 
L 211.42559 64.402776 
L 211.604461 67.644186 
L 211.962201 65.906331 
L 212.141071 65.619687 
L 212.319941 64.151193 
L 212.498811 66.630791 
L 212.677681 64.573093 
L 212.856552 66.18237 
L 213.214292 64.961873 
L 213.393162 63.373867 
L 213.572032 60.423429 
L 213.750902 59.912822 
L 213.929772 60.478641 
L 214.108643 62.124204 
L 214.287513 61.742852 
L 214.824123 65.304627 
L 215.002993 64.312609 
L 215.181863 64.770793 
L 215.360733 66.327716 
L 215.539604 66.118357 
L 215.897344 70.201555 
L 216.076214 68.04506 
L 216.255084 67.686069 
L 216.433954 64.759119 
L 216.612824 66.938757 
L 216.791695 65.406095 
L 216.970565 65.667505 
L 217.149435 61.706741 
L 217.328305 62.025158 
L 217.507175 62.682103 
L 217.864915 61.776354 
L 218.043786 62.454999 
L 218.580396 58.778064 
L 218.759266 58.186208 
L 219.117006 60.270219 
L 219.295876 59.39372 
L 219.474747 60.781735 
L 219.653617 58.271866 
L 219.832487 58.223836 
L 220.011357 59.397705 
L 220.190227 57.864088 
L 220.369097 57.893935 
L 220.547967 56.124392 
L 220.726838 55.811351 
L 220.905708 53.197642 
L 221.084578 53.764469 
L 221.621188 61.649012 
L 221.800058 60.777093 
L 221.978929 58.103008 
L 222.157799 58.391292 
L 222.336669 60.363598 
L 222.694409 58.683563 
L 222.873279 59.24696 
L 223.052149 58.643975 
L 223.23102 58.6345 
L 223.40989 60.334629 
L 223.58876 59.321222 
L 223.76763 60.067316 
L 223.9465 61.471045 
L 224.12537 61.820353 
L 224.661981 54.532597 
L 224.840851 55.264257 
L 225.019721 56.782509 
L 225.198591 56.274129 
L 225.377461 56.513585 
L 225.556331 56.308082 
L 226.092942 60.879109 
L 226.450682 58.166773 
L 226.629552 59.175755 
L 226.987292 57.366341 
L 227.166163 58.46003 
L 227.345033 58.445432 
L 227.523903 57.243101 
L 227.702773 58.742867 
L 227.881643 56.900746 
L 228.060513 57.205485 
L 228.239383 57.117734 
L 228.418253 57.478905 
L 228.597124 59.669102 
L 228.775994 59.167973 
L 228.954864 59.178064 
L 229.312604 60.10938 
L 229.491474 59.492558 
L 229.670344 59.710454 
L 229.849215 60.494202 
L 230.028085 60.375319 
L 230.206955 59.260598 
L 230.385825 59.207497 
L 230.564695 60.384328 
L 230.743565 59.156212 
L 230.922435 59.594331 
L 231.101306 58.729115 
L 231.280176 58.944864 
L 231.995656 63.902466 
L 232.174526 67.232144 
L 232.353396 66.666022 
L 232.532267 65.040698 
L 232.711137 65.398636 
L 233.068877 69.50254 
L 233.247747 69.169499 
L 233.426617 68.560561 
L 233.605487 68.475444 
L 233.784358 67.446157 
L 234.142098 68.813344 
L 234.320968 68.405758 
L 234.499838 68.739853 
L 234.857578 67.2872 
L 235.036449 67.688977 
L 235.394189 70.184505 
L 235.573059 68.565191 
L 235.751929 70.345064 
L 235.930799 70.256776 
L 236.109669 71.729438 
L 236.28854 68.319306 
L 236.46741 69.257217 
L 236.64628 68.320533 
L 236.82515 69.752066 
L 237.00402 65.034138 
L 237.18289 67.009206 
L 237.36176 66.482361 
L 237.54063 68.334508 
L 237.719501 67.123643 
L 237.898371 68.979851 
L 238.077241 69.635402 
L 238.256111 71.99316 
L 238.434981 72.581006 
L 238.613851 72.580077 
L 238.792721 70.006384 
L 238.971592 73.410482 
L 239.150462 72.605051 
L 239.329332 72.543073 
L 239.508202 73.443105 
L 239.687072 73.756748 
L 239.865942 73.179259 
L 240.223683 73.29983 
L 240.581423 75.046409 
L 240.760293 74.331038 
L 241.118033 76.461588 
L 241.296903 76.353055 
L 241.654644 75.300701 
L 241.833514 75.59926 
L 242.012384 78.606368 
L 242.370124 76.000554 
L 242.548994 74.234957 
L 242.727864 73.733204 
L 242.906735 72.48659 
L 243.085605 72.925842 
L 243.264475 74.572898 
L 243.622215 75.201123 
L 243.979955 72.563242 
L 244.337696 73.969895 
L 244.516566 74.048034 
L 244.695436 73.954925 
L 244.874306 71.878899 
L 245.053176 72.620181 
L 245.232046 70.739685 
L 245.589787 73.836407 
L 245.768657 71.400694 
L 245.947527 70.849029 
L 246.126397 70.727927 
L 246.305267 69.887297 
L 246.484137 70.233884 
L 246.663007 70.181988 
L 246.841878 69.891121 
L 246.841878 69.891121 
" clip-path="url(#p37dddda1da)" style="fill: none; stroke: #1b362c; stroke-width: 2; stroke-linecap: square"/>
   </g>
   <g id="patch_13">
    <path d="M 153.122869 82.00497 
L 153.122869 7.235739 
" style="fill: none; stroke: #000000; stroke-width: 0.8; stroke-linejoin: miter; stroke-linecap: square"/>
   </g>
   <g id="patch_14">
    <path d="M 251.304687 82.00497 
L 251.304687 7.235739 
" style="fill: none; stroke: #000000; stroke-width: 0.8; stroke-linejoin: miter; stroke-linecap: square"/>
   </g>
   <g id="patch_15">
    <path d="M 153.122869 82.00497 
L 251.304687 82.00497 
" style="fill: none; stroke: #000000; stroke-width: 0.8; stroke-linejoin: miter; stroke-linecap: square"/>
   </g>
   <g id="patch_16">
    <path d="M 153.122869 7.235739 
L 251.304687 7.235739 
" style="fill: none; stroke: #000000; stroke-width: 0.8; stroke-linejoin: miter; stroke-linecap: square"/>
   </g>
  </g>
  <g id="axes_4">
   <g id="patch_17">
    <path d="M 35.304688 201.635739 
L 133.486506 201.635739 
L 133.486506 126.866508 
L 35.304688 126.866508 
z
" style="fill: #ffffff"/>
   </g>
   <g id="patch_18">
    <path d="M 39.767497 201.635739 
L 42.845297 201.635739 
L 42.845297 201.635739 
L 39.767497 201.635739 
z
" clip-path="url(#pe4377ee144)" style="fill: #101820; stroke: #000000; stroke-linejoin: miter"/>
   </g>
   <g id="patch_19">
    <path d="M 42.845297 201.635739 
L 45.923097 201.635739 
L 45.923097 201.635739 
L 42.845297 201.635739 
z
" clip-path="url(#pe4377ee144)" style="fill: #101820; stroke: #000000; stroke-linejoin: miter"/>
   </g>
   <g id="patch_20">
    <path d="M 45.923097 201.635739 
L 49.000897 201.635739 
L 49.000897 201.635739 
L 45.923097 201.635739 
z
" clip-path="url(#pe4377ee144)" style="fill: #101820; stroke: #000000; stroke-linejoin: miter"/>
   </g>
   <g id="patch_21">
    <path d="M 49.000897 201.635739 
L 52.078697 201.635739 
L 52.078697 201.635739 
L 49.000897 201.635739 
z
" clip-path="url(#pe4377ee144)" style="fill: #101820; stroke: #000000; stroke-linejoin: miter"/>
   </g>
   <g id="patch_22">
    <path d="M 52.078697 201.635739 
L 55.156497 201.635739 
L 55.156497 201.635739 
L 52.078697 201.635739 
z
" clip-path="url(#pe4377ee144)" style="fill: #101820; stroke: #000000; stroke-linejoin: miter"/>
   </g>
   <g id="patch_23">
    <path d="M 55.156497 201.635739 
L 58.234297 201.635739 
L 58.234297 201.635739 
L 55.156497 201.635739 
z
" clip-path="url(#pe4377ee144)" style="fill: #101820; stroke: #000000; stroke-linejoin: miter"/>
   </g>
   <g id="patch_24">
    <path d="M 58.234297 201.635739 
L 61.312097 201.635739 
L 61.312097 201.635739 
L 58.234297 201.635739 
z
" clip-path="url(#pe4377ee144)" style="fill: #101820; stroke: #000000; stroke-linejoin: miter"/>
   </g>
   <g id="patch_25">
    <path d="M 61.312097 201.635739 
L 64.389897 201.635739 
L 64.389897 201.635739 
L 61.312097 201.635739 
z
" clip-path="url(#pe4377ee144)" style="fill: #101820; stroke: #000000; stroke-linejoin: miter"/>
   </g>
   <g id="patch_26">
    <path d="M 64.389897 201.635739 
L 67.467697 201.635739 
L 67.467697 201.635739 
L 64.389897 201.635739 
z
" clip-path="url(#pe4377ee144)" style="fill: #101820; stroke: #000000; stroke-linejoin: miter"/>
   </g>
   <g id="patch_27">
    <path d="M 67.467697 201.635739 
L 70.545497 201.635739 
L 70.545497 201.635739 
L 67.467697 201.635739 
z
" clip-path="url(#pe4377ee144)" style="fill: #101820; stroke: #000000; stroke-linejoin: miter"/>
   </g>
   <g id="patch_28">
    <path d="M 70.545497 201.635739 
L 73.623297 201.635739 
L 73.623297 201.635739 
L 70.545497 201.635739 
z
" clip-path="url(#pe4377ee144)" style="fill: #101820; stroke: #000000; stroke-linejoin: miter"/>
   </g>
   <g id="patch_29">
    <path d="M 73.623297 201.635739 
L 76.701097 201.635739 
L 76.701097 191.974245 
L 73.623297 191.974245 
z
" clip-path="url(#pe4377ee144)" style="fill: #101820; stroke: #000000; stroke-linejoin: miter"/>
   </g>
   <g id="patch_30">
    <path d="M 76.701097 201.635739 
L 79.778897 201.635739 
L 79.778897 167.283759 
L 76.701097 167.283759 
z
" clip-path="url(#pe4377ee144)" style="fill: #101820; stroke: #000000; stroke-linejoin: miter"/>
   </g>
   <g id="patch_31">
    <path d="M 79.778897 201.635739 
L 82.856697 201.635739 
L 82.856697 130.426948 
L 79.778897 130.426948 
z
" clip-path="url(#pe4377ee144)" style="fill: #101820; stroke: #000000; stroke-linejoin: miter"/>
   </g>
   <g id="patch_32">
    <path d="M 82.856697 201.635739 
L 85.934497 201.635739 
L 85.934497 155.117433 
L 82.856697 155.117433 
z
" clip-path="url(#pe4377ee144)" style="fill: #101820; stroke: #000000; stroke-linejoin: miter"/>
   </g>
   <g id="patch_33">
    <path d="M 85.934497 201.635739 
L 89.012297 201.635739 
L 89.012297 184.459749 
L 85.934497 184.459749 
z
" clip-path="url(#pe4377ee144)" style="fill: #101820; stroke: #000000; stroke-linejoin: miter"/>
   </g>
   <g id="patch_34">
    <path d="M 89.012297 201.635739 
L 92.090096 201.635739 
L 92.090096 201.635739 
L 89.012297 201.635739 
z
" clip-path="url(#pe4377ee144)" style="fill: #101820; stroke: #000000; stroke-linejoin: miter"/>
   </g>
   <g id="patch_35">
    <path d="M 92.090096 201.635739 
L 95.167896 201.635739 
L 95.167896 201.635739 
L 92.090096 201.635739 
z
" clip-path="url(#pe4377ee144)" style="fill: #101820; stroke: #000000; stroke-linejoin: miter"/>
   </g>
   <g id="patch_36">
    <path d="M 95.167896 201.635739 
L 98.245696 201.635739 
L 98.245696 201.635739 
L 95.167896 201.635739 
z
" clip-path="url(#pe4377ee144)" style="fill: #101820; stroke: #000000; stroke-linejoin: miter"/>
   </g>
   <g id="patch_37">
    <path d="M 98.245696 201.635739 
L 101.323496 201.635739 
L 101.323496 201.635739 
L 98.245696 201.635739 
z
" clip-path="url(#pe4377ee144)" style="fill: #101820; stroke: #000000; stroke-linejoin: miter"/>
   </g>
   <g id="patch_38">
    <path d="M 101.323496 201.635739 
L 104.401296 201.635739 
L 104.401296 201.635739 
L 101.323496 201.635739 
z
" clip-path="url(#pe4377ee144)" style="fill: #101820; stroke: #000000; stroke-linejoin: miter"/>
   </g>
   <g id="patch_39">
    <path d="M 104.401296 201.635739 
L 107.479096 201.635739 
L 107.479096 201.635739 
L 104.401296 201.635739 
z
" clip-path="url(#pe4377ee144)" style="fill: #101820; stroke: #000000; stroke-linejoin: miter"/>
   </g>
   <g id="patch_40">
    <path d="M 107.479096 201.635739 
L 110.556896 201.635739 
L 110.556896 201.635739 
L 107.479096 201.635739 
z
" clip-path="url(#pe4377ee144)" style="fill: #101820; stroke: #000000; stroke-linejoin: miter"/>
   </g>
   <g id="patch_41">
    <path d="M 110.556896 201.635739 
L 113.634696 201.635739 
L 113.634696 201.635739 
L 110.556896 201.635739 
z
" clip-path="url(#pe4377ee144)" style="fill: #101820; stroke: #000000; stroke-linejoin: miter"/>
   </g>
   <g id="patch_42">
    <path d="M 113.634696 201.635739 
L 116.712496 201.635739 
L 116.712496 201.635739 
L 113.634696 201.635739 
z
" clip-path="url(#pe4377ee144)" style="fill: #101820; stroke: #000000; stroke-linejoin: miter"/>
   </g>
   <g id="patch_43">
    <path d="M 116.712496 201.635739 
L 119.790296 201.635739 
L 119.790296 201.635739 
L 116.712496 201.635739 
z
" clip-path="url(#pe4377ee144)" style="fill: #101820; stroke: #000000; stroke-linejoin: miter"/>
   </g>
   <g id="patch_44">
    <path d="M 119.790296 201.635739 
L 122.868096 201.635739 
L 122.868096 201.635739 
L 119.790296 201.635739 
z
" clip-path="url(#pe4377ee144)" style="fill: #101820; stroke: #000000; stroke-linejoin: miter"/>
   </g>
   <g id="patch_45">
    <path d="M 122.868096 201.635739 
L 125.945896 201.635739 
L 125.945896 201.635739 
L 122.868096 201.635739 
z
" clip-path="url(#pe4377ee144)" style="fill: #101820; stroke: #000000; stroke-linejoin: miter"/>
   </g>
   <g id="patch_46">
    <path d="M 125.945896 201.635739 
L 129.023696 201.635739 
L 129.023696 201.635739 
L 125.945896 201.635739 
z
" clip-path="url(#pe4377ee144)" style="fill: #101820; stroke: #000000; stroke-linejoin: miter"/>
   </g>
   <g id="matplotlib.axis_7">
    <g id="xtick_14">
     <g id="line2d_35">
      <g>
       <use xlink:href="#me62614e6f5" x="39.767497" y="201.635739" style="stroke: #000000; stroke-width: 0.8"/>
      </g>
     </g>
     <g id="text_27">
      <!-- −100 -->
      <g transform="translate(26.033904 216.234176)scale(0.1 -0.1)">
       <use xlink:href="#DejaVuSans-2212"/>
       <use xlink:href="#DejaVuSans-31" x="83.789062"/>
       <use xlink:href="#DejaVuSans-30" x="147.412109"/>
       <use xlink:href="#DejaVuSans-30" x="211.035156"/>
      </g>
     </g>
    </g>
    <g id="xtick_15">
     <g id="line2d_36">
      <g>
       <use xlink:href="#me62614e6f5" x="84.395597" y="201.635739" style="stroke: #000000; stroke-width: 0.8"/>
      </g>
     </g>
     <g id="text_28">
      <!-- 0 -->
      <g transform="translate(81.214347 216.234176)scale(0.1 -0.1)">
       <use xlink:href="#DejaVuSans-30"/>
      </g>
     </g>
    </g>
    <g id="xtick_16">
     <g id="line2d_37">
      <g>
       <use xlink:href="#me62614e6f5" x="129.023696" y="201.635739" style="stroke: #000000; stroke-width: 0.8"/>
      </g>
     </g>
     <g id="text_29">
      <!-- 100 -->
      <g transform="translate(119.479946 216.234176)scale(0.1 -0.1)">
       <use xlink:href="#DejaVuSans-31"/>
       <use xlink:href="#DejaVuSans-30" x="63.623047"/>
       <use xlink:href="#DejaVuSans-30" x="127.246094"/>
      </g>
     </g>
    </g>
   </g>
   <g id="matplotlib.axis_8">
    <g id="ytick_14">
     <g id="line2d_38">
      <g>
       <use xlink:href="#m318044a7ea" x="35.304688" y="201.635739" style="stroke: #000000; stroke-width: 0.8"/>
      </g>
     </g>
     <g id="text_30">
      <!-- 0 -->
      <g transform="translate(21.942187 205.434958)scale(0.1 -0.1)">
       <use xlink:href="#DejaVuSans-30"/>
      </g>
     </g>
    </g>
    <g id="ytick_15">
     <g id="line2d_39">
      <g>
       <use xlink:href="#m318044a7ea" x="35.304688" y="165.852427" style="stroke: #000000; stroke-width: 0.8"/>
      </g>
     </g>
     <g id="text_31">
      <!-- 100 -->
      <g transform="translate(9.217187 169.651646)scale(0.1 -0.1)">
       <use xlink:href="#DejaVuSans-31"/>
       <use xlink:href="#DejaVuSans-30" x="63.623047"/>
       <use xlink:href="#DejaVuSans-30" x="127.246094"/>
      </g>
     </g>
    </g>
    <g id="ytick_16">
     <g id="line2d_40">
      <g>
       <use xlink:href="#m318044a7ea" x="35.304688" y="130.069115" style="stroke: #000000; stroke-width: 0.8"/>
      </g>
     </g>
     <g id="text_32">
      <!-- 200 -->
      <g transform="translate(9.217187 133.868333)scale(0.1 -0.1)">
       <use xlink:href="#DejaVuSans-32"/>
       <use xlink:href="#DejaVuSans-30" x="63.623047"/>
       <use xlink:href="#DejaVuSans-30" x="127.246094"/>
      </g>
     </g>
    </g>
   </g>
   <g id="patch_47">
    <path d="M 35.304688 201.635739 
L 35.304688 126.866508 
" style="fill: none; stroke: #000000; stroke-width: 0.8; stroke-linejoin: miter; stroke-linecap: square"/>
   </g>
   <g id="patch_48">
    <path d="M 133.486506 201.635739 
L 133.486506 126.866508 
" style="fill: none; stroke: #000000; stroke-width: 0.8; stroke-linejoin: miter; stroke-linecap: square"/>
   </g>
   <g id="patch_49">
    <path d="M 35.304688 201.635739 
L 133.486506 201.635739 
" style="fill: none; stroke: #000000; stroke-width: 0.8; stroke-linejoin: miter; stroke-linecap: square"/>
   </g>
   <g id="patch_50">
    <path d="M 35.304688 126.866508 
L 133.486506 126.866508 
" style="fill: none; stroke: #000000; stroke-width: 0.8; stroke-linejoin: miter; stroke-linecap: square"/>
   </g>
  </g>
  <g id="axes_5">
   <g id="patch_51">
    <path d="M 153.122869 201.635739 
L 251.304687 201.635739 
L 251.304687 126.866508 
L 153.122869 126.866508 
z
" style="fill: #ffffff"/>
   </g>
   <g id="patch_52">
    <path d="M 157.585679 201.635739 
L 160.663479 201.635739 
L 160.663479 201.635739 
L 157.585679 201.635739 
z
" clip-path="url(#p425398850e)" style="fill: #1b362c; stroke: #000000; stroke-linejoin: miter"/>
   </g>
   <g id="patch_53">
    <path d="M 160.663479 201.635739 
L 163.741279 201.635739 
L 163.741279 201.635739 
L 160.663479 201.635739 
z
" clip-path="url(#p425398850e)" style="fill: #1b362c; stroke: #000000; stroke-linejoin: miter"/>
   </g>
   <g id="patch_54">
    <path d="M 163.741279 201.635739 
L 166.819079 201.635739 
L 166.819079 201.635739 
L 163.741279 201.635739 
z
" clip-path="url(#p425398850e)" style="fill: #1b362c; stroke: #000000; stroke-linejoin: miter"/>
   </g>
   <g id="patch_55">
    <path d="M 166.819079 201.635739 
L 169.896879 201.635739 
L 169.896879 181.383697 
L 166.819079 181.383697 
z
" clip-path="url(#p425398850e)" style="fill: #1b362c; stroke: #000000; stroke-linejoin: miter"/>
   </g>
   <g id="patch_56">
    <path d="M 169.896879 201.635739 
L 172.974679 201.635739 
L 172.974679 166.357989 
L 169.896879 166.357989 
z
" clip-path="url(#p425398850e)" style="fill: #1b362c; stroke: #000000; stroke-linejoin: miter"/>
   </g>
   <g id="patch_57">
    <path d="M 172.974679 201.635739 
L 176.052479 201.635739 
L 176.052479 151.985573 
L 172.974679 151.985573 
z
" clip-path="url(#p425398850e)" style="fill: #1b362c; stroke: #000000; stroke-linejoin: miter"/>
   </g>
   <g id="patch_58">
    <path d="M 176.052479 201.635739 
L 179.130279 201.635739 
L 179.130279 130.426948 
L 176.052479 130.426948 
z
" clip-path="url(#p425398850e)" style="fill: #1b362c; stroke: #000000; stroke-linejoin: miter"/>
   </g>
   <g id="patch_59">
    <path d="M 179.130279 201.635739 
L 182.208079 201.635739 
L 182.208079 194.449531 
L 179.130279 194.449531 
z
" clip-path="url(#p425398850e)" style="fill: #1b362c; stroke: #000000; stroke-linejoin: miter"/>
   </g>
   <g id="patch_60">
    <path d="M 182.208079 201.635739 
L 185.285879 201.635739 
L 185.285879 180.077114 
L 182.208079 180.077114 
z
" clip-path="url(#p425398850e)" style="fill: #1b362c; stroke: #000000; stroke-linejoin: miter"/>
   </g>
   <g id="patch_61">
    <path d="M 185.285879 201.635739 
L 188.363679 201.635739 
L 188.363679 155.252031 
L 185.285879 155.252031 
z
" clip-path="url(#p425398850e)" style="fill: #1b362c; stroke: #000000; stroke-linejoin: miter"/>
   </g>
   <g id="patch_62">
    <path d="M 188.363679 201.635739 
L 191.441479 201.635739 
L 191.441479 166.357989 
L 188.363679 166.357989 
z
" clip-path="url(#p425398850e)" style="fill: #1b362c; stroke: #000000; stroke-linejoin: miter"/>
   </g>
   <g id="patch_63">
    <path d="M 191.441479 201.635739 
L 194.519279 201.635739 
L 194.519279 184.650156 
L 191.441479 184.650156 
z
" clip-path="url(#p425398850e)" style="fill: #1b362c; stroke: #000000; stroke-linejoin: miter"/>
   </g>
   <g id="patch_64">
    <path d="M 194.519279 201.635739 
L 197.597078 201.635739 
L 197.597078 190.529781 
L 194.519279 190.529781 
z
" clip-path="url(#p425398850e)" style="fill: #1b362c; stroke: #000000; stroke-linejoin: miter"/>
   </g>
   <g id="patch_65">
    <path d="M 197.597078 201.635739 
L 200.674878 201.635739 
L 200.674878 196.409406 
L 197.597078 196.409406 
z
" clip-path="url(#p425398850e)" style="fill: #1b362c; stroke: #000000; stroke-linejoin: miter"/>
   </g>
   <g id="patch_66">
    <path d="M 200.674878 201.635739 
L 203.752678 201.635739 
L 203.752678 195.102822 
L 200.674878 195.102822 
z
" clip-path="url(#p425398850e)" style="fill: #1b362c; stroke: #000000; stroke-linejoin: miter"/>
   </g>
   <g id="patch_67">
    <path d="M 203.752678 201.635739 
L 206.830478 201.635739 
L 206.830478 201.635739 
L 203.752678 201.635739 
z
" clip-path="url(#p425398850e)" style="fill: #1b362c; stroke: #000000; stroke-linejoin: miter"/>
   </g>
   <g id="patch_68">
    <path d="M 206.830478 201.635739 
L 209.908278 201.635739 
L 209.908278 201.635739 
L 206.830478 201.635739 
z
" clip-path="url(#p425398850e)" style="fill: #1b362c; stroke: #000000; stroke-linejoin: miter"/>
   </g>
   <g id="patch_69">
    <path d="M 209.908278 201.635739 
L 212.986078 201.635739 
L 212.986078 201.635739 
L 209.908278 201.635739 
z
" clip-path="url(#p425398850e)" style="fill: #1b362c; stroke: #000000; stroke-linejoin: miter"/>
   </g>
   <g id="patch_70">
    <path d="M 212.986078 201.635739 
L 216.063878 201.635739 
L 216.063878 201.635739 
L 212.986078 201.635739 
z
" clip-path="url(#p425398850e)" style="fill: #1b362c; stroke: #000000; stroke-linejoin: miter"/>
   </g>
   <g id="patch_71">
    <path d="M 216.063878 201.635739 
L 219.141678 201.635739 
L 219.141678 201.635739 
L 216.063878 201.635739 
z
" clip-path="url(#p425398850e)" style="fill: #1b362c; stroke: #000000; stroke-linejoin: miter"/>
   </g>
   <g id="patch_72">
    <path d="M 219.141678 201.635739 
L 222.219478 201.635739 
L 222.219478 201.635739 
L 219.141678 201.635739 
z
" clip-path="url(#p425398850e)" style="fill: #1b362c; stroke: #000000; stroke-linejoin: miter"/>
   </g>
   <g id="patch_73">
    <path d="M 222.219478 201.635739 
L 225.297278 201.635739 
L 225.297278 201.635739 
L 222.219478 201.635739 
z
" clip-path="url(#p425398850e)" style="fill: #1b362c; stroke: #000000; stroke-linejoin: miter"/>
   </g>
   <g id="patch_74">
    <path d="M 225.297278 201.635739 
L 228.375078 201.635739 
L 228.375078 201.635739 
L 225.297278 201.635739 
z
" clip-path="url(#p425398850e)" style="fill: #1b362c; stroke: #000000; stroke-linejoin: miter"/>
   </g>
   <g id="patch_75">
    <path d="M 228.375078 201.635739 
L 231.452878 201.635739 
L 231.452878 201.635739 
L 228.375078 201.635739 
z
" clip-path="url(#p425398850e)" style="fill: #1b362c; stroke: #000000; stroke-linejoin: miter"/>
   </g>
   <g id="patch_76">
    <path d="M 231.452878 201.635739 
L 234.530678 201.635739 
L 234.530678 201.635739 
L 231.452878 201.635739 
z
" clip-path="url(#p425398850e)" style="fill: #1b362c; stroke: #000000; stroke-linejoin: miter"/>
   </g>
   <g id="patch_77">
    <path d="M 234.530678 201.635739 
L 237.608478 201.635739 
L 237.608478 201.635739 
L 234.530678 201.635739 
z
" clip-path="url(#p425398850e)" style="fill: #1b362c; stroke: #000000; stroke-linejoin: miter"/>
   </g>
   <g id="patch_78">
    <path d="M 237.608478 201.635739 
L 240.686278 201.635739 
L 240.686278 201.635739 
L 237.608478 201.635739 
z
" clip-path="url(#p425398850e)" style="fill: #1b362c; stroke: #000000; stroke-linejoin: miter"/>
   </g>
   <g id="patch_79">
    <path d="M 240.686278 201.635739 
L 243.764078 201.635739 
L 243.764078 201.635739 
L 240.686278 201.635739 
z
" clip-path="url(#p425398850e)" style="fill: #1b362c; stroke: #000000; stroke-linejoin: miter"/>
   </g>
   <g id="patch_80">
    <path d="M 243.764078 201.635739 
L 246.841878 201.635739 
L 246.841878 201.635739 
L 243.764078 201.635739 
z
" clip-path="url(#p425398850e)" style="fill: #1b362c; stroke: #000000; stroke-linejoin: miter"/>
   </g>
   <g id="matplotlib.axis_9">
    <g id="xtick_17">
     <g id="line2d_41">
      <g>
       <use xlink:href="#me62614e6f5" x="157.585679" y="201.635739" style="stroke: #000000; stroke-width: 0.8"/>
      </g>
     </g>
     <g id="text_33">
      <!-- −100 -->
      <g transform="translate(143.852085 216.234176)scale(0.1 -0.1)">
       <use xlink:href="#DejaVuSans-2212"/>
       <use xlink:href="#DejaVuSans-31" x="83.789062"/>
       <use xlink:href="#DejaVuSans-30" x="147.412109"/>
       <use xlink:href="#DejaVuSans-30" x="211.035156"/>
      </g>
     </g>
    </g>
    <g id="xtick_18">
     <g id="line2d_42">
      <g>
       <use xlink:href="#me62614e6f5" x="202.213778" y="201.635739" style="stroke: #000000; stroke-width: 0.8"/>
      </g>
     </g>
     <g id="text_34">
      <!-- 0 -->
      <g transform="translate(199.032528 216.234176)scale(0.1 -0.1)">
       <use xlink:href="#DejaVuSans-30"/>
      </g>
     </g>
    </g>
    <g id="xtick_19">
     <g id="line2d_43">
      <g>
       <use xlink:href="#me62614e6f5" x="246.841878" y="201.635739" style="stroke: #000000; stroke-width: 0.8"/>
      </g>
     </g>
     <g id="text_35">
      <!-- 100 -->
      <g transform="translate(237.298128 216.234176)scale(0.1 -0.1)">
       <use xlink:href="#DejaVuSans-31"/>
       <use xlink:href="#DejaVuSans-30" x="63.623047"/>
       <use xlink:href="#DejaVuSans-30" x="127.246094"/>
      </g>
     </g>
    </g>
   </g>
   <g id="matplotlib.axis_10">
    <g id="ytick_17">
     <g id="line2d_44">
      <g>
       <use xlink:href="#m318044a7ea" x="153.122869" y="201.635739" style="stroke: #000000; stroke-width: 0.8"/>
      </g>
     </g>
     <g id="text_36">
      <!-- 0 -->
      <g transform="translate(139.760369 205.434958)scale(0.1 -0.1)">
       <use xlink:href="#DejaVuSans-30"/>
      </g>
     </g>
    </g>
    <g id="ytick_18">
     <g id="line2d_45">
      <g>
       <use xlink:href="#m318044a7ea" x="153.122869" y="168.971156" style="stroke: #000000; stroke-width: 0.8"/>
      </g>
     </g>
     <g id="text_37">
      <!-- 50 -->
      <g transform="translate(133.397869 172.770375)scale(0.1 -0.1)">
       <use xlink:href="#DejaVuSans-35"/>
       <use xlink:href="#DejaVuSans-30" x="63.623047"/>
      </g>
     </g>
    </g>
    <g id="ytick_19">
     <g id="line2d_46">
      <g>
       <use xlink:href="#m318044a7ea" x="153.122869" y="136.306573" style="stroke: #000000; stroke-width: 0.8"/>
      </g>
     </g>
     <g id="text_38">
      <!-- 100 -->
      <g transform="translate(127.035369 140.105791)scale(0.1 -0.1)">
       <use xlink:href="#DejaVuSans-31"/>
       <use xlink:href="#DejaVuSans-30" x="63.623047"/>
       <use xlink:href="#DejaVuSans-30" x="127.246094"/>
      </g>
     </g>
    </g>
   </g>
   <g id="patch_81">
    <path d="M 153.122869 201.635739 
L 153.122869 126.866508 
" style="fill: none; stroke: #000000; stroke-width: 0.8; stroke-linejoin: miter; stroke-linecap: square"/>
   </g>
   <g id="patch_82">
    <path d="M 251.304687 201.635739 
L 251.304687 126.866508 
" style="fill: none; stroke: #000000; stroke-width: 0.8; stroke-linejoin: miter; stroke-linecap: square"/>
   </g>
   <g id="patch_83">
    <path d="M 153.122869 201.635739 
L 251.304687 201.635739 
" style="fill: none; stroke: #000000; stroke-width: 0.8; stroke-linejoin: miter; stroke-linecap: square"/>
   </g>
   <g id="patch_84">
    <path d="M 153.122869 126.866508 
L 251.304687 126.866508 
" style="fill: none; stroke: #000000; stroke-width: 0.8; stroke-linejoin: miter; stroke-linecap: square"/>
   </g>
  </g>
 </g>
 <defs>
  <clipPath id="pfccf51bf94">
   <rect x="323.304688" y="7.235739" width="360" height="194.4"/>
  </clipPath>
  <clipPath id="p82e0e33eee">
   <rect x="35.304688" y="7.235739" width="98.181818" height="74.769231"/>
  </clipPath>
  <clipPath id="p37dddda1da">
   <rect x="153.122869" y="7.235739" width="98.181818" height="74.769231"/>
  </clipPath>
  <clipPath id="pe4377ee144">
   <rect x="35.304688" y="126.866508" width="98.181818" height="74.769231"/>
  </clipPath>
  <clipPath id="p425398850e">
   <rect x="153.122869" y="126.866508" width="98.181818" height="74.769231"/>
  </clipPath>
 </defs>
</svg>
